<svg version="1.1" id="Layer_1" xmlns="http://www.w3.org/2000/svg" xmlns:xlink="http://www.w3.org/1999/xlink" x="0px" y="0px"
	 width="100%" viewBox="1234.6 374.2 1131.5 881.6" enable-background="new 0 0 2360 1640" xml:space="preserve">
<path fill="#FFFFFF" opacity="1.000000" stroke="none" 
	d="
M1594.920166,923.074829 
	C1600.222412,941.229614 1606.048584,959.251831 1610.684937,977.575134 
	C1615.698486,997.389404 1619.965210,1017.415283 1623.803101,1037.493042 
	C1625.275146,1045.193481 1624.757812,1053.290527 1624.901123,1061.211304 
	C1624.923706,1062.453613 1623.634155,1063.719849 1622.951416,1064.975098 
	C1622.392944,1064.916992 1621.834595,1064.859009 1621.276245,1064.800903 
	C1619.184570,1057.615845 1616.706299,1050.517212 1615.073975,1043.229370 
	C1610.213501,1021.528259 1605.468750,999.796326 1601.089478,977.993896 
	C1596.796143,956.619690 1593.123169,935.121094 1588.853638,913.741821 
	C1588.302734,910.983582 1585.806763,908.613708 1583.556030,905.015381 
	C1582.956543,911.618652 1582.516479,916.891113 1581.989258,922.154785 
	C1581.468018,927.358154 1579.651367,931.910278 1575.129395,934.989014 
	C1569.652466,938.717773 1563.932861,937.081116 1558.266602,935.642700 
	C1557.068115,935.338501 1556.002441,934.511108 1554.593262,933.777954 
	C1554.044678,937.697571 1553.202637,941.297729 1553.095581,944.919556 
	C1552.739258,956.974731 1544.217407,962.412292 1534.829468,965.793335 
	C1515.105103,972.897095 1495.171387,979.558411 1474.986938,985.195984 
	C1461.760498,988.890137 1447.995728,990.807678 1434.377441,992.906372 
	C1420.794556,994.999695 1407.133667,996.948425 1393.434204,997.827576 
	C1377.393433,998.857056 1361.202026,999.749451 1345.209229,998.690247 
	C1329.507446,997.650330 1314.027344,994.164856 1300.376343,985.105591 
	C1288.436646,977.182007 1279.766968,967.112732 1273.695312,953.893982 
	C1267.932007,941.346191 1265.559814,928.234985 1263.011719,915.006958 
	C1260.659302,902.795288 1258.200684,890.597778 1256.197876,878.327209 
	C1254.495728,867.897888 1253.423706,857.366882 1251.985352,846.893005 
	C1250.770264,838.046021 1249.316528,829.230774 1248.180298,820.374329 
	C1247.286133,813.405640 1246.431396,806.410278 1246.065552,799.400330 
	C1245.487427,788.319885 1244.561279,777.172241 1245.206177,766.136169 
	C1245.924438,753.845032 1248.212524,741.643860 1249.858887,729.409180 
	C1252.020630,713.344971 1259.917847,699.495361 1268.588379,686.504761 
	C1274.768555,677.245667 1283.770508,669.834839 1291.721191,661.805054 
	C1297.008301,656.465393 1302.783447,651.611145 1308.120728,646.318298 
	C1314.860229,639.634888 1323.477661,637.255737 1332.254028,634.956848 
	C1340.999268,632.666077 1349.817139,630.062622 1355.740356,622.635986 
	C1362.738770,613.861084 1366.663208,603.554321 1368.986450,592.634460 
	C1369.725220,589.161499 1370.745483,585.664978 1370.820679,582.161743 
	C1370.876221,579.573730 1373.138306,575.344910 1367.643311,574.897156 
	C1367.403442,574.877563 1367.105225,574.131104 1367.034302,573.691040 
	C1365.081909,561.548950 1357.477051,552.027649 1351.821289,541.681519 
	C1344.883301,528.989319 1341.660889,516.245178 1347.014404,502.249725 
	C1347.872192,500.007141 1348.906494,498.215393 1346.060059,496.024963 
	C1345.058960,495.254547 1346.251953,491.040649 1347.062622,488.605133 
	C1351.932983,473.971313 1358.349365,460.048553 1369.542603,449.142731 
	C1377.786011,441.110992 1387.804077,435.675690 1398.251221,430.592346 
	C1408.120239,425.790283 1418.347534,422.847626 1428.822510,421.285675 
	C1448.727417,418.317535 1468.619995,418.819855 1487.282104,427.796173 
	C1497.836060,432.872528 1508.238037,438.300140 1518.470093,443.997559 
	C1524.953491,447.607727 1528.333984,454.208862 1528.785522,461.096832 
	C1529.822998,476.920685 1526.203369,491.976746 1517.960693,505.681732 
	C1516.597046,507.948853 1514.352905,509.686340 1512.350342,511.846954 
	C1527.114502,563.294983 1506.154419,624.909668 1473.330444,647.461304 
	C1473.626953,649.574097 1474.298828,651.209900 1473.959595,652.598633 
	C1473.242432,655.533386 1471.942749,658.320923 1470.979492,661.201416 
	C1469.077393,666.889771 1469.651611,669.009277 1475.314575,670.903320 
	C1482.744873,673.388550 1490.486572,674.929626 1498.055054,677.018372 
	C1507.458862,679.613525 1516.910889,682.091248 1526.147827,685.197327 
	C1528.771973,686.079712 1530.719360,688.973877 1532.556763,690.578369 
	C1538.379272,684.200745 1544.341797,677.973938 1549.893921,671.400391 
	C1551.526855,669.466919 1552.634766,666.616333 1552.893799,664.074951 
	C1554.312866,650.161255 1557.613159,636.755249 1563.485229,624.084595 
	C1571.177856,607.485901 1579.525391,591.184387 1586.950928,574.470581 
	C1591.732910,563.706909 1595.922363,552.571716 1595.010620,540.339111 
	C1594.292603,530.706116 1593.271851,521.071350 1593.144653,511.427338 
	C1593.061279,505.113373 1593.693481,498.629272 1595.155151,492.495422 
	C1597.077148,484.429688 1600.061401,476.610016 1602.754272,468.741119 
	C1603.276855,467.213776 1604.557739,465.945984 1605.488892,464.558472 
	C1606.174805,464.781525 1606.860840,465.004547 1607.546875,465.227600 
	C1606.685181,473.229431 1606.371094,481.339447 1604.816895,489.204437 
	C1603.056152,498.113953 1603.357422,506.811981 1604.863403,515.615173 
	C1608.387207,536.212524 1607.873413,556.451477 1598.990601,575.807983 
	C1592.713867,589.485352 1586.207642,603.057678 1579.763062,616.657532 
	C1573.640503,629.577637 1568.597290,642.891968 1565.126099,656.770203 
	C1564.741699,658.306885 1565.074097,660.022888 1565.074097,662.199707 
	C1569.908081,661.068848 1574.378296,660.033569 1578.843262,658.976379 
	C1590.464355,656.224670 1601.489502,658.649963 1611.937134,663.546265 
	C1624.172485,669.280457 1634.463257,677.637939 1642.903564,688.310547 
	C1648.538940,695.436584 1655.068237,701.890747 1660.344727,709.256531 
	C1666.295898,717.564514 1671.489746,726.441284 1676.654663,735.280029 
	C1684.270386,748.312683 1691.510620,761.564636 1699.100708,774.612732 
	C1699.798340,775.811951 1701.797607,776.694641 1703.309814,776.913025 
	C1725.254028,780.083374 1738.400024,797.666016 1742.747437,816.046753 
	C1744.200317,822.189514 1742.976807,828.965210 1742.976807,835.644775 
	C1757.333984,829.721008 1771.464478,823.796204 1785.675171,818.070435 
	C1792.053711,815.500427 1798.958374,814.018494 1804.979370,810.826233 
	C1815.949951,805.009766 1828.028564,803.175293 1839.660522,799.725952 
	C1851.454346,796.228760 1862.503662,798.087646 1872.355225,805.194153 
	C1878.647705,809.733459 1881.774292,816.628235 1882.966431,824.219910 
	C1884.965820,836.952515 1881.153320,848.506592 1874.321655,858.898499 
	C1871.146729,863.727722 1865.913818,867.154297 1862.032349,871.583252 
	C1858.407837,875.718933 1855.570190,880.541443 1851.971191,884.702698 
	C1845.688477,891.966919 1839.073242,898.943176 1832.642578,906.080750 
	C1832.036865,906.753052 1831.752686,907.715149 1830.468872,910.166199 
	C1838.915161,907.882629 1846.231812,906.383972 1853.203491,903.911865 
	C1864.948486,899.747070 1875.976074,894.041382 1881.930664,882.333618 
	C1884.714478,876.859802 1887.286255,870.734863 1887.758789,864.732178 
	C1889.100098,847.689331 1887.460205,830.780396 1881.231812,814.642212 
	C1873.220703,793.884705 1864.968384,773.220459 1856.920044,752.477173 
	C1849.218384,732.626831 1841.654175,712.723267 1834.003052,692.853210 
	C1833.038330,690.347839 1831.913086,687.904175 1829.832275,685.564941 
	C1830.312622,691.910645 1830.769409,698.258240 1831.289795,704.600586 
	C1831.422363,706.216003 1831.844360,707.807312 1831.983276,709.422607 
	C1832.363281,713.836792 1833.154785,718.286804 1832.897095,722.670471 
	C1832.276733,733.220276 1832.829346,743.890625 1829.457031,754.202026 
	C1827.797363,759.276611 1825.054321,763.396362 1819.806274,763.769653 
	C1814.804199,764.125488 1811.201538,760.209412 1809.106934,756.018921 
	C1804.474609,746.751526 1801.287476,736.976440 1800.991211,726.453308 
	C1800.697876,716.034119 1799.951782,705.611572 1800.096069,695.200134 
	C1800.278442,682.032959 1801.894409,669.127136 1808.811646,657.345825 
	C1811.964600,651.975464 1807.068481,648.268982 1804.174927,644.861267 
	C1795.417358,634.547913 1783.963135,627.453247 1772.663818,620.363525 
	C1762.597046,614.047180 1753.079834,607.333130 1748.504395,595.872559 
	C1746.738892,591.450195 1746.095093,586.573364 1745.019409,581.885376 
	C1744.599121,580.053711 1744.396606,578.172058 1743.999756,575.726990 
	C1735.579956,586.861877 1726.606567,596.109192 1713.616821,600.891541 
	C1698.617920,606.413696 1684.839722,604.286255 1672.536743,594.830139 
	C1657.120728,582.981323 1647.772827,566.521179 1639.913086,549.059387 
	C1635.415039,539.065979 1632.437378,528.827820 1631.982300,517.852478 
	C1631.441895,504.821014 1637.317383,494.518402 1645.431763,485.022186 
	C1654.383057,474.546631 1665.615234,467.141876 1677.584473,460.000000 
	C1676.047485,460.000000 1674.510376,460.000000 1672.973389,460.000000 
	C1651.473999,460.000000 1629.972656,460.149750 1608.476929,459.866821 
	C1604.437622,459.813721 1600.356079,458.236725 1596.415649,456.981445 
	C1593.605835,456.086334 1591.084839,453.957458 1592.164307,450.787842 
	C1593.020874,448.272614 1594.939087,444.950470 1597.097290,444.281616 
	C1602.129395,442.722107 1603.293579,439.663330 1604.138550,434.987518 
	C1606.657349,421.047943 1615.622925,411.351837 1626.510620,403.108643 
	C1637.216064,395.003510 1649.500977,389.853790 1662.387817,387.539581 
	C1680.521118,384.283203 1698.988037,384.199890 1716.328369,391.934601 
	C1724.781128,395.705017 1733.019897,400.253021 1740.650024,405.479248 
	C1747.189697,409.958710 1751.318848,416.750916 1752.250244,424.513306 
	C1761.079712,425.353943 1769.958862,423.773712 1777.645386,429.148834 
	C1782.121826,432.279175 1782.408081,439.172791 1778.057373,442.363129 
	C1775.736328,444.065155 1773.241333,446.057770 1770.553955,446.616455 
	C1765.791504,447.606537 1764.647217,450.077576 1764.930054,454.543518 
	C1765.642578,465.793396 1760.944336,476.067413 1758.700562,486.791229 
	C1758.105347,489.635742 1758.105713,492.624451 1758.018921,495.552460 
	C1757.641235,508.279541 1758.156372,521.101624 1756.734009,533.707214 
	C1755.628052,543.511047 1752.923340,553.343689 1749.414551,562.588745 
	C1747.312378,568.127808 1749.847900,572.028259 1751.185913,576.255615 
	C1753.487061,583.526245 1756.209473,590.877563 1760.157471,597.337891 
	C1762.795898,601.655273 1767.576416,604.902527 1771.905396,607.895142 
	C1779.574829,613.196960 1787.749268,617.763184 1795.495239,622.960632 
	C1806.402954,630.279480 1815.332642,639.423828 1821.800781,651.084045 
	C1824.286865,655.565613 1828.957397,658.778931 1831.924561,663.060791 
	C1840.967773,676.110718 1845.312134,691.315063 1851.021606,705.903564 
	C1857.789795,723.197021 1864.856934,740.374573 1871.910767,757.554565 
	C1876.464600,768.645508 1881.656128,779.493469 1885.776123,790.738159 
	C1889.954590,802.142151 1893.864868,813.737000 1896.625244,825.544495 
	C1900.063965,840.253357 1901.968750,855.462524 1898.765625,870.386597 
	C1896.265259,882.035889 1890.939331,892.314087 1881.269287,900.689331 
	C1870.165405,910.306458 1857.307373,915.224792 1843.704834,918.390564 
	C1836.441895,920.080872 1828.505493,919.136597 1820.885620,918.925964 
	C1817.020996,918.819092 1816.121460,919.573181 1816.705444,923.405579 
	C1818.271484,933.682129 1819.455933,944.017029 1821.035278,954.291321 
	C1822.726074,965.289978 1824.902954,976.216370 1826.463013,987.231567 
	C1827.381470,993.716553 1827.307739,1000.336426 1828.049438,1006.853577 
	C1829.096680,1016.052307 1830.537354,1025.205688 1831.704956,1034.391724 
	C1832.261597,1038.771729 1832.528076,1043.187622 1833.009277,1047.578247 
	C1834.306641,1059.413330 1835.662231,1071.242065 1836.965332,1083.076538 
	C1837.359253,1086.654663 1837.742554,1090.237549 1837.985352,1093.828003 
	C1839.020386,1109.133301 1840.088257,1124.437256 1840.953247,1139.752563 
	C1841.253174,1145.063477 1841.437134,1150.459106 1840.793823,1155.708252 
	C1840.519287,1157.947388 1838.343384,1160.359741 1836.399170,1161.890503 
	C1833.638428,1164.064575 1830.576660,1162.859009 1828.849609,1160.211792 
	C1826.255737,1156.236450 1823.748901,1152.075195 1822.057739,1147.666016 
	C1818.102051,1137.352173 1814.556030,1126.876709 1811.020020,1116.407471 
	C1803.951050,1095.477905 1797.385620,1074.367920 1789.820801,1053.620972 
	C1786.549561,1044.649048 1781.441284,1036.325562 1776.905762,1027.847656 
	C1775.302856,1024.851562 1772.297241,1025.071777 1771.366943,1028.385010 
	C1769.242188,1035.952637 1766.792114,1043.624268 1766.196289,1051.385742 
	C1764.894897,1068.336914 1764.635620,1085.369385 1764.010864,1102.370728 
	C1763.617310,1113.082886 1763.616577,1123.818237 1762.891968,1134.506104 
	C1762.467896,1140.760986 1761.391113,1147.052490 1759.823730,1153.125000 
	C1758.428833,1158.530029 1749.300537,1159.610962 1746.061157,1154.634766 
	C1742.240112,1148.764893 1739.005005,1142.457886 1736.049072,1136.092773 
	C1730.670532,1124.510986 1725.685425,1112.746460 1720.536133,1101.058228 
	C1720.042969,1101.106934 1719.549805,1101.155640 1719.056641,1101.204346 
	C1718.704590,1102.234375 1718.058594,1103.261108 1718.047241,1104.294678 
	C1717.961304,1112.110107 1717.884399,1119.928955 1718.025635,1127.742676 
	C1718.265015,1140.995728 1719.170532,1154.257935 1718.857056,1167.493896 
	C1718.548462,1180.521484 1717.072754,1193.521606 1716.145020,1206.050049 
	C1728.297974,1206.050049 1741.477173,1206.002930 1754.655396,1206.092896 
	C1757.069458,1206.109375 1759.486450,1206.986694 1761.890381,1206.933105 
	C1766.146851,1206.838135 1770.392578,1206.073730 1774.645752,1206.045776 
	C1791.528809,1205.934692 1808.413208,1206.000000 1825.296997,1206.000000 
	C1847.113037,1206.000000 1868.930054,1205.870972 1890.744873,1206.038940 
	C1909.875488,1206.186157 1929.008179,1206.508057 1948.130859,1207.067993 
	C1957.478760,1207.341675 1966.796387,1208.566772 1976.144531,1208.941284 
	C1988.912354,1209.453125 2001.703979,1209.376953 2014.469971,1209.917969 
	C2021.998779,1210.236938 2029.490479,1211.358643 2037.013428,1211.926270 
	C2040.489746,1212.188599 2044.012939,1211.806030 2047.493652,1212.036499 
	C2055.841797,1212.588989 2064.171631,1213.418579 2072.520508,1213.956543 
	C2076.221191,1214.194946 2079.952148,1213.923462 2083.666016,1214.013916 
	C2095.824707,1214.310303 2107.980957,1214.705444 2120.140137,1214.990356 
	C2136.052734,1215.363037 2151.975586,1216.132812 2167.877197,1215.835571 
	C2178.436279,1215.638184 2189.024658,1214.269775 2199.494141,1212.713135 
	C2214.490967,1210.483276 2229.435059,1207.829590 2244.317383,1204.923828 
	C2254.884521,1202.860596 2265.349609,1200.230591 2275.794189,1197.591431 
	C2295.727051,1192.554932 2315.579590,1187.198120 2335.536377,1182.260864 
	C2342.100586,1180.637085 2348.884033,1179.899048 2355.567139,1178.755981 
	C2355.717773,1179.207642 2355.868408,1179.659424 2356.019287,1180.111084 
	C2349.135498,1182.820435 2342.339844,1185.785767 2335.351074,1188.190186 
	C2315.801758,1194.916138 2296.325195,1201.918823 2276.534668,1207.862061 
	C2253.645752,1214.735840 2230.597412,1221.216064 2207.332275,1226.641602 
	C2195.253906,1229.458374 2182.586670,1230.025879 2170.135254,1230.888306 
	C2157.919434,1231.734497 2145.640625,1231.918823 2133.388916,1231.926880 
	C2121.837646,1231.934448 2110.282715,1231.412720 2098.734863,1230.981689 
	C2082.918945,1230.391357 2067.105713,1229.712280 2051.295654,1228.985718 
	C2038.287598,1228.388184 2025.283691,1227.698853 2012.281250,1226.988892 
	C2000.948486,1226.370239 1989.625488,1225.550293 1978.288574,1225.033203 
	C1967.557007,1224.543823 1956.807739,1224.443481 1946.075317,1223.968750 
	C1933.899902,1223.430298 1921.740845,1222.278564 1909.563721,1222.087158 
	C1889.250610,1221.767700 1868.928345,1222.093262 1848.611206,1221.954346 
	C1840.399658,1221.898193 1832.192871,1221.121826 1823.981445,1221.070679 
	C1817.730835,1221.031616 1811.474976,1221.895386 1805.223877,1221.863647 
	C1796.375977,1221.818848 1787.531250,1221.121094 1778.683594,1221.081665 
	C1772.441650,1221.053711 1766.198853,1221.864624 1759.953247,1221.914673 
	C1754.201172,1221.960693 1748.445679,1221.334717 1742.690186,1221.302246 
	C1738.610962,1221.279297 1734.531860,1221.892212 1730.447876,1221.970825 
	C1724.117065,1222.092773 1717.615234,1221.144409 1711.513672,1222.332520 
	C1708.042725,1223.008423 1704.851440,1226.687500 1702.174316,1229.602173 
	C1690.528442,1242.280762 1674.778320,1245.816772 1660.365356,1237.653320 
	C1656.470337,1235.447266 1654.552490,1231.486450 1655.024536,1226.821289 
	C1655.638672,1220.751465 1659.175049,1216.104614 1664.562866,1214.383545 
	C1672.479980,1211.854492 1680.830933,1210.658081 1689.025269,1209.036377 
	C1691.893311,1208.469116 1694.957153,1208.685059 1697.709839,1207.829712 
	C1699.060059,1207.410278 1700.572144,1205.492554 1700.864502,1204.024536 
	C1702.441406,1196.104614 1704.478760,1188.148438 1704.821777,1180.138794 
	C1705.448730,1165.499390 1705.000000,1150.814087 1705.000000,1136.147827 
	C1705.000000,1126.139038 1704.581055,1116.105835 1705.165527,1106.131226 
	C1705.488647,1100.613892 1706.927734,1094.983276 1708.879272,1089.784790 
	C1711.401489,1083.066284 1721.240234,1082.932129 1726.042114,1089.747681 
	C1729.902832,1095.227783 1733.002441,1101.307617 1735.924683,1107.369629 
	C1740.092896,1116.016235 1743.790405,1124.889771 1748.301880,1135.046143 
	C1749.145386,1132.430420 1749.882812,1131.121338 1749.948975,1129.779175 
	C1750.380371,1121.042358 1750.799805,1112.300781 1750.962524,1103.556030 
	C1751.129761,1094.580322 1750.384399,1085.547363 1751.132812,1076.631226 
	C1752.541138,1059.849243 1753.019531,1042.841553 1759.054077,1026.796631 
	C1760.278931,1023.539673 1761.950317,1020.293945 1764.087402,1017.569946 
	C1768.423340,1012.043091 1775.135620,1010.195679 1781.947144,1017.774902 
	C1786.817505,1023.194214 1791.175781,1029.655396 1793.796997,1036.414185 
	C1805.348145,1066.197632 1816.185791,1096.257568 1827.899658,1126.340088 
	C1826.677979,1114.738770 1825.408813,1103.142090 1824.255859,1091.533813 
	C1823.720459,1086.144287 1823.566162,1080.715332 1822.967285,1075.334473 
	C1821.778687,1064.654175 1820.339844,1054.001709 1819.123413,1043.324341 
	C1818.309448,1036.178589 1817.818481,1028.995361 1816.971436,1021.853943 
	C1815.806519,1012.031860 1814.397827,1002.238831 1813.178955,992.422791 
	C1812.374878,985.947144 1811.763672,979.447693 1810.989624,972.968079 
	C1809.926880,964.073669 1808.820435,955.184143 1807.675293,946.299927 
	C1807.067017,941.580200 1806.337769,936.876099 1805.573975,931.543823 
	C1802.597168,933.947571 1799.856934,936.142822 1797.135376,938.361084 
	C1786.271118,947.215759 1775.964600,956.887451 1764.425049,964.750183 
	C1746.390747,977.038574 1726.409058,984.814392 1704.067261,983.929565 
	C1686.872314,983.248474 1670.835938,978.231934 1655.957520,969.498291 
	C1650.988892,966.581726 1645.872070,963.899963 1640.717773,961.320923 
	C1625.148926,953.530884 1613.607788,940.882935 1601.479126,928.947327 
	C1599.521606,927.020874 1597.885620,924.767639 1595.649048,922.222107 
	C1594.861694,921.647156 1594.526489,921.515503 1594.191162,921.383911 
	C1594.434082,921.947571 1594.677124,922.511230 1594.920166,923.074829 
M1696.189941,870.999146 
	C1685.857056,876.463440 1676.635986,883.452576 1668.076050,891.368896 
	C1679.567505,887.126526 1689.547729,880.659668 1698.221191,871.197205 
	C1698.352783,870.861877 1698.484497,870.526550 1698.616089,870.191040 
	C1698.052368,870.434082 1697.488770,870.677063 1696.189941,870.999146 
M1416.789673,888.998535 
	C1414.177124,887.148315 1411.569214,885.291504 1408.950684,883.449890 
	C1406.086182,881.435303 1403.211914,879.434753 1400.341797,877.428162 
	C1400.024292,877.800232 1399.706909,878.172363 1399.389404,878.544495 
	C1406.242188,886.848755 1408.573242,896.388550 1406.828003,907.646729 
	C1442.942383,891.465698 1479.201538,878.524475 1517.448242,874.891052 
	C1516.546753,865.108582 1515.454346,856.730957 1515.067749,848.320923 
	C1514.303711,831.698059 1515.115479,815.127319 1519.068359,798.893799 
	C1521.049805,790.755920 1524.256226,783.164551 1531.999023,779.942505 
	C1531.999023,762.823914 1532.400757,746.063354 1531.816528,729.337219 
	C1531.554321,721.834412 1529.755737,714.282166 1527.781860,706.988403 
	C1526.888916,703.688904 1524.274048,700.551697 1521.735596,698.058716 
	C1514.382446,690.837708 1504.017700,691.104614 1494.990845,688.028381 
	C1486.833252,685.248291 1477.896118,683.929077 1470.561157,679.754700 
	C1459.544189,673.485046 1456.038452,665.487793 1465.869507,654.583435 
	C1466.388672,654.007751 1466.588501,653.144043 1467.198364,651.867188 
	C1464.946899,653.030823 1463.423950,653.895691 1461.838501,654.625122 
	C1449.306396,660.390259 1436.314453,662.530334 1423.370117,656.871338 
	C1415.799927,653.561829 1408.647827,649.009583 1401.891113,644.197388 
	C1393.182861,637.995544 1385.546143,630.536743 1381.138672,620.448547 
	C1379.636230,617.009766 1378.348389,613.477356 1376.686646,609.293091 
	C1375.581177,612.690552 1374.884766,615.162598 1373.979248,617.555603 
	C1370.268433,627.362000 1365.096191,636.365356 1355.703003,641.536499 
	C1346.898926,646.383362 1337.201538,649.602600 1328.372681,654.411011 
	C1318.390747,659.847595 1307.918701,665.091431 1299.468140,672.485779 
	C1281.807861,687.939026 1267.756470,706.324280 1263.336670,730.255676 
	C1261.454346,740.447815 1259.756714,750.757263 1259.144531,761.082642 
	C1258.031372,779.857727 1259.967407,798.564697 1262.072754,817.222290 
	C1262.750122,823.224915 1263.112183,829.275330 1264.075806,835.229858 
	C1264.925903,840.483582 1266.703247,845.588013 1267.539551,850.842896 
	C1268.418091,856.363281 1268.402466,862.024292 1269.247559,867.552002 
	C1270.631714,876.606628 1272.386841,885.604858 1274.002441,894.623840 
	C1276.100464,906.335022 1277.594727,918.202026 1280.537964,929.697632 
	C1282.540161,937.517578 1287.106201,944.647339 1289.586304,952.386841 
	C1293.191650,963.637939 1301.960815,969.326172 1311.185913,975.097778 
	C1324.186279,983.231506 1338.942017,984.003357 1353.318970,984.689941 
	C1368.404907,985.410278 1383.651001,984.165649 1398.748779,982.868164 
	C1415.122803,981.461060 1431.504517,979.580139 1447.700562,976.831970 
	C1462.414673,974.335144 1477.021240,970.896973 1491.421143,966.947266 
	C1504.817993,963.272705 1517.880493,958.378601 1531.088501,954.016479 
	C1539.882080,951.112366 1543.561768,944.082336 1542.679565,935.017334 
	C1541.620117,924.129517 1537.210449,914.674561 1532.670166,905.027283 
	C1527.668091,894.399109 1514.962891,889.330078 1505.458618,891.260376 
	C1491.488037,894.097778 1477.658691,898.013550 1464.128784,902.544189 
	C1445.308838,908.846375 1426.801880,916.089600 1408.205933,923.050110 
	C1403.574341,924.783752 1398.684937,926.350342 1394.671997,929.100037 
	C1387.715210,933.867065 1380.915649,939.046021 1374.849365,944.882996 
	C1367.633057,951.826416 1358.642578,950.573242 1350.401855,950.660095 
	C1341.391479,950.755188 1332.878296,947.017212 1325.756958,940.978821 
	C1315.971802,932.681641 1309.768921,922.194336 1310.236816,909.333557 
	C1310.633423,898.432068 1315.644531,889.008301 1325.363037,883.026367 
	C1330.213013,880.041138 1335.953003,878.312683 1340.352051,874.830383 
	C1346.463135,869.992859 1353.318359,868.006226 1360.716064,866.630798 
	C1358.843872,862.600037 1357.034058,858.478882 1355.040161,854.448792 
	C1345.417236,834.999573 1335.712891,815.525574 1332.521118,793.770325 
	C1331.448608,786.459534 1330.858521,778.639465 1332.274902,771.493591 
	C1335.190796,756.783386 1346.384766,752.742981 1357.994263,760.126587 
	C1368.295776,766.678406 1373.285400,777.740356 1377.754517,788.454834 
	C1380.836304,795.843262 1381.899048,804.113586 1383.521606,812.059692 
	C1385.128418,819.928894 1386.900024,827.840027 1387.513550,835.816345 
	C1388.201538,844.761047 1387.671631,853.799438 1387.671631,862.132996 
	C1391.337036,863.287781 1394.166382,863.935608 1396.796875,865.051819 
	C1406.078613,868.990356 1413.967773,874.603271 1417.954468,884.313293 
	C1418.485962,885.607788 1417.751221,887.422119 1416.789673,888.998535 
M1657.031982,729.349365 
	C1655.682617,727.171509 1654.391479,724.955017 1652.974121,722.822327 
	C1644.108276,709.482483 1635.218506,696.107422 1622.966675,685.550476 
	C1611.576782,675.736328 1599.412964,666.984375 1583.132935,670.150330 
	C1576.958618,671.351074 1571.076050,674.153076 1565.158447,676.474976 
	C1564.178467,676.859497 1563.325317,678.446350 1563.057251,679.624023 
	C1561.273438,687.461365 1560.378418,695.582275 1557.799072,703.134399 
	C1555.204346,710.731384 1552.837036,719.090942 1545.065918,722.103210 
	C1545.065918,734.400879 1545.192749,746.150208 1545.023193,757.895264 
	C1544.901855,766.304565 1544.372681,774.707703 1544.050903,783.114624 
	C1543.982910,784.888794 1544.675049,787.093201 1543.857544,788.337646 
	C1542.796753,789.952271 1540.326660,792.053040 1538.895630,791.768616 
	C1532.587158,790.514648 1532.385620,795.332336 1531.006104,798.934265 
	C1525.873291,812.336060 1526.993164,826.550293 1526.198975,840.440613 
	C1525.660400,849.859924 1527.007935,859.387024 1527.538208,869.361145 
	C1537.890015,865.828796 1547.005127,860.472656 1558.128662,864.481018 
	C1553.573486,855.689758 1549.108521,847.864685 1545.414429,839.691284 
	C1542.491455,833.223999 1540.088257,826.339233 1543.460083,819.163879 
	C1543.896484,818.234863 1545.367798,817.001099 1546.062866,817.165283 
	C1547.174438,817.427856 1548.390869,818.562134 1548.946045,819.644409 
	C1551.869141,825.342041 1554.207031,831.372803 1557.476562,836.853149 
	C1564.476685,848.585693 1571.983276,860.014709 1579.170044,871.637512 
	C1586.019165,882.714172 1592.341187,894.139709 1599.640137,904.906738 
	C1603.954712,911.271362 1609.582520,916.779236 1614.858398,922.450439 
	C1621.857910,929.974426 1628.214233,938.495911 1636.416016,944.414490 
	C1650.831177,954.816833 1666.616211,963.271545 1683.857056,968.345581 
	C1694.698120,971.536133 1705.638062,972.888000 1717.128418,971.184937 
	C1737.374023,968.184204 1754.696655,959.228516 1770.502441,946.904602 
	C1780.534790,939.082336 1790.183105,930.762207 1799.879517,922.519287 
	C1801.501099,921.140869 1803.666992,918.943176 1803.561890,917.249573 
	C1803.141968,910.484436 1801.540771,903.794861 1801.082642,897.029480 
	C1800.146851,883.213928 1799.455200,869.373047 1799.089600,855.531311 
	C1798.907227,848.630737 1799.669678,841.705566 1799.996704,834.791138 
	C1800.148560,831.581848 1800.281250,828.371643 1800.433838,824.904846 
	C1798.279175,825.741638 1796.938965,826.245728 1795.610962,826.780457 
	C1779.574097,833.237854 1763.427490,839.440002 1747.547974,846.263977 
	C1738.844604,850.004028 1729.490845,852.993958 1723.360840,861.101318 
	C1721.688354,863.313293 1719.985718,865.560974 1717.973755,867.447693 
	C1709.918091,875.001831 1702.289795,883.177063 1693.435669,889.665405 
	C1685.384766,895.565186 1676.145508,899.991272 1667.056030,904.272705 
	C1661.191162,907.035278 1655.626221,905.233337 1652.831299,901.270142 
	C1650.858521,898.472595 1652.040527,892.515198 1655.213623,888.262939 
	C1662.469604,878.538940 1671.962036,871.613403 1682.473389,865.818237 
	C1687.678589,862.948547 1692.590332,859.546936 1697.501221,856.469727 
	C1688.491455,855.976135 1679.587280,855.386780 1670.673950,855.025330 
	C1659.173462,854.558960 1648.386719,851.372620 1638.387695,845.957214 
	C1623.236694,837.751526 1620.805786,821.751099 1631.428711,809.246521 
	C1644.110962,794.318054 1660.268311,784.232788 1679.041870,778.474670 
	C1680.948242,777.889954 1682.937012,777.573608 1685.918945,776.899658 
	C1676.133545,760.762817 1666.796143,745.364624 1657.031982,729.349365 
M1392.707520,571.806580 
	C1392.471680,573.388000 1392.045898,574.967773 1392.032104,576.551147 
	C1391.962402,584.551514 1391.510376,592.594238 1392.182861,600.538330 
	C1392.588745,605.335022 1394.088867,610.363281 1396.377075,614.595581 
	C1399.347900,620.090393 1400.985474,626.646667 1407.850098,629.701782 
	C1410.843628,631.033997 1412.562622,635.042175 1415.120361,637.572266 
	C1429.027832,651.328430 1445.914185,650.343201 1460.416382,641.718872 
	C1467.099976,637.744141 1473.049194,631.993286 1478.143799,626.032776 
	C1483.741089,619.484131 1488.890747,612.206848 1492.593628,604.462036 
	C1498.969360,591.126404 1503.440552,577.101318 1505.215210,562.165894 
	C1506.597290,550.534363 1507.795532,539.088806 1506.149170,527.398865 
	C1505.721924,524.364868 1507.047974,521.085388 1507.553101,517.916199 
	C1507.596680,517.642151 1507.521118,517.348999 1507.484497,516.831909 
	C1506.471680,516.342041 1505.354858,515.801880 1504.499878,515.388428 
	C1504.697876,519.460083 1504.894409,523.503235 1505.091064,527.546387 
	C1502.748169,525.350281 1501.001221,523.103271 1500.291992,520.566162 
	C1498.869751,515.478271 1495.008667,514.185242 1490.703735,514.063599 
	C1462.353394,513.262329 1434.129883,514.232910 1406.395874,521.008911 
	C1401.822876,522.126221 1394.608887,532.113770 1394.599609,536.179565 
	C1394.585327,542.458374 1393.820801,548.733948 1393.419434,555.013794 
	C1393.078369,560.350159 1392.801025,565.690735 1392.707520,571.806580 
M1734.276611,469.032654 
	C1727.826294,467.676880 1721.348389,466.438934 1714.931641,464.939484 
	C1703.455078,462.257599 1692.633545,464.753967 1682.280640,469.390625 
	C1669.094849,475.296021 1658.507690,484.643829 1649.593262,495.918243 
	C1644.728271,502.071198 1642.061890,509.464142 1642.279419,516.955872 
	C1642.592285,527.737915 1645.454224,538.299805 1651.039062,547.718628 
	C1657.349121,558.360962 1663.238892,569.437134 1670.916870,579.041260 
	C1683.000732,594.156433 1697.095459,596.831970 1713.308960,589.003723 
	C1728.361450,581.735901 1736.518066,568.427002 1740.970703,552.754639 
	C1745.226440,537.775269 1746.673828,522.387634 1746.988647,506.874329 
	C1747.076172,502.557098 1746.438721,498.135620 1747.164062,493.940063 
	C1748.553589,485.903717 1750.753052,478.010437 1752.479980,470.028320 
	C1753.764038,464.093658 1755.758545,458.142212 1753.701416,452.487305 
	C1742.727051,453.684540 1732.316650,454.820221 1721.906128,455.955933 
	C1721.882324,456.500244 1721.858521,457.044556 1721.834717,457.588867 
	C1732.020630,460.257324 1741.708374,463.747681 1748.654419,473.988434 
	C1746.844727,473.988434 1745.514648,474.340637 1744.501587,473.923309 
	C1741.260498,472.588226 1738.136841,470.967957 1734.276611,469.032654 
M1396.980957,447.520142 
	C1393.437378,450.059845 1389.965576,452.707764 1386.337524,455.120300 
	C1371.442871,465.024902 1366.592285,481.341736 1360.367554,496.592438 
	C1359.194092,499.467438 1359.902100,501.711639 1355.929443,500.172974 
	C1355.633789,500.058472 1354.249023,501.603546 1354.071533,502.513855 
	C1352.201782,512.098999 1351.973511,521.541077 1356.880859,530.479492 
	C1361.353027,538.625488 1365.734009,546.821777 1370.230225,555.134705 
	C1376.309448,547.352783 1380.604370,535.204407 1379.187012,529.975708 
	C1375.605591,531.376160 1372.073608,532.886719 1368.442505,534.101318 
	C1367.294556,534.485352 1365.881836,534.078186 1364.590332,534.033081 
	C1365.231323,532.722351 1365.523926,530.896973 1366.572021,530.187744 
	C1371.761230,526.676392 1377.246948,523.602661 1382.430054,520.082947 
	C1385.275757,518.150513 1387.729858,515.641541 1389.915039,513.773438 
	C1389.914062,513.762573 1390.048218,515.178040 1390.282959,517.653931 
	C1393.133667,515.400696 1395.748657,513.770081 1397.819580,511.616211 
	C1404.530396,504.636475 1411.475098,498.063202 1420.458740,493.978363 
	C1433.883667,487.873932 1447.920654,485.249115 1462.627319,485.994110 
	C1477.106201,486.727600 1489.946167,490.660461 1498.888672,503.245453 
	C1501.327148,506.677216 1504.828613,509.353760 1507.842163,512.376892 
	C1508.304321,512.043396 1508.766602,511.709900 1509.228760,511.376404 
	C1509.587646,507.994232 1509.568726,504.518677 1510.377197,501.247620 
	C1512.682007,491.921906 1515.764893,482.768921 1517.671631,473.371490 
	C1518.864380,467.493134 1519.178711,460.742645 1513.787720,456.508636 
	C1507.324341,451.432404 1500.519287,446.501404 1493.183960,442.882355 
	C1474.824829,433.824432 1455.641479,429.506042 1434.910278,433.848358 
	C1421.776489,436.599335 1409.260376,440.540192 1396.980957,447.520142 
M1709.205444,401.030579 
	C1695.377686,397.633881 1681.385498,395.932007 1667.343140,399.078064 
	C1642.703979,404.598206 1622.706055,416.855011 1610.149536,440.043610 
	C1618.154175,438.650024 1625.733276,437.110870 1633.378662,436.051697 
	C1644.491455,434.512207 1655.655518,433.344391 1666.791870,431.971405 
	C1680.021362,430.340332 1693.215210,428.347382 1706.479492,427.094147 
	C1718.253296,425.981812 1730.105103,425.710266 1741.915039,424.952972 
	C1743.678345,424.839905 1745.401367,424.098877 1747.669312,423.512177 
	C1737.286621,411.203735 1723.798828,406.002838 1709.205444,401.030579 
M1674.521484,842.000000 
	C1690.872437,841.535095 1707.223267,841.070251 1724.978760,840.565430 
	C1713.571167,822.493774 1703.045776,805.819641 1692.068481,788.429688 
	C1688.713867,789.249878 1685.082153,789.910828 1681.596924,791.028687 
	C1665.622070,796.152954 1652.152710,804.780090 1641.857056,818.389099 
	C1635.548584,826.727905 1639.901978,833.393799 1646.488281,835.582397 
	C1655.263794,838.498352 1664.532227,839.930542 1674.521484,842.000000 
M1851.998291,849.825073 
	C1851.658936,847.919983 1851.425293,845.988892 1850.963623,844.114014 
	C1847.483398,829.985352 1839.373291,820.394714 1824.640137,817.242371 
	C1818.630493,815.956604 1811.788818,820.445435 1811.046875,826.538086 
	C1810.512939,830.923035 1810.010010,835.355652 1810.065186,839.759827 
	C1810.197510,850.332581 1810.421509,860.916138 1811.065552,871.467407 
	C1811.787231,883.290955 1813.012329,895.083801 1814.041748,907.164124 
	C1815.086182,906.818848 1815.662720,906.807251 1815.931152,906.513794 
	C1826.588867,894.862488 1837.459229,883.390442 1847.689087,871.373413 
	C1850.367676,868.226807 1854.309326,864.861816 1853.049438,859.445129 
	C1852.390869,856.613586 1852.330444,853.642761 1851.998291,849.825073 
M1356.609863,880.000000 
	C1347.638306,880.847595 1340.075928,884.706482 1333.105469,890.308777 
	C1320.401978,900.518555 1319.385864,916.078430 1331.040405,927.255310 
	C1334.851685,930.910583 1340.046387,933.845276 1345.122925,935.250610 
	C1349.904419,936.574219 1354.830200,939.332092 1360.530396,933.630432 
	C1368.538208,925.620728 1372.429565,916.968201 1373.104736,906.002197 
	C1373.676025,896.719482 1370.246094,888.508850 1367.483521,880.082764 
	C1367.030273,878.700134 1365.353149,877.718750 1364.241577,876.551941 
	C1363.972534,876.826477 1363.703369,877.101013 1363.434326,877.375549 
	C1363.566528,878.182190 1363.698730,878.988770 1363.864380,880.000000 
	C1361.509155,880.000000 1359.513794,880.000000 1356.609863,880.000000 
M1545.993530,901.490295 
	C1546.323730,902.038757 1546.744263,902.552551 1546.970215,903.141052 
	C1549.775391,910.448425 1553.155396,917.390686 1559.174683,922.689148 
	C1564.546021,927.417358 1568.426147,926.739563 1569.909912,920.092773 
	C1572.779175,907.241272 1570.399658,895.011169 1563.357788,883.905212 
	C1557.763550,875.082092 1553.212402,873.543152 1545.235352,875.822510 
	C1541.704956,876.831299 1541.201050,878.673218 1540.906494,881.800232 
	C1540.249878,888.768250 1543.002563,894.782837 1545.993530,901.490295 
M1347.003662,795.573425 
	C1348.214600,798.849182 1350.277954,802.074585 1350.474731,805.410095 
	C1351.036865,814.939636 1356.598877,822.526978 1359.765747,830.994385 
	C1362.734741,838.932068 1367.333984,846.259949 1371.215820,853.856201 
	C1372.415771,851.069519 1373.188477,848.427246 1372.878174,845.919006 
	C1371.786621,837.099365 1370.475464,828.299561 1368.964722,819.541016 
	C1366.670166,806.238586 1363.630005,793.098145 1356.922852,781.216003 
	C1354.910278,777.650574 1353.509644,773.097900 1348.645264,772.006409 
	C1345.156006,779.476807 1345.590088,787.078613 1347.003662,795.573425 
M1744.634277,437.000000 
	C1706.019165,439.229919 1667.546997,442.740570 1629.412720,449.289948 
	C1672.884399,449.566681 1716.606323,452.479889 1758.537476,437.000000 
	C1754.223389,437.000000 1749.909180,437.000000 1744.634277,437.000000 
M1822.000000,730.398132 
	C1822.026855,710.350647 1819.181885,690.638489 1815.656250,670.162109 
	C1807.207642,683.363953 1808.368042,741.208130 1819.653687,751.692993 
	C1820.492554,744.425049 1821.246338,737.895081 1822.000000,730.398132 
M1842.884644,810.680664 
	C1843.985107,812.126343 1845.080322,813.575989 1846.187012,815.016968 
	C1849.798218,819.718689 1854.325806,823.985657 1856.804199,829.222717 
	C1860.159790,836.313477 1861.944702,844.147461 1864.437866,851.768311 
	C1868.328491,845.249695 1871.263428,838.027527 1872.015869,829.948914 
	C1872.855225,820.936035 1868.434937,812.029358 1856.938354,809.630493 
	C1852.648071,808.735229 1847.930786,809.886414 1842.884644,810.680664 
M1731.541138,812.031006 
	C1726.654297,801.763977 1719.186768,794.248169 1707.720825,789.642273 
	C1713.141357,798.390137 1718.214355,806.296631 1722.996582,814.375305 
	C1727.685913,822.297058 1732.079102,830.394043 1736.602173,838.414246 
	C1737.045776,838.170715 1737.489380,837.927246 1737.932983,837.683716 
	C1738.515503,828.763977 1735.513184,820.659668 1731.541138,812.031006 
M1487.658813,505.805786 
	C1481.597900,499.013855 1473.076172,498.593201 1465.111816,498.232971 
	C1456.851807,497.859406 1448.387451,498.702209 1440.239380,500.226379 
	C1433.994385,501.394562 1428.102417,504.449280 1422.053345,506.664948 
	C1422.173706,507.098358 1422.294067,507.531799 1422.414429,507.965210 
	C1423.980225,507.965210 1425.575073,508.159424 1427.106812,507.931061 
	C1433.176392,507.026245 1439.204102,505.340820 1445.287720,505.135101 
	C1458.243408,504.697113 1471.224243,504.983002 1484.194336,505.043610 
	C1485.091797,505.047821 1485.986328,505.641998 1487.658813,505.805786 
M1389.000000,897.030518 
	C1389.455933,901.525574 1389.911743,906.020569 1390.372681,910.565491 
	C1396.699707,900.206360 1395.790405,892.548279 1389.000000,886.075989 
	C1389.000000,890.231018 1389.000000,893.197144 1389.000000,897.030518 
M1548.865601,691.413269 
	C1542.137695,696.120789 1540.474854,700.963318 1543.652832,709.778076 
	C1545.432373,703.910400 1547.211792,698.042725 1548.865601,691.413269 
M1679.947388,1227.569458 
	C1681.922485,1226.702393 1683.897583,1225.835449 1685.872681,1224.968384 
	C1685.697388,1224.541992 1685.522095,1224.115601 1685.346802,1223.689331 
	C1680.689941,1224.835693 1676.033081,1225.982056 1671.376221,1227.128540 
	C1671.460571,1227.656006 1671.545044,1228.183472 1671.629395,1228.710938 
	C1674.167358,1228.463745 1676.705200,1228.216553 1679.947388,1227.569458 
M1398.622681,877.385071 
	C1398.449951,876.942871 1398.277100,876.500671 1398.104370,876.058472 
	C1398.016479,876.439514 1397.928589,876.820496 1398.622681,877.385071 
z"/>
<path fill="#FFFFFF" opacity="1.000000" stroke="none" 
	d="
M1325.011475,1009.403564 
	C1325.537720,1007.664917 1326.053833,1006.363037 1326.569946,1005.061157 
	C1326.965454,1004.947021 1327.361084,1004.832825 1327.756714,1004.718689 
	C1329.497803,1010.188782 1331.622559,1015.569885 1332.915405,1021.143982 
	C1339.386719,1049.047119 1346.026245,1076.921265 1351.798828,1104.971924 
	C1354.479126,1117.996460 1355.727173,1131.363403 1356.888306,1144.639526 
	C1358.064941,1158.091309 1358.515991,1171.617432 1358.882568,1185.122070 
	C1358.984985,1188.894287 1357.896240,1192.765869 1356.921753,1196.478516 
	C1356.168823,1199.347046 1354.224365,1201.256226 1350.830200,1201.016113 
	C1347.068359,1200.749634 1348.138672,1197.942139 1348.011475,1195.809692 
	C1347.639282,1189.570679 1347.465820,1183.317261 1346.973999,1177.088379 
	C1345.723999,1161.257446 1344.871338,1145.369873 1342.879761,1129.629150 
	C1340.440430,1110.349609 1337.054932,1091.188110 1333.982422,1071.990967 
	C1331.397705,1055.841064 1328.588379,1039.726807 1326.069824,1023.566956 
	C1325.365234,1019.045715 1325.338867,1014.418762 1325.011475,1009.403564 
z"/>
</svg>