<svg version="1.1" id="Layer_1" xmlns="http://www.w3.org/2000/svg" xmlns:xlink="http://www.w3.org/1999/xlink" x="0px" y="0px"
	 width="100%" viewBox="12.1 379.1 997.2 888.1" enable-background="new 0 0 2360 1640" xml:space="preserve">
<path fill="#FFFFFF" opacity="1.000000" stroke="none" 
	d="
M695.783447,459.452698 
	C697.025818,465.043396 698.124146,470.246918 699.121094,475.469818 
	C699.818909,479.125397 700.494141,482.792236 700.978760,486.480438 
	C702.836304,500.618011 701.797791,514.678406 700.081665,528.768860 
	C698.991516,537.719482 698.643738,546.761780 698.007080,555.766113 
	C697.450989,563.632202 701.106201,569.974426 706.063843,575.433533 
	C718.642334,589.284241 726.362122,605.432678 729.972961,623.665405 
	C730.161011,624.615051 729.997192,625.634521 729.997192,628.053894 
	C744.939087,618.214600 759.918396,610.567139 777.367004,607.878174 
	C773.349548,602.798340 769.525879,598.227112 765.992676,593.441589 
	C758.322876,583.053528 755.417236,571.058899 755.058350,558.415100 
	C754.769836,548.253357 754.470764,538.043518 755.111145,527.914062 
	C756.409485,507.374847 758.298706,486.804230 768.045288,468.121368 
	C778.948120,447.222229 794.230835,430.749176 817.587891,423.963531 
	C839.571655,417.576874 860.169922,420.491974 878.612671,435.047241 
	C897.259644,449.763672 906.013855,469.890350 911.044006,492.304993 
	C916.320557,515.817566 917.143494,539.708557 915.705688,563.508850 
	C914.637268,581.193665 910.872314,598.715576 908.193604,617.098328 
	C911.713806,618.133545 916.528503,619.734436 921.437073,620.959717 
	C938.898376,625.318359 954.505127,633.119324 968.352966,644.735962 
	C982.541321,656.638184 989.659424,672.698853 995.995117,689.349915 
	C996.280273,690.099304 996.583801,690.842529 996.902588,691.578247 
	C999.281982,697.070557 997.901917,699.600891 991.978882,701.015442 
	C976.814148,704.637146 961.588684,708.041443 946.537598,712.090698 
	C933.798645,715.517822 921.415344,720.270691 912.768066,730.901672 
	C906.458252,738.659058 900.925293,747.061401 895.236450,755.307617 
	C885.990173,768.710266 877.027527,782.309448 867.710022,795.661560 
	C857.074890,810.901733 846.313477,826.058105 835.344299,841.058838 
	C830.164001,848.143005 824.468506,854.861145 818.811951,861.581421 
	C816.239441,864.637756 816.645874,867.040039 818.601685,870.335327 
	C821.254761,874.805359 823.054138,879.784668 825.186340,884.560425 
	C827.061340,888.760071 825.732971,892.315369 822.323303,894.846863 
	C818.180969,897.922302 814.075012,895.172302 812.165100,892.285339 
	C808.989685,887.485474 805.626648,881.773376 805.375610,876.306213 
	C804.947632,866.985657 802.600098,866.616394 795.517395,864.194031 
	C789.021423,861.972229 782.036560,860.781921 775.172180,860.117676 
	C760.884521,858.735046 746.542114,857.843689 732.203552,857.119141 
	C728.942444,856.954224 725.515991,858.000488 722.320496,858.989441 
	C713.510071,861.716003 711.823303,869.564209 710.042603,877.084778 
	C707.093628,889.539734 708.045959,902.050049 709.976196,914.552795 
	C711.253967,922.829285 705.723267,929.324646 697.096436,928.871887 
	C690.338196,928.517212 683.463013,927.660950 676.953857,925.879822 
	C664.778809,922.548340 661.631348,918.111206 660.743774,905.620361 
	C645.687317,907.293091 631.742004,904.299866 620.104370,894.346313 
	C615.349121,890.279053 612.546875,884.315002 612.031311,877.811890 
	C609.910278,851.056580 618.779968,827.821472 634.671936,806.724976 
	C640.977295,798.354675 646.769531,789.586731 652.571594,780.851135 
	C660.498474,768.916687 668.868164,757.207703 675.849854,744.731445 
	C684.530457,729.219299 692.050293,713.053528 699.954651,697.112122 
	C706.227417,684.461182 712.282349,671.702515 718.531616,659.039795 
	C719.931946,656.202393 721.026428,653.755859 717.887268,651.242615 
	C716.915344,650.464478 716.077026,648.597900 716.298279,647.444580 
	C716.744934,645.116638 719.349548,642.582642 716.136536,640.780151 
	C712.601685,638.797302 708.578979,636.119934 704.890564,636.295959 
	C696.878357,636.678406 688.660522,637.799561 681.044739,640.237122 
	C670.120911,643.733521 659.418762,648.174377 649.075806,653.154663 
	C640.594788,657.238342 634.898376,664.899109 629.916382,672.655273 
	C621.835999,685.234985 614.114014,698.056519 606.597900,710.983582 
	C600.147522,722.077637 594.368652,733.560913 587.978027,744.691284 
	C581.349365,756.236328 574.363770,767.577087 567.495605,778.983887 
	C558.869995,793.309448 550.196533,807.606140 541.564575,821.927795 
	C539.921997,824.653015 538.376099,827.436523 536.566772,830.572205 
	C539.907532,831.105774 543.085083,830.896973 545.477661,832.166992 
	C548.886475,833.976440 552.850952,836.275513 554.520325,839.448242 
	C556.756897,843.698792 554.745850,848.654785 551.357422,851.978394 
	C545.754700,857.474304 532.844299,859.713013 525.611816,857.244080 
	C519.262756,855.076721 517.921021,849.991943 516.807312,844.025208 
	C510.576935,844.689453 504.210846,844.894043 498.047455,846.118835 
	C482.721893,849.164246 467.433502,852.443909 452.238220,856.080994 
	C442.350952,858.447571 432.456970,860.989990 426.497559,870.796509 
	C424.395996,874.254639 420.998352,877.100647 417.738190,879.643677 
	C410.304077,885.442688 411.303864,892.639160 420.179718,899.888184 
	C430.384033,908.222107 443.328918,910.908203 455.730774,913.770081 
	C468.795074,916.784790 482.230408,918.430359 495.592651,919.815308 
	C502.371185,920.517883 509.502319,920.137085 516.200562,918.837097 
	C532.626343,915.649109 548.907837,911.705688 565.217651,907.937805 
	C572.565430,906.240417 579.771729,903.773682 587.192566,902.640259 
	C589.563904,902.278015 593.016785,904.526001 594.909668,906.567261 
	C597.627014,909.497681 595.455627,912.706665 593.293091,915.132080 
	C585.467773,923.908569 575.483887,929.867188 564.903442,934.338074 
	C555.222961,938.428528 544.972961,941.396606 534.734558,943.867615 
	C527.036865,945.725403 518.983276,946.509460 511.046600,946.877991 
	C500.429169,947.370972 489.750641,946.595398 479.138855,947.145691 
	C472.340271,947.498169 464.602417,947.314880 460.109924,953.684814 
	C457.247986,957.742859 454.984009,962.766052 454.191559,967.639404 
	C451.686554,983.044617 450.162201,998.606079 447.951569,1014.063232 
	C445.840576,1028.823608 443.615021,1043.578003 440.955750,1058.247314 
	C436.866669,1080.804199 432.621368,1103.339478 427.950928,1125.781738 
	C424.512512,1142.304077 419.743256,1158.559814 416.617401,1175.132568 
	C414.714447,1185.221802 414.724152,1195.681763 414.053528,1205.986938 
	C413.862152,1208.928101 415.512939,1210.059204 418.651184,1210.099854 
	C424.036377,1210.169678 429.516449,1210.361938 434.763824,1211.440674 
	C439.570801,1212.429077 442.486053,1216.256592 442.900391,1221.163574 
	C443.250458,1225.309204 437.781677,1230.712036 433.067078,1232.029785 
	C423.323242,1234.753540 415.202911,1232.453003 408.980164,1224.401733 
	C406.164856,1220.759155 402.254578,1221.668945 398.927185,1222.127563 
	C384.152771,1224.164062 369.472839,1226.889771 354.694519,1228.892090 
	C346.092560,1230.057617 337.379639,1230.558228 328.698242,1230.949097 
	C313.100342,1231.651489 297.491852,1232.242554 281.881500,1232.501343 
	C270.958984,1232.682617 260.026550,1232.153198 249.097672,1232.085938 
	C233.264755,1231.988647 217.429718,1231.886841 201.598083,1232.041870 
	C188.336700,1232.171753 175.057358,1232.305176 161.825119,1233.093872 
	C146.131241,1234.029175 130.398590,1235.072388 114.833221,1237.179932 
	C100.942650,1239.060669 87.182388,1242.129395 73.500610,1245.266968 
	C57.998051,1248.822021 42.652199,1253.058594 27.219709,1256.924805 
	C25.989445,1257.232910 24.615017,1256.965576 22.120216,1256.965576 
	C23.323380,1255.406128 23.775747,1254.265503 24.599277,1253.835327 
	C37.449051,1247.122925 51.049191,1242.458374 65.099785,1238.965942 
	C75.214912,1236.451660 85.179886,1233.293579 95.351234,1231.056396 
	C104.968178,1228.940918 114.733101,1227.406006 124.494522,1226.063232 
	C136.119354,1224.464233 147.809402,1223.338623 159.472839,1222.022583 
	C160.131516,1221.947998 160.804932,1222.000366 161.471497,1222.000366 
	C174.439590,1221.999756 187.408218,1222.072632 200.375595,1221.976318 
	C210.264481,1221.902832 220.151428,1221.593140 230.039902,1221.428955 
	C240.195572,1221.260376 250.353485,1220.966187 260.507782,1221.049438 
	C270.596954,1221.132080 280.689606,1221.999878 290.768494,1221.823853 
	C302.589386,1221.617676 314.397675,1220.666748 326.210327,1220.018677 
	C331.963226,1219.703003 337.738892,1219.573364 343.459595,1218.949707 
	C353.973999,1217.803467 364.456055,1216.359375 374.950287,1215.029175 
	C382.853424,1214.027588 390.753387,1213.001221 398.657074,1212.003906 
	C401.688019,1211.621338 402.425323,1210.755249 402.338898,1207.025391 
	C402.119476,1197.555542 402.489868,1187.896484 404.181702,1178.596558 
	C407.176483,1162.134277 411.446472,1145.907959 414.962250,1129.535522 
	C419.091125,1110.308228 423.378204,1091.101196 426.859711,1071.752808 
	C429.789764,1055.469116 431.609039,1038.987305 434.020874,1022.608215 
	C436.620636,1004.952820 439.040985,987.262390 442.133575,969.691772 
	C443.595428,961.386047 445.254700,952.903198 451.272797,946.172058 
	C457.290863,939.440857 465.131165,936.755737 473.690308,936.098145 
	C480.138367,935.602661 486.670532,936.289490 493.138214,935.943909 
	C511.671967,934.953552 530.430237,935.296509 548.239624,928.931335 
	C555.465576,926.348694 562.384888,922.908081 569.443787,919.857910 
	C569.238586,919.342346 569.033325,918.826782 568.828064,918.311279 
	C558.214172,921.051697 547.667480,924.101135 536.963867,926.429138 
	C529.211670,928.115173 521.278259,929.104553 513.375732,929.921448 
	C506.497101,930.632507 499.467499,931.493164 492.648010,930.824707 
	C479.263672,929.512756 465.897980,927.613098 452.682404,925.119995 
	C444.237701,923.526917 436.016388,920.618408 427.801361,917.969604 
	C415.364075,913.959229 404.684143,907.848877 401.335327,893.793945 
	C401.193390,893.198242 400.798859,892.662598 401.028595,893.130310 
	C394.699432,893.438171 388.658478,894.901062 383.185852,893.723206 
	C375.064545,891.975342 371.150909,886.609863 369.910889,878.557007 
	C367.904541,865.527100 372.385834,853.599792 376.263824,841.821899 
	C380.708832,828.321899 386.369110,815.145203 392.462158,802.283142 
	C400.936890,784.393555 409.532349,766.476135 419.501251,749.402710 
	C430.046661,731.341736 442.506012,714.409485 453.665222,696.691833 
	C461.185364,684.752075 468.607849,672.652588 474.817993,660.007690 
	C485.436005,638.387390 499.171295,620.790588 524.185730,615.372925 
	C528.125061,614.519653 532.110413,613.872986 536.034790,612.959961 
	C537.715576,612.568970 539.294617,611.740540 540.542603,611.257019 
	C536.876404,597.658691 533.020142,584.631287 529.921387,571.426086 
	C527.746033,562.156067 526.510071,552.658325 525.043335,543.232910 
	C524.440369,539.357666 524.184204,535.411377 524.024475,531.487061 
	C523.078491,508.249237 527.432678,485.893066 535.390869,464.150391 
	C541.477112,447.522003 548.054504,431.076965 559.414490,417.227692 
	C569.353577,405.110779 581.897888,396.427887 597.388428,393.103638 
	C616.119568,389.083984 634.659729,390.066101 652.081726,398.694489 
	C663.819824,404.507904 672.598572,413.869293 679.986572,424.604218 
	C687.262512,435.176331 691.457825,447.102570 695.783447,459.452698 
M914.367065,679.997498 
	C900.375061,683.084900 886.331299,685.958130 872.406006,689.321472 
	C859.132751,692.527283 845.755371,693.212280 832.424561,690.854004 
	C821.134949,688.856812 810.473511,684.439880 803.028503,675.312012 
	C795.795349,666.443726 789.747070,656.619812 782.798584,647.505005 
	C777.628113,640.722473 772.359192,633.865295 766.195007,628.034058 
	C760.572144,622.714783 752.663635,623.527344 748.255493,627.465210 
	C743.283936,631.906372 739.523560,637.676941 734.767639,642.397156 
	C732.394470,644.752563 732.074280,650.556580 727.342773,648.347656 
	C727.869690,651.186096 728.945679,654.181885 728.809753,657.121643 
	C728.697571,659.546448 727.288940,661.968872 726.218201,664.282715 
	C716.713745,684.821716 707.773071,705.653625 697.423584,725.759644 
	C688.840698,742.433655 678.837830,758.403259 668.976990,774.384399 
	C661.654785,786.251282 653.552124,797.636658 645.809937,809.217407 
	C651.636536,810.242065 657.145325,810.744202 662.360718,812.257507 
	C667.714844,813.810974 673.169922,815.719177 677.886536,818.606384 
	C685.448303,823.235229 692.413269,828.833740 699.676819,833.956726 
	C705.724792,838.222412 708.656677,845.266113 706.263611,852.164673 
	C703.920776,858.918579 701.254395,865.651611 697.878357,871.936279 
	C691.325989,884.134094 683.933777,895.791382 671.037292,902.523010 
	C670.270142,902.923523 669.292114,903.558044 669.080566,904.279602 
	C667.856812,908.453918 671.193787,915.855652 675.242371,916.887817 
	C681.928345,918.592407 688.761475,919.743958 695.561401,920.968323 
	C699.426697,921.664307 701.591858,920.411072 701.055847,915.891235 
	C700.476074,911.002197 699.906494,906.045166 700.092224,901.146545 
	C700.439758,891.979004 700.843811,882.763489 702.112854,873.692200 
	C704.282532,858.183228 715.475891,848.610718 731.145813,849.112244 
	C746.080200,849.590271 760.972778,851.301331 775.906555,851.898193 
	C787.073303,852.344482 797.559814,854.808899 807.673828,859.703735 
	C813.472229,852.621277 819.664734,845.679077 825.158203,838.221863 
	C837.619446,821.305969 849.927612,804.269836 861.942444,787.034668 
	C875.213501,767.997375 887.942810,748.582581 901.197693,729.533691 
	C907.458618,720.535950 916.309692,714.124451 926.077515,709.602783 
	C942.654785,701.928955 960.488342,698.241821 978.373718,694.912659 
	C981.014221,694.421204 984.047302,693.404053 985.799683,691.576233 
	C987.309998,690.000854 982.609680,681.766418 980.153870,681.004395 
	C968.510376,677.391296 957.088379,672.601624 944.393982,674.969604 
	C934.701477,676.777466 924.957458,678.309387 914.367065,679.997498 
M562.424500,661.954163 
	C565.496338,664.637573 568.208984,668.003845 571.720642,669.851196 
	C577.616333,672.952637 583.369202,669.905090 588.807739,667.578369 
	C596.873901,664.127441 604.849304,660.448914 612.753845,656.640076 
	C622.151672,652.111511 631.465393,647.404846 640.756958,642.660522 
	C650.598999,637.635254 659.981628,631.414124 670.268616,627.626709 
	C685.091553,622.169434 700.597595,620.115906 716.115417,625.942261 
	C716.616394,626.130371 717.316650,625.787598 718.186890,625.651062 
	C717.733948,623.982849 717.388672,622.602478 716.984619,621.239624 
	C713.052734,607.977173 707.532837,595.614441 697.905151,585.313538 
	C689.061890,575.851990 684.736267,564.600220 686.006348,551.492371 
	C686.636353,544.990906 687.491577,538.507263 687.957764,531.994934 
	C688.476013,524.755615 688.960754,517.491516 688.927917,510.240662 
	C688.885315,500.831543 689.440613,491.215271 687.732910,482.062378 
	C684.551147,465.008759 679.775879,448.319641 670.129395,433.440643 
	C663.452942,423.142731 655.640015,414.344238 644.409302,408.729462 
	C632.980469,403.015594 620.875610,402.465332 608.594849,403.068970 
	C599.828064,403.499878 591.505676,406.031342 583.941528,410.562927 
	C568.708679,419.688690 559.895020,434.283813 553.287415,449.824005 
	C545.509338,468.117035 539.242126,486.988007 536.697205,507.048798 
	C535.170776,519.081360 534.419800,531.038574 536.255249,542.799255 
	C538.634155,558.041931 542.416565,573.091736 546.171997,588.079956 
	C547.588318,593.732300 550.594543,598.990173 552.918884,604.409546 
	C554.232971,607.473450 556.624695,610.447388 556.790100,613.554504 
	C557.136841,620.063843 556.296448,626.632935 556.008301,633.180420 
	C555.572876,643.077393 557.307007,652.532959 562.424500,661.954163 
M894.999939,529.798218 
	C895.325684,544.462158 894.809692,559.051880 892.032471,573.523438 
	C888.236328,593.304260 881.165588,611.361755 866.054138,625.470520 
	C852.435425,638.185608 834.010193,642.542786 816.937378,633.204285 
	C808.363098,628.514282 800.808044,621.964783 792.763184,616.297180 
	C791.844482,615.649963 790.669312,614.727661 789.731140,614.848633 
	C782.464661,615.786377 775.227234,616.949463 767.597473,618.100647 
	C772.605713,622.380066 777.708008,625.545410 781.209229,629.976013 
	C788.908447,639.718872 795.648560,650.212585 803.064941,660.188049 
	C809.289368,668.560242 816.635132,675.511047 826.906494,679.110474 
	C841.287292,684.149902 855.816406,682.482117 869.997192,679.746216 
	C890.498657,675.790894 910.624084,669.920044 931.067261,665.613708 
	C939.928528,663.747070 949.260437,662.908813 958.209351,665.752563 
	C964.897949,667.877808 971.366394,670.695801 978.000427,673.231140 
	C969.806152,655.542786 955.192688,644.604614 937.947266,637.210144 
	C926.776184,632.420288 915.139893,628.440735 902.634766,627.880615 
	C896.229553,627.593689 893.752258,623.202087 895.608215,616.841980 
	C901.327759,597.241394 904.305237,577.098572 904.723633,556.831604 
	C905.072205,539.948364 903.630554,522.948120 901.832825,506.122406 
	C899.865051,487.704590 893.389526,470.785370 883.164429,455.034485 
	C869.748047,434.367615 840.511292,425.017578 818.466431,432.849304 
	C794.158386,441.485107 780.474304,459.762756 772.071045,482.809601 
	C765.344666,501.257294 765.208801,520.847595 764.271118,540.106812 
	C763.760193,550.601624 765.435364,561.325256 767.186829,571.767578 
	C768.493347,579.557556 771.844055,586.883484 777.942688,593.511475 
	C776.850037,586.692078 775.973572,580.809937 774.954895,574.952576 
	C772.959045,563.475952 773.549377,552.086121 775.669434,540.685364 
	C777.980469,528.257935 782.504700,516.646729 788.165100,505.424469 
	C795.118286,491.639252 804.439697,480.095398 819.611023,475.039490 
	C825.967102,472.921326 833.078735,470.543518 839.388550,471.455322 
	C847.205078,472.584839 854.940186,476.289246 862.004456,480.167450 
	C874.211670,486.868988 884.050171,496.456543 889.613525,509.442413 
	C892.234985,515.561523 893.253357,522.367371 894.999939,529.798218 
M568.631897,681.126221 
	C561.993591,679.504944 556.954529,675.696716 553.416138,669.895691 
	C546.938354,659.275330 544.738464,647.485352 543.968079,635.294922 
	C543.881104,633.919373 543.353210,632.571777 542.788269,630.195129 
	C540.287231,634.137451 538.592529,637.045532 536.671997,639.795837 
	C527.237793,653.306641 519.711975,667.863708 514.395325,683.391296 
	C509.679199,697.165161 506.194366,711.355957 501.932251,725.291138 
	C495.470764,746.417175 488.597290,767.365845 479.424469,787.564453 
	C475.966400,795.179138 474.770203,803.895447 473.096100,812.220825 
	C471.882629,818.255310 471.590881,824.474304 470.866577,830.608459 
	C470.541382,833.362488 470.163452,836.110352 469.775787,839.122498 
	C475.669128,838.023682 480.564087,836.982361 485.501831,836.217834 
	C495.110840,834.729919 504.775970,833.579773 514.349365,831.899719 
	C517.657410,831.319153 521.749756,830.450195 523.747253,828.183044 
	C527.509155,823.913208 530.045959,818.553833 533.028137,813.608887 
	C542.155151,798.474670 551.392090,783.404419 560.325256,768.156372 
	C571.770996,748.619507 583.005493,728.958130 594.244690,709.301086 
	C599.334534,700.399109 604.136902,691.332764 609.223938,682.429199 
	C612.092224,677.408997 615.274231,672.568054 618.894165,666.708862 
	C612.692017,669.356812 607.703430,671.145386 603.031982,673.549988 
	C592.392334,679.026855 581.589294,683.501465 568.631897,681.126221 
M816.692017,486.027618 
	C815.246399,487.068115 813.731995,488.026001 812.366760,489.162994 
	C805.432434,494.937866 800.770935,502.238312 796.807190,510.350098 
	C790.167908,523.937317 785.319580,538.001526 784.116455,553.034546 
	C783.002563,566.952698 783.898743,580.866333 790.090759,593.734375 
	C793.775085,601.391113 796.022827,610.176147 803.214966,615.552551 
	C809.113342,619.961792 815.349304,624.155151 821.977966,627.301697 
	C834.958069,633.463257 852.795410,629.473633 861.579651,618.787537 
	C868.333008,610.572021 873.837158,601.694031 877.426147,591.404663 
	C884.963440,569.796265 886.812500,547.746765 883.773743,525.327759 
	C882.925903,519.072937 880.279907,512.562805 876.765991,507.300079 
	C872.762207,501.303589 867.247375,496.125702 861.715271,491.377289 
	C847.833740,479.462311 832.949158,477.130035 816.692017,486.027618 
M415.963989,780.396973 
	C411.836884,788.390991 407.709808,796.385010 403.134125,805.247864 
	C405.023560,804.471680 405.684875,804.314209 406.219116,803.963440 
	C414.945648,798.232971 423.727875,796.832458 432.277618,804.097595 
	C434.429565,805.926208 435.808228,805.352783 438.119049,804.536621 
	C443.663330,802.578247 449.469025,799.979736 455.208984,804.081360 
	C457.168121,805.481262 458.857727,807.258423 460.747192,808.931091 
	C461.259277,808.147095 461.752899,807.657532 461.936279,807.070984 
	C464.988403,797.309937 467.158386,787.171936 471.195221,777.840454 
	C480.184753,757.060486 486.637695,735.513611 493.170105,713.907471 
	C498.719025,695.554138 504.925476,677.300964 512.396179,659.662109 
	C517.350037,647.965820 525.046387,637.431030 531.726624,626.014832 
	C519.003174,625.923584 508.137054,631.395264 500.487579,640.590393 
	C492.993866,649.598206 487.916992,660.650635 482.030426,670.949097 
	C478.286774,677.498474 475.524780,684.653992 471.398682,690.930298 
	C463.254791,703.318115 453.883057,714.921448 446.091827,727.512939 
	C435.544067,744.559204 426.005157,762.229736 415.963989,780.396973 
M682.027100,863.999573 
	C683.985229,866.165161 685.943359,868.330688 688.149292,870.770264 
	C690.401367,866.109985 692.750793,861.382629 694.981079,856.599670 
	C697.808044,850.537170 698.345337,845.015991 692.536377,839.916138 
	C678.431580,827.533386 662.377319,819.768738 643.582336,818.010620 
	C640.673645,817.738464 638.252563,818.057190 636.825256,821.392029 
	C633.056091,830.198303 628.167786,838.609863 625.251770,847.669922 
	C622.959045,854.793335 623.084656,862.671997 621.872375,870.172607 
	C620.687134,877.505859 624.293518,885.713257 630.341980,890.089661 
	C638.279541,895.833069 647.468201,896.269836 656.626099,896.955078 
	C659.756714,897.189331 661.152832,895.653687 661.098022,892.218323 
	C661.027893,887.824402 661.238831,883.335083 662.081726,879.034485 
	C664.582825,866.273254 669.555603,860.465088 682.027100,863.999573 
M425.634216,851.892151 
	C429.740265,844.212769 430.348267,835.960632 429.837952,826.510864 
	C424.853668,830.829529 420.736328,835.023560 415.992584,838.314636 
	C411.995972,841.087341 407.429077,844.060059 402.824127,844.640808 
	C398.392334,845.199768 393.587982,842.804810 388.424957,841.584229 
	C386.552246,847.823669 384.062927,855.250793 382.160095,862.825378 
	C381.216980,866.579651 380.760193,870.670288 381.180359,874.487976 
	C381.542938,877.782715 381.307037,881.895264 386.350342,883.154236 
	C392.211578,884.617371 399.169128,881.524170 402.659943,876.002075 
	C406.187988,870.421204 410.161438,865.025208 414.603455,860.153320 
	C417.473602,857.005249 421.537537,854.945496 425.634216,851.892151 
M454.033051,831.213928 
	C452.647217,826.321960 451.590820,821.293884 449.661499,816.626648 
	C449.128448,815.337158 445.908356,814.382874 444.078888,814.600525 
	C441.771515,814.875061 440.163208,816.359924 440.852264,819.680847 
	C441.769379,824.101135 442.036530,828.745239 441.891663,833.270996 
	C441.756714,837.486816 440.716583,841.673584 440.002502,846.347107 
	C446.163727,844.704285 451.646515,843.242371 457.250671,841.748108 
	C456.200348,838.080200 455.324310,835.021057 454.033051,831.213928 
M406.027405,818.690735 
	C404.137726,822.522095 402.120392,826.299438 400.457733,830.226929 
	C400.090729,831.093872 400.755463,832.648987 401.397461,833.572876 
	C401.669647,833.964661 403.415710,833.909180 403.970764,833.440186 
	C411.319427,827.230530 418.575287,820.910889 425.853943,814.619080 
	C421.959778,809.982239 418.667206,808.564453 414.512512,811.926697 
	C411.881592,814.055725 409.120331,816.023682 406.027405,818.690735 
M671.911194,874.578430 
	C670.703735,880.498474 669.496338,886.418518 668.288879,892.338501 
	C668.934937,892.678223 669.580994,893.017944 670.227112,893.357605 
	C674.483337,888.406494 678.662048,883.385803 683.024048,878.529724 
	C685.767883,875.475098 684.249573,873.251099 681.802734,871.389709 
	C677.367859,868.015808 674.921387,868.701050 671.911194,874.578430 
M536.254883,846.000000 
	C537.442078,845.749390 538.629272,845.498718 539.816467,845.248108 
	C539.781555,844.778320 539.746582,844.308533 539.711670,843.838745 
	C536.529358,843.838745 533.347046,843.838745 530.164734,843.838745 
	C530.126343,844.322510 530.087952,844.806335 530.049622,845.290100 
	C531.837585,845.526733 533.625610,845.763367 536.254883,846.000000 
z"/>
<path fill="#FFFFFF" opacity="1.000000" stroke="none" 
	d="
M786.908325,952.000000 
	C764.376343,951.227844 743.201782,946.662231 723.434875,936.669739 
	C719.164917,934.511230 715.396118,931.220337 711.761719,928.034363 
	C710.724182,927.124878 710.971008,924.750244 710.628906,923.047485 
	C712.572632,923.029297 715.142700,922.192200 716.360291,923.123413 
	C725.443604,930.069946 735.614624,934.890137 746.483154,937.837646 
	C755.476196,940.276550 764.785583,941.934875 774.062073,942.840271 
	C784.568848,943.865906 795.240723,944.452637 805.760437,943.843323 
	C830.910217,942.386719 855.569885,938.069275 877.562805,924.857239 
	C884.328735,920.792664 890.023682,914.853882 895.893066,909.431396 
	C898.405640,907.110168 901.333130,905.724304 903.709473,907.594849 
	C906.138794,909.507202 905.321350,912.469788 903.324585,915.371338 
	C897.472046,923.875793 889.104187,929.214783 880.368408,933.804565 
	C863.885071,942.464783 846.312317,948.004211 827.707214,950.017578 
	C819.304993,950.926819 810.941345,952.319214 802.519470,952.874512 
	C797.515442,953.204468 792.432068,952.331909 786.908325,952.000000 
z"/>
<path fill="#FFFFFF" opacity="1.000000" stroke="none" 
	d="
M646.743958,917.750366 
	C648.936829,916.008728 650.681335,914.072571 652.854370,913.182556 
	C654.727844,912.415222 657.603271,912.052185 659.060425,913.003845 
	C660.091064,913.676941 659.766296,916.876709 659.516968,918.882751 
	C659.375793,920.017822 658.230042,921.072327 657.425232,922.073425 
	C651.672363,929.228821 653.742737,933.028381 660.714172,936.529053 
	C667.122253,939.746765 674.795959,941.100403 682.056396,941.821106 
	C695.146423,943.120422 708.371155,943.012817 721.487854,944.111572 
	C730.493774,944.865906 739.429382,946.564819 748.354858,948.085144 
	C750.119812,948.385742 751.695496,949.797241 753.919495,950.999878 
	C734.524597,950.999878 716.178711,951.473938 697.872620,950.825684 
	C686.534485,950.424133 675.065613,949.173340 664.012695,946.704468 
	C655.235046,944.743774 646.778503,940.609863 645.018738,929.464294 
	C632.312622,937.385803 622.098816,947.959778 608.184021,952.743469 
	C619.358521,939.312073 632.605103,928.313354 646.743958,917.750366 
z"/>
<path fill="#FFFFFF" opacity="1.000000" stroke="none" 
	d="
M655.066162,573.993042 
	C643.126709,584.604126 629.251160,589.027893 613.912354,587.867126 
	C598.204224,586.678345 586.364136,578.019470 577.313354,565.633972 
	C567.689331,552.464050 559.831909,538.284668 555.777344,522.320312 
	C552.489319,509.374084 549.364868,496.372253 551.659668,482.822021 
	C551.757812,482.242706 551.759827,481.529266 551.509399,481.026215 
	C546.948181,471.864410 550.263245,463.059875 554.489441,455.460907 
	C563.700806,438.898376 578.060181,428.427826 596.654785,423.643158 
	C613.368103,419.342590 627.741333,424.297760 640.615234,434.296539 
	C654.252014,444.887878 663.048279,458.915436 668.303101,475.500183 
	C673.052979,490.491608 677.624512,505.398529 675.947937,521.325623 
	C674.016968,539.669617 670.245972,557.421936 657.002563,571.555298 
	C656.358459,572.242615 655.951477,573.152222 655.066162,573.993042 
M640.951233,467.439789 
	C630.570007,461.080505 619.054016,458.180664 607.133362,457.075531 
	C591.061157,455.585510 577.013794,461.227570 565.205505,471.663239 
	C560.811523,475.546509 558.084534,481.632812 558.127808,487.914215 
	C558.159912,492.575592 559.175720,497.261963 560.053040,501.880249 
	C563.844727,521.841064 571.113159,540.346741 582.965271,557.001953 
	C592.590393,570.527710 604.327820,579.554321 622.099121,578.064331 
	C637.156921,576.801880 648.691895,569.947266 655.882446,556.845520 
	C661.415466,546.763977 663.255005,535.443298 665.206909,524.101257 
	C669.014160,501.978119 660.079041,479.208191 640.951233,467.439789 
M588.606384,437.930145 
	C572.823242,447.504517 570.465393,449.506836 568.402893,455.621033 
	C594.355591,441.241089 619.686584,445.950256 645.362671,456.046112 
	C641.255310,451.191681 637.041626,446.450500 632.066345,442.726654 
	C621.961914,435.163788 611.025452,430.151825 597.936951,434.937805 
	C595.089722,435.978943 592.071289,436.551727 588.606384,437.930145 
z"/>
</svg>