<svg version="1.1" id="Layer_1" xmlns="http://www.w3.org/2000/svg" xmlns:xlink="http://www.w3.org/1999/xlink" x="0px" y="0px"
	 width="100%" viewBox="0 0 2427 909" enable-background="new 0 0 2427 909" xml:space="preserve">
<path fill="none" opacity="1.000000" stroke="#000000" stroke-linecap="round" stroke-linejoin="round" stroke-width="8.000000"
	d="
M1966.500000,495.500000 
	C1974.296143,494.923187 1981.909180,494.087585 1987.554810,487.547302 
	C1990.255493,484.418488 1994.582764,485.516144 1998.018066,485.191833 
	C2012.470947,483.827454 2026.916748,482.044830 2041.501099,482.462921 
	C2051.533691,482.750549 2061.394531,485.247772 2071.507568,484.621765 
	C2072.618164,484.553009 2073.747559,486.336517 2075.012939,486.974579 
	C2093.733643,496.415863 2099.294678,514.553955 2104.948730,532.516113 
	C2109.018799,545.446045 2111.808594,558.720215 2114.491455,572.001709 
	C2117.167725,585.250671 2118.950684,598.648071 2121.129395,611.978882 
	C2124.059082,629.906982 2125.793213,648.072693 2131.427246,665.523499 
	C2135.402588,677.836487 2142.260010,688.298401 2151.062256,697.440002 
	C2166.673828,713.653503 2182.426514,729.748718 2198.608643,745.387634 
	C2205.908936,752.442871 2213.546387,759.149780 2219.949463,767.041077 
	C2224.885498,773.124390 2224.952148,779.256165 2219.916992,785.432373 
	C2215.641602,790.676941 2210.523438,795.213318 2204.486572,798.475037 
	C2200.528320,800.613770 2196.692139,799.720459 2192.981201,796.521729 
	C2183.236084,788.121216 2175.846680,777.609131 2167.629883,767.890137 
	C2154.483887,752.340271 2139.444824,738.966248 2123.483398,726.521179 
	C2110.167725,716.138916 2097.596436,705.065491 2091.076904,688.968811 
	C2086.348877,677.295410 2081.993652,665.444702 2078.071045,653.476746 
	C2070.023926,628.924866 2058.640381,606.052979 2044.485596,584.509460 
	C2041.312622,579.680115 2038.920898,574.373108 2035.093750,569.919434 
	C2033.822632,568.440308 2032.424316,567.242310 2031.000000,566.000000 
"/>
<path fill="none" opacity="1.000000" stroke="#000000" stroke-linecap="round" stroke-linejoin="round" stroke-width="6.000000"
	d="
M827.500000,440.000000 
	C826.002258,438.936859 824.383362,438.401001 822.499207,438.481720 
	C813.475830,438.868256 804.476685,438.285736 795.502136,437.476562 
	C769.760559,435.155518 745.991943,428.160553 725.869812,410.649628 
	C714.043823,400.358246 700.755066,391.823120 686.506226,384.987061 
	C677.579590,380.704407 673.821350,383.747620 672.493530,392.999084 
	C670.554688,406.508026 670.602051,420.292725 666.534729,433.510681 
	C662.866455,445.431946 657.570740,456.682068 652.411316,467.959412 
	C645.963440,482.053223 637.623047,494.871643 626.113892,505.621918 
	C620.224365,511.123016 619.750488,518.237122 623.562317,525.969299 
	C628.277100,535.533020 635.447510,543.580017 640.610596,552.939026 
	C646.742493,564.054199 650.944580,575.829163 653.909302,588.022034 
	C657.940186,604.600159 661.199646,621.364258 665.049744,637.988464 
	C667.390930,648.097412 669.245605,658.283447 671.013123,668.497742 
	C675.171570,692.528992 679.277649,716.565308 683.841614,740.530151 
	C687.463318,759.546753 690.407349,778.726501 692.374451,798.012817 
	C692.510254,799.344360 694.294373,802.390076 690.500000,802.500000 
"/>
<path fill="none" opacity="1.000000" stroke="#000000" stroke-linecap="round" stroke-linejoin="round" stroke-width="9.000000"
	d="
M1224.000000,372.500000 
	C1222.666626,376.333313 1221.402344,380.192444 1219.984375,383.994202 
	C1217.645508,390.264984 1213.610718,392.801819 1206.500854,393.026611 
	C1197.240356,393.319336 1188.444092,390.618500 1179.514893,388.921783 
	C1166.882324,386.521423 1154.274902,384.134674 1141.518066,382.369415 
	C1124.728760,380.046143 1107.890869,378.553864 1090.995850,377.571808 
	C1088.025269,377.399109 1084.932495,377.877899 1082.014160,378.560455 
	C1076.030640,379.959808 1072.996460,384.085327 1073.088989,391.498901 
	C1073.178223,398.670654 1073.688721,405.871307 1074.557251,412.993011 
	C1077.395020,436.262268 1076.549805,459.288452 1070.472900,481.992767 
	C1066.874756,495.435974 1069.603149,506.717133 1079.914307,516.589539 
	C1094.382935,530.442200 1109.122437,544.054993 1122.023560,559.480225 
	C1145.796387,587.904114 1163.750244,619.671875 1177.569824,653.971863 
	C1187.471069,678.546204 1196.482788,703.418945 1205.156250,728.445862 
	C1209.210205,740.143127 1213.573853,751.748535 1217.481934,763.505981 
	C1219.527344,769.659302 1218.265381,776.285461 1220.003418,782.499023 
	C1220.145142,783.005981 1220.333252,783.500000 1220.500000,784.000000 
"/>
<path fill="none" opacity="1.000000" stroke="#000000" stroke-linecap="round" stroke-linejoin="round" stroke-width="7.000000"
	d="
M679.500000,839.500000 
	C678.487244,842.396729 677.882385,845.425354 676.023926,848.017151 
	C671.789185,853.922729 671.103577,860.191345 675.036194,866.477356 
	C678.893188,872.642578 685.340637,873.170715 691.482422,872.365845 
	C703.422241,870.801147 714.970764,867.378479 725.977722,862.450256 
	C733.604858,859.035278 741.351074,855.776001 748.022400,850.528503 
	C750.096558,848.896973 752.149780,847.275269 753.481567,844.989258 
	C757.530640,838.039124 754.587769,833.229797 749.957947,830.573242 
	C743.997009,827.152771 737.599182,825.365723 730.486145,826.405212 
	C725.893188,827.076538 721.160889,827.067688 716.501160,826.952271 
	C706.078003,826.694031 696.212952,828.322998 687.501404,834.502014 
	C680.901428,839.183228 673.603760,839.365051 665.994629,838.030579 
	C662.089905,837.345764 660.303650,834.759460 658.393677,831.563538 
	C654.188843,824.527466 652.596008,816.595459 650.721497,808.945740 
	C647.697815,796.606934 643.808655,784.571594 639.952576,772.515198 
	C634.645081,755.920776 629.581909,739.280457 627.013733,721.997986 
	C625.603760,712.509338 624.218811,703.014282 623.029907,693.496277 
	C621.646362,682.418640 617.654663,672.193787 612.407471,662.550354 
	C605.002563,648.941284 598.032043,635.200256 592.929565,620.524475 
	C590.509949,613.565308 586.110229,607.565186 579.919250,603.626892 
	C573.112061,599.296692 567.270081,599.480835 560.560791,605.567017 
	C552.502136,612.877258 547.190796,622.323608 541.416931,631.447449 
	C528.284119,652.199951 516.112122,673.613037 499.557587,692.051697 
	C488.324463,704.563354 475.130798,714.780823 461.908264,724.879883 
	C444.531281,738.152222 426.791321,750.977661 408.502045,763.003113 
	C400.875000,768.017944 393.112305,772.782715 385.021240,777.040344 
	C374.531616,782.560059 371.108276,781.305664 365.941040,770.528259 
	C359.892090,757.911987 359.821930,746.046387 368.429504,734.447693 
	C371.623260,730.144104 374.899841,725.923157 378.538177,722.035706 
	C394.591278,704.883545 411.668976,688.767395 429.570709,673.583374 
	C441.330078,663.609070 452.843719,653.455688 461.944855,640.959839 
	C471.546173,627.777283 479.018250,613.708923 481.181610,597.023560 
	C482.737122,585.026672 484.309326,573.109131 484.001068,561.000000 
	C483.992584,560.666870 483.907562,560.300171 484.013397,560.004822 
	C487.281372,550.884399 485.001709,541.234253 486.614136,532.019958 
	C488.756653,519.776794 491.937775,507.823914 497.360107,496.433411 
	C502.196594,486.273590 507.750793,476.361816 510.958374,465.487732 
	C513.004578,458.550842 513.439758,451.217773 516.462341,444.483093 
	C527.258545,420.428070 530.973022,394.462952 536.433472,368.985748 
	C538.100525,361.207520 534.579895,358.440369 527.004456,361.013184 
	C520.815796,363.115051 514.628845,365.232513 508.510742,367.528625 
	C502.504517,369.782684 496.457977,371.322327 490.000000,370.000000 
"/>
<path fill="none" opacity="1.000000" stroke="#000000" stroke-linecap="round" stroke-linejoin="round" stroke-width="9.000000"
	d="
M1205.000000,803.000000 
	C1206.256714,807.291382 1204.816650,811.669800 1205.467896,816.004822 
	C1206.705933,824.245850 1212.521362,829.030151 1220.497925,827.984253 
	C1230.921997,826.617493 1240.433228,822.612427 1249.489014,817.480530 
	C1261.458008,810.697693 1272.562500,802.728638 1279.387085,790.437317 
	C1283.751099,782.577515 1282.723633,775.106628 1271.984741,772.053528 
	C1267.295166,770.720215 1262.352051,770.091309 1257.507812,770.578186 
	C1247.951904,771.538513 1239.151245,774.833008 1230.953613,779.925232 
	C1228.203735,781.633362 1225.495850,783.819336 1221.998901,783.976013 
	C1220.886475,784.025818 1220.574097,784.667725 1219.933716,785.445374 
	C1215.729126,790.551392 1211.368408,795.531189 1206.973633,800.476562 
	C1205.970947,801.604736 1205.222290,802.744812 1202.996826,802.711609 
	C1200.176514,802.669495 1197.246094,803.948181 1194.515259,805.038330 
	C1183.438965,809.459961 1175.865723,805.630920 1170.885620,796.059509 
	C1166.002563,786.674805 1164.000366,776.500732 1161.614868,766.472656 
	C1156.416992,744.623230 1151.375244,722.768738 1144.085083,701.470886 
	C1139.468994,687.985046 1134.437744,674.728394 1128.021240,661.989319 
	C1118.151733,642.395020 1102.533813,629.256226 1082.497070,621.007141 
	C1072.680664,616.965820 1062.814453,613.045471 1053.012207,608.970764 
	C1050.265869,607.829102 1047.637451,606.388123 1045.005737,604.989197 
	C1038.552490,601.558594 1036.642334,602.308105 1032.954102,608.974609 
	C1029.900513,614.493958 1028.694336,620.629700 1027.151245,626.539490 
	C1021.955933,646.436890 1012.897705,664.706116 1003.865784,682.933472 
	C996.354614,698.091675 987.978760,712.849670 979.417480,727.451599 
	C969.684631,744.051819 957.778931,759.094971 945.072876,773.563965 
	C933.994873,786.178833 922.556702,798.469604 912.259827,811.814697 
	C907.084045,818.522827 908.558777,824.892151 909.644592,831.476135 
	C911.158142,840.653687 916.875305,847.997314 921.994812,855.503540 
	C924.026245,858.482056 926.205444,861.386047 927.948303,864.528687 
	C930.152649,868.503662 931.073730,872.628967 928.578186,877.044189 
	C927.600342,878.774109 927.499939,881.000000 926.999939,883.000000 
"/>
<path fill="none" opacity="1.000000" stroke="#000000" stroke-linecap="round" stroke-linejoin="round" stroke-width="8.000000"
	d="
M1803.500000,417.500000 
	C1792.260254,432.287262 1785.478516,449.487366 1777.595337,466.045380 
	C1767.371826,487.518707 1758.526489,509.595154 1750.458862,531.985168 
	C1743.502930,551.289978 1737.531006,570.900452 1731.476685,590.492798 
	C1725.080566,611.191528 1718.798096,631.933289 1711.911621,652.470337 
	C1705.722290,670.928406 1698.826050,689.149048 1691.019653,707.008606 
	C1686.742676,716.793701 1682.431641,726.575378 1678.567383,736.526184 
	C1674.839355,746.126038 1668.229980,750.468445 1657.998169,749.519714 
	C1652.706909,749.028992 1647.258545,749.295410 1642.567749,751.635742 
	C1635.899048,754.962830 1633.502686,761.643555 1632.590820,768.512024 
	C1631.117920,779.605957 1630.654053,790.786133 1630.338501,801.995422 
	C1630.071045,811.488525 1629.060059,820.971619 1628.933838,830.499146 
	C1628.884277,834.234985 1629.476318,837.623657 1631.500000,840.750000 
"/>
<path fill="none" opacity="1.000000" stroke="#000000" stroke-linecap="round" stroke-linejoin="round" stroke-width="8.000000"
	d="
M1798.000000,331.500000 
	C1800.616943,330.367493 1802.897461,328.830963 1805.964111,328.294556 
	C1811.253418,327.369324 1814.962891,321.252930 1814.972778,314.999969 
	C1814.980103,310.283051 1814.706787,306.083405 1820.932983,304.269745 
	C1824.968994,303.093994 1824.752808,299.425995 1822.066040,295.455292 
	C1819.209473,291.233368 1815.281616,289.399536 1810.508301,288.457642 
	C1803.081055,286.992004 1797.493530,290.933411 1797.089355,298.504761 
	C1796.993164,300.307190 1796.737915,302.037079 1795.940186,303.466614 
	C1792.582031,309.484131 1792.280029,315.932709 1793.078369,322.490448 
	C1793.333374,324.583984 1793.724487,326.910889 1795.506592,328.492523 
	C1797.662476,330.406036 1797.793091,332.488068 1796.523193,335.011688 
	C1787.990723,351.968628 1782.744385,370.175140 1776.510620,388.003723 
	C1768.793701,410.073761 1760.527710,431.925690 1751.553223,453.522125 
	C1743.632446,472.583130 1736.155396,491.828857 1728.503296,511.001312 
	C1721.654175,528.161682 1714.743652,545.298340 1708.024780,562.509705 
	C1701.079956,580.299500 1694.318970,598.161194 1687.503540,616.001343 
	C1678.655518,639.162415 1669.859985,662.343506 1660.991211,685.496643 
	C1654.536499,702.347290 1648.020020,719.174438 1641.485474,735.994385 
	C1639.916748,740.032349 1638.261230,744.043213 1636.459106,747.981323 
	C1635.588745,749.883545 1635.531738,751.463501 1637.000000,753.000000 
"/>
<path fill="none" opacity="1.000000" stroke="#000000" stroke-linecap="round" stroke-linejoin="round" stroke-width="7.000000"
	d="
M1830.000000,426.500000 
	C1829.545532,429.298950 1831.502197,431.438812 1832.056641,433.987671 
	C1834.524902,445.333374 1831.062866,455.954254 1827.920410,466.476227 
	C1818.354736,498.505371 1806.870361,529.901123 1796.168457,561.556946 
	C1783.004272,600.496582 1767.860229,638.621643 1752.016602,676.506958 
	C1741.448730,701.776917 1731.045288,727.135315 1718.337646,751.415039 
	C1714.732300,758.303772 1712.286865,766.465820 1704.500000,770.500000 
"/>
<path fill="none" opacity="1.000000" stroke="#000000" stroke-linecap="round" stroke-linejoin="round" stroke-width="8.000000"
	d="
M1962.000000,399.500000 
	C1966.339233,405.130005 1966.943848,411.800293 1966.956421,418.500092 
	C1966.987305,435.004517 1966.919312,451.513397 1965.976807,467.998688 
	C1965.642822,473.842102 1967.775391,479.901733 1964.518555,485.510742 
	C1964.373779,485.760040 1964.433472,486.182800 1964.509888,486.497620 
	C1966.563721,494.963104 1963.330566,502.884918 1961.996338,510.999390 
	C1960.680542,519.002258 1959.353638,527.003479 1957.994873,534.999084 
	C1956.181763,545.669189 1954.684326,556.409058 1952.403687,566.979248 
	C1950.006348,578.090454 1949.053467,589.412659 1946.684448,600.539246 
	C1944.773926,609.512085 1944.200928,618.813049 1943.578369,628.005310 
	C1942.857788,638.647583 1942.035400,649.306824 1942.494751,660.000244 
	C1943.163086,675.558289 1944.686646,691.029785 1946.292603,706.521484 
	C1947.572266,718.865234 1949.670410,731.100525 1950.621460,743.490662 
	C1951.341553,752.871094 1953.654541,762.131104 1954.337769,771.511841 
	C1954.838135,778.381836 1955.835571,785.174255 1956.610229,791.987488 
	C1957.884766,803.198181 1958.589111,814.498352 1961.419189,825.520752 
	C1962.837891,831.046448 1966.967407,834.756714 1969.500000,839.500000 
"/>
<path fill="none" opacity="1.000000" stroke="#000000" stroke-linecap="round" stroke-linejoin="round" stroke-width="7.000000"
	d="
M694.500000,235.500000 
	C699.741272,231.341843 699.048950,225.398056 698.365723,220.017044 
	C696.834045,207.952866 688.661804,201.412415 678.021912,196.947800 
	C655.335327,187.428284 625.224243,199.259842 615.642029,222.558411 
	C612.001160,231.410889 611.224548,240.917191 613.902405,250.527191 
	C615.168579,255.070801 612.650146,259.510864 611.870911,263.977478 
	C610.914795,269.458130 609.024475,274.766022 607.052429,280.019684 
	C604.817322,285.973969 600.510864,288.192383 594.499878,288.004211 
	C579.602234,287.537872 565.280457,290.862091 552.092346,297.192352 
	C531.961304,306.855225 511.473022,315.636597 491.030121,324.568909 
	C475.063965,331.545166 461.552887,341.833862 454.106689,358.048981 
	C444.119385,379.797760 434.352234,401.661224 429.871399,425.475800 
	C428.188354,434.420624 427.346924,443.714203 422.976959,451.987823 
	C420.503296,456.671234 420.948608,461.638458 421.578003,466.489868 
	C422.617249,474.500275 423.474152,482.665375 428.521332,489.484192 
	C429.710541,491.090881 430.914124,492.935272 432.562775,493.891785 
	C434.708466,495.136627 437.968994,495.436737 439.341736,493.393646 
	C441.686035,489.904572 443.833099,486.031158 443.750000,481.500000 
"/>
<path fill="none" opacity="1.000000" stroke="#000000" stroke-linecap="round" stroke-linejoin="round" stroke-width="10.000000"
	d="
M871.000000,420.000000 
	C874.491943,410.678894 881.006958,403.659973 888.525696,397.531494 
	C899.734253,388.395477 912.193298,381.463501 925.987915,376.962952 
	C929.279236,375.889160 932.651978,375.589813 936.000366,375.572083 
	C941.734985,375.541656 945.373901,379.048340 945.397644,385.500366 
	C945.444946,398.330719 945.571594,411.161896 945.169739,424.005310 
	C944.837036,434.640839 943.186829,445.334869 945.397827,456.021149 
	C946.059204,459.217651 945.495300,462.666656 945.500732,466.000000 
	C945.526855,481.943268 947.626343,497.700653 949.399719,513.511230 
	C951.838562,535.253723 953.655518,557.066101 952.042786,579.003174 
	C951.725403,583.320251 951.779785,587.668335 951.589539,592.003906 
	C950.906555,607.569519 949.706421,623.045837 947.679016,638.523438 
	C945.555603,654.733154 942.308411,670.585754 936.956970,685.985046 
	C931.625061,701.328003 924.048828,715.659180 916.535767,730.018677 
	C908.588440,745.208008 900.330200,760.244202 893.475098,775.989136 
	C889.542786,785.020996 888.582031,794.086426 891.911316,803.531250 
	C892.406311,804.935547 892.871948,806.293152 894.028809,806.949219 
	C898.783386,809.645752 902.719299,813.678040 908.000000,815.500000 
"/>
<path fill="none" opacity="1.000000" stroke="#000000" stroke-linecap="round" stroke-linejoin="round" stroke-width="6.000000"
	d="
M1243.000000,403.000000 
	C1246.950928,403.273254 1250.360474,405.242767 1254.009888,406.470764 
	C1256.765869,407.398132 1259.888306,407.929565 1261.910400,405.427612 
	C1264.027222,402.808350 1262.209595,400.062439 1260.450439,398.043213 
	C1252.054810,388.406494 1243.033325,379.462036 1231.517090,373.467072 
	C1230.851807,373.120728 1230.424194,372.543640 1229.504150,372.456146 
	C1221.916748,371.734680 1215.469971,367.238556 1208.008545,365.950378 
	C1200.635986,364.677521 1193.357788,362.865723 1185.995239,361.525940 
	C1166.342529,357.949677 1146.586914,354.888519 1127.026123,350.872650 
	C1112.327515,347.854950 1098.207031,342.542419 1084.560791,336.365692 
	C1073.718750,331.458252 1062.205322,329.017151 1050.962280,325.625092 
	C1042.157593,322.968689 1038.472534,313.777313 1043.983032,306.487183 
	C1047.772827,301.473541 1052.633301,297.428131 1056.087158,292.056061 
	C1061.650757,283.402679 1063.614746,273.946228 1062.911377,264.006287 
	C1061.792969,248.204620 1056.293823,233.653900 1046.832886,221.126205 
	C1039.027954,210.791077 1029.506836,201.785767 1015.495850,200.546585 
	C998.000122,198.999222 977.937561,208.443573 971.591125,230.526199 
	C968.205139,242.308014 967.286865,254.390823 970.484558,266.504059 
	C972.088867,272.581543 975.137207,278.014435 978.051147,283.472687 
	C982.909485,292.572723 984.030151,301.520264 977.951172,310.466797 
	C977.379944,311.307404 977.211243,312.084717 976.934814,312.979858 
	C975.938232,316.206635 973.837463,316.926025 970.474426,316.104706 
	C966.584351,315.154724 962.496704,314.571533 958.500793,314.602051 
	C952.732788,314.646118 947.095215,315.931244 941.483093,317.436920 
	C928.256531,320.985565 917.141724,328.263367 907.063599,337.072754 
	C892.665405,349.658447 879.248291,363.219788 866.804565,377.833618 
	C860.980957,384.672791 854.930786,391.275818 849.295166,398.336517 
	C841.376526,408.257477 836.441650,419.470337 832.093994,431.035339 
	C827.953491,442.049652 822.496277,452.405029 817.564392,463.029877 
	C813.953857,470.808105 808.832642,477.830353 806.726257,486.432983 
	C806.088196,489.039093 806.871277,491.181274 806.500000,493.500000 
"/>
<path fill="none" opacity="1.000000" stroke="#000000" stroke-linecap="round" stroke-linejoin="round" stroke-width="8.000000"
	d="
M2030.749878,551.500000 
	C2030.833252,555.166687 2030.953613,558.833008 2030.986084,562.500122 
	C2031.005371,564.685852 2030.092041,566.345825 2028.572510,568.064087 
	C2024.067627,573.158081 2022.835693,579.931152 2020.657104,586.055908 
	C2012.515381,608.944885 2003.894043,631.678650 1996.987183,654.996216 
	C1992.972778,668.549011 1990.221069,682.341309 1991.111450,696.492981 
	C1991.884033,708.772461 1993.927002,720.974792 1996.610229,732.975342 
	C1999.572144,746.222168 2001.628174,759.579224 2003.577759,772.988708 
	C2004.911499,782.163147 2004.735718,791.346130 2004.386108,800.495667 
	C2003.951904,811.855896 1999.557251,821.787048 1991.527466,830.026794 
	C1989.554443,832.051575 1986.751953,833.305847 1985.900391,836.473206 
	C1985.577271,837.674500 1983.938721,837.917664 1982.505371,838.056213 
	C1979.155029,838.380066 1975.832764,838.996338 1972.500366,839.502319 
	C1971.498169,839.654358 1970.240112,839.501587 1969.539551,840.050415 
	C1960.981689,846.755737 1949.988037,847.189392 1940.466553,851.424744 
	C1933.828125,854.377502 1927.225342,857.333313 1922.561157,863.049866 
	C1917.963745,868.684326 1919.967407,876.491699 1927.532959,877.810974 
	C1943.811035,880.649475 1960.228149,880.433411 1976.501343,877.006348 
	C1980.659058,876.130737 1986.614502,876.725342 1988.598633,874.186340 
	C1991.892822,869.971252 1996.376099,867.183044 1999.517700,863.013306 
	C2000.929932,861.138855 2002.032471,859.136230 2003.032959,857.015564 
	C2006.400757,849.876648 2004.005859,844.432190 1996.514404,841.956482 
	C1992.815674,840.734192 1988.511719,841.134399 1985.500000,838.000000 
"/>
<path fill="none" opacity="1.000000" stroke="#000000" stroke-linecap="round" stroke-linejoin="round" stroke-width="7.000000"
	d="
M653.500000,296.500000 
	C653.176270,303.134399 655.966797,307.722656 662.507935,309.470367 
	C674.088989,312.564636 681.940186,320.649689 688.928162,329.556366 
	C699.526672,343.064850 710.939758,355.834930 722.477234,368.520691 
	C729.723877,376.488495 737.092773,384.222260 746.990784,389.018982 
	C754.599365,392.706146 762.958557,393.611053 771.027466,395.374298 
	C792.127380,399.985260 813.248291,404.459351 833.995300,410.516083 
	C835.863953,411.061615 837.666687,411.833344 839.500000,412.500000 
"/>
<path fill="none" opacity="1.000000" stroke="#000000" stroke-linecap="round" stroke-linejoin="round" stroke-width="8.000000"
	d="
M2041.500000,286.000000 
	C2040.820190,283.495605 2038.903198,281.711060 2036.947144,280.592438 
	C2026.968994,274.886383 2025.184326,265.513641 2026.152222,255.514725 
	C2027.126465,245.447708 2029.909546,235.552094 2030.819946,225.483704 
	C2031.563965,217.255829 2031.705811,208.641754 2025.007080,201.992859 
	C2022.636353,199.639725 2019.965210,198.306030 2016.498169,198.457306 
	C2012.774048,198.619751 2009.380493,196.990143 2006.555298,194.924377 
	C1995.089600,186.540756 1982.432251,186.054916 1969.546021,189.664352 
	C1961.958008,191.789688 1954.562866,194.954834 1948.470215,200.467026 
	C1941.746094,206.550522 1937.840942,211.796738 1941.996826,221.501373 
	C1942.542725,222.776230 1944.100586,224.422440 1941.000000,224.500000 
"/>
<path fill="none" opacity="1.000000" stroke="#000000" stroke-linecap="round" stroke-linejoin="round" stroke-width="8.000000"
	d="
M360.500000,755.000000 
	C358.833344,755.000000 357.076141,755.349304 355.514374,754.944580 
	C343.415009,751.809082 334.709625,761.482117 331.493225,770.997742 
	C327.216187,783.651306 327.111176,796.399414 329.342682,809.526733 
	C331.077209,819.730042 333.568176,829.407837 339.491943,838.005554 
	C340.994507,840.186401 342.791870,842.036621 344.998230,843.502625 
	C353.097687,848.884277 359.812408,845.226318 363.525543,837.011536 
	C367.703644,827.768311 369.098785,817.959839 369.425293,807.997559 
	C369.648804,801.177002 369.123444,794.333801 369.047760,787.499451 
	C369.036743,786.503296 369.666687,785.500000 370.000031,784.500000 
"/>
<path fill="none" opacity="1.000000" stroke="#000000" stroke-linecap="round" stroke-linejoin="round" stroke-width="8.000000"
	d="
M1855.000000,392.500000 
	C1860.166626,394.463593 1865.330688,393.411713 1870.500488,392.502899 
	C1884.377808,390.063324 1898.396240,388.286072 1911.979858,384.429260 
	C1917.792480,382.778931 1923.902588,381.220764 1927.062500,375.031891 
	C1927.437256,374.297791 1928.610474,373.737213 1929.509644,373.545105 
	C1933.607910,372.669342 1936.280273,369.794708 1938.991455,366.991760 
	C1952.676758,352.843109 1966.190063,338.524719 1980.045288,324.544983 
	C1991.115845,313.375214 2003.496216,303.797668 2017.519409,296.537567 
	C2022.585815,293.914612 2027.703491,291.302887 2033.493896,290.458344 
	C2035.034058,290.233765 2036.916748,289.922852 2037.927856,288.926697 
	C2042.289795,284.628204 2046.053711,287.362640 2050.006836,289.487427 
	C2057.207031,293.357605 2060.774414,299.310974 2061.086426,307.496704 
	C2061.187744,310.157501 2061.843750,312.702057 2063.864014,315.113831 
	C2067.089111,318.963501 2067.239990,324.298676 2068.389160,329.026917 
	C2070.940430,339.524567 2072.679932,350.167572 2073.627686,360.988831 
	C2074.736572,373.651245 2075.620605,386.292419 2075.497314,398.999969 
	C2075.385742,410.513306 2076.274414,422.009857 2076.764404,433.488708 
	C2077.264160,445.202332 2078.848389,456.958557 2081.379395,468.526367 
	C2082.172119,472.148834 2081.372314,476.015533 2078.510254,479.009766 
	C2076.636230,480.970276 2074.321533,482.530792 2073.000000,485.000000 
"/>
<path fill="none" opacity="1.000000" stroke="#000000" stroke-linecap="round" stroke-linejoin="round" stroke-width="12.000000"
	d="
M15.500000,883.500000 
	C23.951399,885.072693 32.494343,884.339783 41.000156,884.491272 
	C87.330856,885.316162 133.666443,884.984924 179.999985,884.970703 
	C209.166718,884.961731 238.333511,884.692627 267.499939,884.489441 
	C282.833679,884.382568 298.166290,884.100281 313.500092,884.018555 
	C329.166321,883.935059 344.834686,883.871338 360.499664,884.033508 
	C378.834473,884.223328 397.181122,884.322693 415.496124,885.092529 
	C435.588135,885.937012 455.636688,887.674561 475.482544,891.101135 
	C477.191833,891.396362 478.835297,891.377563 480.501587,891.472351 
	C485.536804,891.758789 489.832916,893.704346 494.041992,896.435303 
	C502.388947,901.851013 512.444031,902.862305 521.500000,906.500000 
"/>
<path fill="none" opacity="1.000000" stroke="#000000" stroke-linecap="round" stroke-linejoin="round" stroke-width="8.000000"
	d="
M1819.000000,287.500000 
	C1821.220581,274.505432 1826.249268,262.359619 1830.587402,250.030746 
	C1833.984253,240.377151 1838.223511,231.022308 1841.968506,221.487625 
	C1843.244751,218.238464 1844.715942,215.135834 1847.033936,212.530228 
	C1847.854736,211.607605 1848.484741,210.790756 1848.519043,209.500504 
	C1848.624756,205.511444 1849.961548,201.814285 1852.066528,198.542786 
	C1854.083008,195.408920 1855.245850,192.403152 1855.140137,188.496201 
	C1854.980347,182.593582 1858.760376,177.853424 1861.587036,173.051193 
	C1868.077881,162.023575 1876.984375,153.123474 1888.546997,147.598389 
	C1907.105591,138.730484 1918.856934,145.367172 1922.935669,165.513031 
	C1925.210205,176.748077 1925.607544,188.579926 1922.937744,199.360748 
	C1920.957031,207.358856 1920.349487,215.711319 1917.517212,223.506241 
	C1917.286255,224.142075 1917.467407,224.796707 1917.052979,225.529922 
	C1910.291626,237.488571 1906.981689,250.827484 1902.057495,263.522278 
	C1897.158691,276.151489 1893.141357,289.098602 1888.916504,301.972595 
	C1883.083008,319.748566 1877.009888,337.463654 1870.371582,354.951263 
	C1866.379761,365.466827 1862.113525,375.917511 1857.164429,386.080078 
	C1855.322266,389.862518 1854.063721,393.533539 1850.025513,395.550995 
	C1848.067261,396.529297 1848.638672,398.698578 1848.477783,400.498016 
	C1847.866333,407.336304 1847.166748,414.166656 1846.500000,421.000000 
"/>
<path fill="none" opacity="1.000000" stroke="#000000" stroke-linecap="round" stroke-linejoin="round" stroke-width="14.000000"
	d="
M1050.500000,889.000000 
	C1050.324219,887.918091 1050.936279,886.714905 1049.773438,885.500000 
	C1047.001953,885.500000 1044.000732,885.527344 1041.000000,885.495361 
	C1026.333374,885.338928 1011.656677,884.760742 997.002991,885.121338 
	C983.988770,885.441589 970.986084,884.392517 958.005371,885.098328 
	C950.475952,885.507629 942.895447,885.673767 935.524109,884.797241 
	C924.004211,883.427673 912.410339,886.059387 901.000488,883.497925 
	C900.330139,883.347412 899.539917,882.843262 899.018677,883.047607 
	C887.629944,887.513000 875.706970,885.497131 863.999512,885.989075 
	C838.340088,887.067383 812.660767,886.008423 787.001465,886.568176 
	C760.332642,887.149963 733.658752,887.320190 707.002441,886.859070 
	C683.997314,886.461243 660.993347,886.333496 638.002014,886.646606 
	C621.499939,886.871399 604.996277,886.657349 588.501099,887.046936 
	C575.828857,887.346252 563.180176,887.533325 550.496094,887.119568 
	C538.514282,886.728882 526.500244,887.355408 514.499878,887.489990 
	C509.167206,887.549744 503.832397,887.559998 498.500397,887.474854 
	C495.800446,887.431824 493.333252,887.766479 491.500000,890.000000 
"/>
<path fill="none" opacity="1.000000" stroke="#000000" stroke-linecap="round" stroke-linejoin="round" stroke-width="7.000000"
	d="
M488.500000,368.500000 
	C490.725922,374.438202 488.386871,379.680969 485.421906,384.451477 
	C479.519043,393.948792 473.360046,403.301849 466.953339,412.467377 
	C457.993744,425.284973 452.530762,439.578461 448.611816,454.529297 
	C447.994659,456.883698 448.453766,459.489410 449.848724,462.081421 
	C451.977478,466.036957 453.359161,470.361145 454.140869,474.976135 
	C455.710266,484.241333 453.781708,486.327454 444.500000,484.000000 
"/>
<path fill="none" opacity="1.000000" stroke="#000000" stroke-linecap="round" stroke-linejoin="round" stroke-width="13.000000"
	d="
M2427.500000,870.500000 
	C2411.000000,871.500000 2394.495117,872.427429 2378.001465,873.520630 
	C2361.828369,874.592590 2345.677979,876.037476 2329.496338,876.932983 
	C2317.348389,877.605286 2305.164795,877.610657 2293.000488,878.012878 
	C2274.332031,878.630188 2255.669434,879.424988 2236.998779,879.958740 
	C2228.505859,880.201538 2219.988770,880.250977 2211.505615,879.874146 
	C2208.196777,879.727295 2204.527344,878.886963 2203.000000,875.000000 
"/>
<path fill="none" opacity="1.000000" stroke="#000000" stroke-linecap="round" stroke-linejoin="round" stroke-width="7.000000"
	d="
M2061.000000,312.750000 
	C2058.643555,313.843048 2057.258789,316.051300 2056.085205,318.050049 
	C2049.059570,330.015625 2039.148560,339.403381 2028.952759,348.446777 
	C2009.576050,365.633087 1988.301514,380.361389 1966.953369,394.931702 
	C1955.850464,402.509583 1944.398682,409.623352 1931.994263,414.986847 
	C1923.851929,418.507477 1915.350830,420.493866 1906.511963,421.595947 
	C1892.176270,423.383392 1877.831787,422.098877 1863.498413,422.428589 
	C1858.508667,422.543396 1853.428833,422.211334 1848.539307,421.291260 
	C1846.868652,420.976898 1845.702148,421.595856 1845.080811,422.099640 
	C1838.813354,427.183167 1832.411865,426.433044 1825.462158,423.592468 
	C1819.477905,421.146454 1813.273682,418.992188 1806.965820,417.662354 
	C1802.014160,416.618408 1799.537476,413.860016 1798.577759,409.482971 
	C1797.760010,405.753540 1800.838867,401.557678 1805.514160,399.532623 
	C1808.946899,398.045746 1812.766235,397.532227 1816.000000,395.500000 
"/>
<path fill="none" opacity="1.000000" stroke="#000000" stroke-linecap="round" stroke-linejoin="round" stroke-width="8.000000"
	d="
M1657.000000,848.500000 
	C1660.244263,847.949829 1662.593994,846.221802 1664.534668,843.524902 
	C1675.964233,827.640930 1687.547974,811.867737 1698.954712,795.967468 
	C1700.941772,793.197388 1702.504028,790.080688 1703.966797,786.984314 
	C1707.805054,778.860840 1706.658691,770.490845 1697.508667,765.484131 
	C1688.810791,760.724731 1679.775391,759.295715 1669.985596,761.434265 
	C1657.807373,764.094666 1652.990967,773.506592 1653.234131,783.994568 
	C1653.556519,797.897339 1655.545532,811.761597 1658.000000,825.500000 
"/>
<path fill="none" opacity="1.000000" stroke="#000000" stroke-linecap="round" stroke-linejoin="round" stroke-width="7.000000"
	d="
M691.000000,229.500000 
	C689.256348,236.904266 689.946716,244.524216 689.004272,252.000534 
	C687.619019,262.989624 685.415649,273.837982 680.897583,283.954254 
	C676.883362,292.942139 668.790588,295.289581 659.502930,290.993591 
	C655.984741,289.366272 652.546997,287.557648 648.989441,286.024536 
	C643.080933,283.478363 636.875488,282.787994 630.500000,283.500000 
"/>
<path fill="none" opacity="1.000000" stroke="#000000" stroke-linecap="round" stroke-linejoin="round" stroke-width="15.000000"
	d="
M1633.500000,878.500000 
	C1630.041382,876.016785 1629.339355,872.556091 1629.437500,868.498474 
	C1629.631714,860.471252 1629.709961,852.449707 1631.003906,844.500610 
	C1631.665405,840.436523 1636.843262,835.538147 1641.000000,835.000122 
	C1646.909180,834.235229 1652.517578,836.593994 1654.458130,841.018372 
	C1656.465698,845.595276 1657.469360,849.914856 1653.605469,854.587219 
	C1647.118164,862.432190 1642.815308,872.022705 1634.084961,878.121521 
	C1632.171753,879.458008 1631.318237,882.324219 1630.003540,884.502136 
	C1627.928833,887.939087 1625.066284,888.969543 1620.992065,888.583984 
	C1602.039062,886.790405 1583.001953,886.462708 1564.003662,887.108032 
	C1541.167969,887.883667 1518.331787,887.658875 1495.501953,888.100464 
	C1478.001831,888.438782 1460.497437,888.677185 1443.003418,889.133362 
	C1430.670410,889.455017 1418.319336,889.637207 1405.997314,889.809753 
	C1368.504639,890.334717 1330.998535,890.197632 1293.500488,889.925537 
	C1271.167725,889.763550 1248.833862,889.238037 1226.502319,888.859924 
	C1207.335938,888.535461 1188.157593,888.457520 1169.003540,887.883240 
	C1132.673218,886.793945 1096.349854,885.789124 1059.999878,885.967957 
	C1056.834351,885.983582 1053.666626,884.037415 1050.500000,886.000000 
"/>
<path fill="none" opacity="1.000000" stroke="#000000" stroke-linecap="round" stroke-linejoin="round" stroke-width="9.000000"
	d="
M892.500000,806.000000 
	C888.908875,808.059326 884.816406,806.925598 880.956116,807.808105 
	C870.887939,810.109802 865.878296,816.125488 868.631287,825.963257 
	C873.571899,843.618164 879.386475,861.004883 893.491028,874.009766 
	C896.125671,876.438904 897.965515,879.371033 898.500000,883.000000 
"/>
<path fill="none" opacity="1.000000" stroke="#000000" stroke-linecap="round" stroke-linejoin="round" stroke-width="11.000000"
	d="
M1989.500000,875.000000 
	C1992.655884,877.278809 1996.294800,877.477295 1999.999878,877.509094 
	C2017.000122,877.655151 2034.000488,877.794983 2051.000000,878.009338 
	C2074.500244,878.305542 2097.999756,878.679504 2121.500000,878.995178 
	C2135.833008,879.187744 2150.177490,879.053711 2164.495850,879.605591 
	C2173.003662,879.933472 2181.505615,879.706543 2189.997803,880.056030 
	C2194.794922,880.253540 2199.079102,879.198425 2203.000000,876.500000 
"/>
<path fill="none" opacity="1.000000" stroke="#000000" stroke-linecap="round" stroke-linejoin="round" stroke-width="8.000000"
	d="
M2224.000000,791.500000 
	C2229.600098,802.318359 2232.957520,813.943298 2232.292725,825.988586 
	C2231.403320,842.111450 2226.786133,857.041077 2212.510010,867.014343 
	C2210.271484,868.578186 2208.166748,870.333313 2206.000000,871.999939 
"/>
<path fill="none" opacity="1.000000" stroke="#000000" stroke-linecap="round" stroke-linejoin="round" stroke-width="8.000000"
	d="
M858.000000,445.000000 
	C850.123718,460.581757 844.064575,477.144501 833.011292,491.009003 
	C827.778748,497.572418 824.437073,498.749054 816.500854,496.497009 
	C815.994324,496.353302 815.506409,496.143341 814.999023,496.003448 
	C804.321777,493.059052 802.408569,493.723907 798.616272,504.042725 
	C796.350952,510.206879 792.517944,515.128113 788.421814,519.933350 
	C786.940186,521.671326 785.924072,523.527893 785.017944,525.508240 
	C783.064453,529.777588 784.425659,532.492188 788.998169,532.404541 
	C795.505371,532.279846 802.070923,531.918823 808.471924,530.834412 
	C812.004333,530.235962 814.307617,526.930664 816.531677,524.024231 
	C820.662781,518.625427 823.487671,512.516785 826.500000,506.500000 
"/>
<path fill="none" opacity="1.000000" stroke="#000000" stroke-linecap="round" stroke-linejoin="round" stroke-width="9.000000"
	d="
M2194.000000,800.500000 
	C2190.375488,804.658203 2190.356934,810.169312 2189.210938,815.049500 
	C2186.951660,824.670044 2185.162109,834.443542 2185.413574,844.502136 
	C2185.671387,854.809143 2187.993652,863.794373 2197.480469,869.532410 
	C2198.459473,870.124512 2199.166504,871.166687 2200.000000,872.000061 
"/>
<path fill="none" opacity="1.000000" stroke="#000000" stroke-linecap="round" stroke-linejoin="round" stroke-width="11.000000"
	d="
M1915.500000,874.000000 
	C1912.094482,873.611877 1908.821655,874.331177 1905.489746,874.944458 
	C1899.024780,876.134399 1892.492065,876.951660 1886.001709,878.010254 
	C1873.471191,880.054077 1864.202026,887.054565 1857.583252,897.552490 
	C1854.853516,901.881958 1851.108398,904.128174 1846.500000,905.500000 
"/>
<path fill="none" opacity="1.000000" stroke="#000000" stroke-linecap="round" stroke-linejoin="round" stroke-width="8.000000"
	d="
M2005.500000,242.000000 
	C2002.964966,239.928040 2000.949951,237.354919 1999.554443,234.473602 
	C1996.369385,227.896530 1990.754517,223.579758 1985.431763,219.080765 
	C1981.709351,215.934555 1976.498901,216.697891 1972.567139,217.750778 
	C1962.971558,220.320374 1953.258301,221.943008 1943.500000,223.500000 
"/>
<path fill="none" opacity="1.000000" stroke="#000000" stroke-linecap="round" stroke-linejoin="round" stroke-width="8.000000"
	d="
M1942.000000,225.000000 
	C1941.445801,228.680222 1943.448486,231.728500 1944.517822,234.994141 
	C1947.634399,244.510559 1950.812378,254.007065 1954.007080,263.497589 
	C1956.384155,270.559479 1959.762695,276.981903 1965.462036,282.042755 
	C1967.424561,283.785370 1969.466431,285.461029 1970.153687,288.464844 
	C1970.613892,290.475891 1973.077393,290.250366 1975.001465,290.011597 
	C1989.591431,288.201080 1995.913940,280.551727 1998.555542,266.510437 
	C1999.797119,259.910522 1999.167358,252.579178 2005.000000,247.500000 
"/>
<path fill="none" opacity="1.000000" stroke="#000000" stroke-linecap="round" stroke-linejoin="round" stroke-width="8.000000"
	d="
M1848.500000,212.000000 
	C1852.895386,218.037979 1859.822754,217.526291 1866.013184,218.407562 
	C1877.958984,220.108215 1889.344971,223.561203 1900.509888,227.975067 
	C1904.281006,229.465942 1908.166626,230.666672 1912.000000,232.000000 
"/>
<path fill="none" opacity="1.000000" stroke="#000000" stroke-linecap="round" stroke-linejoin="round" stroke-width="9.000000"
	d="
M1919.000000,207.500000 
	C1912.689941,203.463104 1907.075562,198.282059 1899.990601,195.524231 
	C1886.988525,190.463120 1873.811768,187.360733 1859.973022,192.426407 
	C1858.806396,192.853409 1857.531128,194.416046 1856.000000,193.000000 
"/>
<path fill="none" opacity="1.000000" stroke="#000000" stroke-linecap="round" stroke-linejoin="round" stroke-width="8.000000"
	d="
M1870.000000,359.000000 
	C1885.773193,361.511871 1901.111328,365.851288 1916.518066,369.931946 
	C1920.206909,370.908997 1924.132324,371.006866 1927.000000,374.000000 
"/>
<path fill="none" opacity="1.000000" stroke="#000000" stroke-linecap="round" stroke-linejoin="round" stroke-width="8.000000"
	d="
M1970.500000,290.000000 
	C1954.810913,301.138641 1940.966431,314.578308 1925.537354,326.050201 
	C1922.021362,328.664429 1919.431274,332.236603 1918.000000,336.500000 
"/>
<path fill="none" opacity="1.000000" stroke="#000000" stroke-linecap="round" stroke-linejoin="round" stroke-width="6.000000"
	d="
M1849.000000,396.000031 
	C1840.500000,392.333344 1832.083496,388.449097 1823.447876,385.135986 
	C1820.939819,384.173767 1817.878418,383.562134 1814.944458,385.411835 
	C1812.843750,386.736084 1812.486572,388.129639 1813.533813,389.980896 
	C1815.272217,393.054565 1816.612427,396.897064 1821.500000,395.500000 
"/>
<path fill="none" opacity="1.000000" stroke="#000000" stroke-linecap="round" stroke-linejoin="round" stroke-width="8.000000"
	d="
M1882.000000,332.000000 
	C1884.404541,333.599457 1887.177246,332.458588 1889.479858,332.262909 
	C1895.577759,331.744659 1901.508789,332.599060 1907.497803,333.031128 
	C1909.345581,333.164429 1911.274658,333.388702 1912.979858,334.051727 
	C1918.253906,336.102386 1918.706177,337.115295 1917.750000,343.000000 
"/>
<path fill="none" opacity="1.000000" stroke="#000000" stroke-linecap="round" stroke-linejoin="round" stroke-width="6.000000"
	d="
M883.500000,437.500000 
	C883.143738,440.154816 882.318542,442.643066 882.860840,445.526184 
	C883.533325,449.101318 881.317322,450.942871 877.503906,450.468811 
	C866.722290,449.128662 857.051147,444.782318 848.029663,438.954041 
	C844.723816,436.818298 843.262512,433.286591 842.500000,429.500000 
"/>
<path fill="none" opacity="1.000000" stroke="#000000" stroke-linecap="round" stroke-linejoin="round" stroke-width="6.000000"
	d="
M1218.000000,390.500000 
	C1220.912842,397.573761 1226.272339,402.438568 1232.504883,406.492401 
	C1236.252197,408.929810 1238.893066,408.459808 1241.500000,405.000061 
	C1243.422974,402.447998 1242.672607,401.022400 1239.000000,400.250000 
"/>
<path fill="none" opacity="1.000000" stroke="#000000" stroke-linecap="round" stroke-linejoin="round" stroke-width="6.000000"
	d="
M692.250000,803.000000 
	C692.982666,808.153503 692.707703,813.330200 690.386292,817.942749 
	C688.487000,821.716797 689.518188,824.533691 692.103638,826.886108 
	C693.190613,827.875061 693.323425,829.006592 694.000000,830.000000 
"/>
<path fill="none" opacity="1.000000" stroke="#000000" stroke-linecap="round" stroke-linejoin="round" stroke-width="7.000000"
	d="
M869.500000,421.000000 
	C865.833313,428.666656 862.166626,436.333313 858.500000,444.000000 
"/>
<path fill="none" opacity="1.000000" stroke="#000000" stroke-linecap="round" stroke-linejoin="round" stroke-width="9.000000"
	d="
M1967.500000,480.000000 
	C1971.710571,481.622498 1975.916260,483.345581 1980.500854,483.467163 
	C1983.435181,483.544983 1985.761353,484.846649 1988.000000,486.500000 
"/>
<path fill="none" opacity="1.000000" stroke="#000000" stroke-linecap="round" stroke-linejoin="round" stroke-width="7.000000"
	d="
M886.000000,435.500000 
	C886.445129,431.014221 883.798584,428.439362 880.533020,425.956573 
	C872.907532,420.158936 863.811035,417.422272 854.899231,415.456909 
	C850.517029,414.490479 845.748962,414.689056 841.500000,412.500000 
"/>
<path fill="none" opacity="1.000000" stroke="#000000" stroke-linecap="round" stroke-linejoin="round" stroke-width="7.000000"
	d="
M848.500000,416.500000 
	C847.198242,421.172821 844.798096,425.217987 841.500000,428.750000 
"/>
<path fill="none" opacity="1.000000" stroke="#000000" stroke-linecap="round" stroke-linejoin="round" stroke-width="4.000000"
	d="
M830.500000,438.000000 
	C833.260803,439.935120 836.423645,439.458160 839.500000,439.500000 
"/>
<path fill="none" opacity="1.000000" stroke="#000000" stroke-linecap="round" stroke-linejoin="round" stroke-width="3.000000"
	d="
M2010.000000,246.500000 
	C2011.738525,248.632584 2010.723877,251.158493 2011.000000,253.500000 
"/>
<path fill="none" opacity="1.000000" stroke="#000000" stroke-linecap="round" stroke-linejoin="round" stroke-width="3.000000"
	d="
M983.500000,314.500000 
	C981.333313,313.409149 979.166687,316.185944 977.000000,314.500000 
"/>
</svg>