<svg id="Layer_1" data-name="Layer 1" xmlns="http://www.w3.org/2000/svg" viewBox="0 0 612 792" version="1.1" xmlns:xlink="http://www.w3.org/1999/xlink">
  <defs>
    <style>
      .cls-1 {
        fill: #fff;
      }
    </style>
  </defs>
  <path class="cls-1" d="M522.93,771.36h-.97c-2.47-7.43-5.34-14.59-8.44-21.96l-10.36-24.64c-4.86-11.55-9.62-22.83-15.35-33.96l-3.88-7.54-14.84-27.83c-3.95-7.41-7.5-14.68-10.7-22.38l-2.78-6.69-3.29-8.41-2.16-5.98c-9.82-27.18-22.82-58.82-9.77-87.23,1.18-2.58,2.15-5.02,3.68-7.4.18-.29.45-1.37.09-1.36-9.42.32-19.45.89-27.6-4.36-4.94-3.19-9.05-7.17-13.44-11.12-5.67-5.1-11.34-9.81-17.52-14.23-5.52-3.95-13.43-10.22-17.67-15.28-3.52-4.2-5.65-10.57-.83-14.99,6.77-6.21,17.36.42,23.98,4.45l20.13,12.27c5.85,3.57,14.44,8,21.34,8.46,7.4.49,14.89-2.18,20.55-6.82.14-.12.39-.63.46-.79.05-.11-.54-.28-.67-.29l-13.87-.65c-10.07-.48-19.06-2.9-27.8-7.86-12.14-6.9-24.34-12.95-37.15-18.44-5.34-2.29-10.3-4.79-15.01-8.05-2.09-1.45-3.85-3.26-5.41-5.2-3.05-3.8-3.37-10.32.22-14.41,5.36-6.1,16.89-3.29,23.59-.71l13.62,5.25,17.61,6.98c3.75,1.49,7.5,2.41,11.38,3.59,5.37,1.63,10.67,2.89,16.28,3.43s14.59-.54,18.25-5.31c-2.39-.8-4.81-.58-7.18-.04l-4.82,1.1c-3.36.77-6.58,1.71-10.12,1.77-9.16.17-22.39-8.51-29.91-13.69-8.57-5.89-16.98-11.69-24.57-18.73-2.16-2.01-3.88-4.47-5.06-6.93-1.62-3.36-.27-6.78,3.09-8.25,7.9-3.44,21.58,1.46,29.91,2.99,2.23.41,4.3-.84,4.87-3.01.94-3.59.67-7.22-.03-10.92-1.32-6.91-3.15-13.41-5.52-20.05l-7.83-21.95-5.6-14.88c-2.47-6.57-5.83-12.52-10.39-17.84l-6.57-7.66c-12.24-14.27-10.88-22.56-27.86-38.64-5.07-4.8-9.77-9.55-14.17-14.98-6.12-7.56-12.57-13.63-23.26-11.64.57,5.19-2.17,13.63-7.79,12.95-1.23-.15-2.91-1.21-3.55-2.63-1.54-3.43-.32-7.36,2.38-9.83,3.46-3.16,5.42-2.48,4.97-4.6-2.36-11.13-8.97-21.29-12.74-31.38l-3.7-9.91c-2.18-5.85-3.95-11.72-7.48-16.88-3.51-5.13-9.11-10.55-15.4-11.48-4.16-.61-7.59,2.05-8.24,6.13-1.31,8.12,2.21,19.13,4.77,27.04,4.2,13,7.25,21.9,8.89,35.87,1.37,11.65,2.04,23.09,1.46,34.77l-.28,5.68c-.51,10.39-2.01,20.42-4.7,30.54-2.07,7.78-5.04,14.94-8.25,22.26-.69,1.57-.59,2.65.38,4.02,2.1,2.96,3.42,6.19,4.81,9.53l5.72,13.74c4.44,10.67,10.33,39.34,11.9,51.55.58,4.55,1.18,13.97,1.13,18.5-.02,2.34-.23,4.98.04,7.21,3.09,3.01,5.99,5.68,8.79,8.83l5.77,6.52c14.06,15.88,25.6,30.27,33.1,50.49,2.44,6.56,4.39,12.97,5.85,19.78,1.4,6.52,1.65,12.4.3,19.07l3.85,1.2c6.55,2.04,12.22,5.48,17.92,9.26,9.01,5.97,16.64,13.55,22,22.9,1.95,3.41,3.1,6.66,3.16,10.54.08,5.13-2.62,10.13-7.79,10.89-8.18,1.19-17.29-2.53-24.82-5.85-7.85-3.46-15.63-6.29-23.76-8.98-5.12-1.69-11.65-4.25-15.85-7.46-4.33-3.31-7.62-7.4-11.1-11.52l-5.07-6-5.7-6.92-3.43-4.36c-4.29-5.46-8.4-10.65-10.87-17.3-2.83-7.61-3.41-17.7-2.64-25.78l1.96-20.65,1.65-15.88,1.12-11.73c.2-2.05,1.46-15.69.89-16.27-5.06-5.1-12.36-8.32-17.11-15.14-1.47-2.11-2.67-4.16-3.69-6.54-3.71-8.62-7.14-17.19-11.82-25.32l-4.42-7.69c-5.1-8.86-11.22-16.86-17.03-25.33-10.91-15.88-19.45-33.07-24.9-51.53-2.77-9.4-5.39-27.91,4.89-33.43,3.91-2.1,8.74,1.14,7.08-.92l-4.96-6.14-16.38-20.86-5.06-6.34-7.89-10.3c-7.21-9.4-13.93-18.87-20.22-28.95-3.28-5.26-6.1-10.32-8.99-15.76-11.37-21.35-15.32-34.71-23.06-56.97l-8.18-23.51-4.92-13.3c-3.69-9.97-7.85-19.42-12.41-29.01l-7.95-16.72-3-6.72c-.16-.36-.16-1.36-.03-1.31,1.11,1.56,2.06,2.74,2.86,4.2l8.75,15.91c5.62,10.23,10.61,20.53,14.82,31.42l1.55,4.01,3.54,9.47,6.15,17.51,2.44,7.36,8.71,24.96c4.01,11.5,9.21,22.29,14.99,33.01,6.37,11.81,13.68,22.67,21.5,33.48l2.21,3.06,5.84,7.73,8.29,10.6,16.31,20.66,20.37,26.22c7.67,9.87,14.51,20,20.8,30.75l6,10.24,2.07,3.67c.07.12.55.43.62.33s.29-.46.37-.66l5.02-13c4.06-10.51,5.85-21.37,6.69-32.58l.55-7.3c1.12-14.98-.62-41.97-4.99-56.32l-5.68-18.65c-1.82-5.98-3.48-11.82-4.28-18-.92-7.09.25-16.49,8.95-17.58,3.93-.49,7.84.97,11.18,3.16,4.68,3.07,8.12,7.15,11.09,11.9,3.38,5.4,6.31,14.44,8.32,20.77,5.02,13.23,11.96,23.9,15.01,37.95,12.53-1.73,20.18,4.85,26.99,14.13,3.65,4.42,7.55,8.31,11.77,12.24,8.11,7.56,14.65,16.04,19.81,25.87,3.17,6.04,6.88,11.4,11.51,16.39,7.72,8.31,13.54,17.55,17.39,28.27l10.6,29.54c1.99,5.56,3.65,10.9,5.23,16.54,1.07,3.82,1.76,7.54,2.22,11.49.41,3.55.31,7.05-1.18,10.28-3.18,6.85-10.61,3.67-16.38,2.06-5.87-1.63-14.25-3.28-20-1.32-3.45,1.18-.23,6.12,1.66,7.97,6.51,6.39,11.86,9.89,19.17,15.25,7.75,5.68,15.71,10.71,24.33,14.9,4.68,2.27,9.55,3.17,14.62,2.08l4.82-1.04c4.03-.87,14.67-4,16.19,1.11.94,3.16-2.74,5.84-5.41,7.32-5.49,3.05-13.63,3.57-19.74,2.56-8.13-1.34-15.87-3.59-23.55-6.48l-9.48-3.56-20.46-8.38c-2.52-1.03-4.94-1.76-7.53-2.53-4.85-1.44-10.95-2.73-15.12.92-3.99,3.49-2.38,9.45,1.04,12.62,3.1,2.87,6.64,5.01,10.42,6.8l6.84,3.24,12.07,5.42c5.37,2.41,10.43,4.92,15.6,7.75l11.75,6.44c7.06,3.87,14.54,5.89,22.59,6.27l10.76.51c1.64.08,10.93-.48,10.19,3.17-.25,1.26-1.13,2.73-2.06,3.64-4.34,4.24-9.71,6.73-15.66,7.96-10.34,2.14-21.02-2.84-29.73-8.03l-5.51-3.29-18.26-11.21c-4.33-2.66-12.75-7.16-17.23-3.18-2.28,2.02-2.34,5.32-.67,7.78,1.03,1.52,2.13,3.08,3.5,4.36,4.98,4.69,10.16,8.79,15.7,12.85,6.47,4.74,12.44,9.6,18.44,14.91l7.22,6.4c5.39,4.77,11.91,7.38,19.17,7.37h12.33c1-.01,2.29.75,2.76,1.35.63.81.45,2.19.01,3.12-1.57,3.27-3.27,6.23-4.67,9.57-4.31,10.24-5.34,20.99-4.1,32.03,1.14,10.11,3.45,19.64,6.84,29.23l8.31,23.46,1.99,5.19,3.23,8.43,3.49,8.2,5.18,11.01,4.63,9.31,1.77,3.46,2.63,5.16,2.68,5.09,4.37,8.22,3.42,6.63,3.64,7.13c4.11,8.06,7.65,16.15,11.08,24.53l3.1,7.57,6.98,17.66c3.98,10.09,9.02,22.29,10.45,32.71ZM261.56,346.61c-3.11,1.19-6.25-.65-7.6-3.51-3.16-6.73-1.8-14.23.58-21.15.26-.77.29-1.89-.16-2.55-1.68-2.5-3.37-4.77-5.49-6.9l-10.34-10.41c-7.63-7.67-13.45-17.19-18.09-26.96-2.17-4.57-5.97-14.51-11.27-14.93-2.22-.17-4.17,1.35-5.37,3.04-5.09,7.14-2.3,20.91.14,28.9,3.51,11.5,11.87,29.97,18.49,39.91l9.47,14.22c5.98,8.99,12.17,17.53,17.32,27.03,3.31,6.09,6.16,12,8.88,18.34,4.59,10.69,5.87,14.49,15.17,21.55l6.23,4.74c.58-13.65-1.63-30.1-4.62-42.94l-3-12.89c-1.59-6.85-3.54-13.46-6.38-20.11-1.13,1.84-1.9,3.83-3.97,4.62ZM245.13,303.29c-6.96-11.91-14.51-22.83-22.92-33.57.45,2.07,1.33,3.81,2.16,5.6l4.02,7.69c4.68,7.36,9.58,14.54,16.74,20.28ZM261.29,332.39l-3.89-7.48c-1.95,4.65-3.05,13.49-.14,17.38.52.54,1.39,1.28,1.97,1.24.68-.04,1.54-.63,2.1-1.13,1.91-3.14,1.66-6.7-.05-10ZM337.4,530.32c-2.39-.63-2.52,4.08-6.91,6.61-1.85,1.07-4.07,1.71-6.05,1.05-1.87-.62-3.04-2.43-3.29-3.93-.31-1.87.2-3.89,1.49-5.23,2.48-2.56,6.14-3.25,9.7-3.04.98.06,1.72-.31,1.94-1.23,2.2-9.5-.5-19.02-3.21-28.12-4.25-14.25-10.98-27.17-20.04-38.98-6.25-8.15-12.76-15.85-19.72-23.37-2.52-2.72-4.73-5.2-7.71-7.56-.63,4.52-.71,8.3-1.11,12.42l-1.47,15.03-1.83,16.86-1.04,10.36c-1.28,12.75-1.78,28.09,6.42,38.68l9.07,11.71,5.31,6.66,2.81,3.4c6.85,8.27,12.12,15.35,22.47,18.97l16.11,5.63,9.47,3.87c7.76,3.17,13.23,6.09,21.78,7.35,2.48.37,5.28-.15,7.24-1.78,3.48-2.89,1.73-9.64-.11-13.19-7.34-14.12-25.8-28.08-41.32-32.19ZM306.04,229.66c-4.24,1.04-7.07,7.06-4.32,8.29.93.41,2.29-.56,2.86-1.39,1.4-2,1.77-4.37,1.46-6.9ZM332.23,529.62c-1.98-.11-3.51.19-5.21.67-1.04.73-2.55,1.69-2.41,3.04s1.82,1.36,2.84,1.13c1.97-1.2,3.59-2.4,4.78-4.84Z"></path>
</svg>
