<svg id="Layer_1" data-name="Layer 1" xmlns="http://www.w3.org/2000/svg" viewBox="0 0 612 792" version="1.1" xmlns:xlink="http://www.w3.org/1999/xlink">
  <defs>
    <style>
      .cls-1 {
        fill: #fff;
      }
    </style>
  </defs>
  <path class="cls-1" d="M403.07,128.54c-12.31,6.69-25.54,10.89-39.47,11.85-8.48.58-16.25-.65-24.25-3.14-9.02-2.8-17.56-6.03-26.31-9.58-10.39-4.22-21-6.35-32.25-6.09l-11.29.27c-5.34.13-10.42.33-15.75,1.2-8.62,1.41-17.05,3.84-24.85,8.26,19.96-5.02,36.6-3.54,55.81,2.21,8.38,2.51,16.21,5.65,24.41,8.69l15.25,5.65c6.53,2.42,12.95,4.18,19.8,5.55,12.83,2.58,25.61,1.97,38.16-1.65,5.7-1.65,10.85-3.74,16.37-5.93.5-.2,1.63-.19,2.06.02,2.37,1.18-2.34,9.97-2.85,13.22s-.46,6.69-.22,10.13l1.39,19.84c1.01,14.43.84,28.4-3.17,42.37l-4.94,17.23c-4.73,16.5-6.72,32.5,1.5,48.26l6.8,13.04c3.05,5.84,5.22,11.87,5.82,18.43.09.98-.63,2.3-.67,3.35-.03.72.69,2.21.34,2.87-2.03,3.79-5.02,6.31-8.71,8.38-6.13,3.44-13.37,3.95-20.14,1.99-3.78-1.09-7.17-2.62-10.63-4.46-4.89-2.59-9.52-5.03-14.6-7.28-10.88-4.81-22.62-6.64-34.29-4.33-5.27,1.04-6.94,4.34-9.79,8.96-1.13,1.84-4.12,3.87-6.69,2.42-4.49-2.54-7.64-7.71-9.05-12.79-2.79-10.11,1.58-16.39-3.45-27.39l-3.81-8.33c-.1-.22-.33-.54-.39-.63s0-.56.09-.48c.12.11.56.49.64.62l1.06,1.94,3.25,5.96c7.78,14.26-3.43,25.37,10.49,39.54.23.02.48.08.46-.04-1.55-10.89,1.63-27.06,2.43-38.78,1.09-15.94-6.98-25.27-18.2-34.95-.2-.18-23.05-19.31-19.8-14.91,7.01,9.5,12.85,24.62,14.49,36.71l3.54,26.2c1.91,14.13,4.36,26.93,19.95,31.29,7.84-6.89,17.91-10.2,28.43-9.78,6.83.27,13.1,2.2,19.26,5.04,9.79,4.51,16.63,10.57,26.13,15.22,6.89,3.38,14.87,4.15,21.58-.14.33-.21,1.31-.28,1.6-.04s.4,1.18.24,1.55c-1.77,4.21-3,8.27-4.19,12.66-1.01,3.73-2.13,7.33-2.64,11.2-.57,4.25.23,8.38.37,12.57.1,3,1.04,5.65,1.35,8.53l3.15,29.47c1.19,11.1-.88,21.8-3.66,32.44l-2.4,9.16c2.48-1.26,4.62-.55,6.8-.73,1.73-.15,2.62-.25,4.31.54,1.55.73,3.68.98,5.47,1.31,2.5.45,4.76,1.49,7.2,1.97l8.34,1.64c4.55.89,6.21,4.8,8.06,8.65l.43.89c.32.66.91-1.33,2.56-2.74,2.43-2.07,3.49-4.74,3.58-7.99.06-2,.51-4.77-.84-6.51-.99-1.28-6.05-5.78-4.9-7.04.89-.98,3.44,2.28,8.92,3.08,4.15.6,3.76,8.25,2.65,11.14l-3.13,8.16c-.47,1.22-.57,2.37-.29,3.75,5.53-3.29,8.77-9.54,14.97-5.75,1.58.97,2.95,1.04,4.62.3s3.56.39,4.46,1.83c2.09,3.34,4.59,3.84,7.86,4.73,1.32.36-1.35-6.63-1.64-7.44-.65-1.86-1.26-3.96-1.63-5.75-.63-3.07,1.33-4.03,3.54-5.07s9.13-4.86,10.69-4.43c1.32.37-.35,5.22-1.98,6.65s-4.99.49-6.28,2.17,1.83,4.84,3.05,6.16c2.12,2.28,2.49,5.27.65,8,4.23.64,4.53-2.41,10.9-3.48,5.25-.88,4.12-5.13,7.51-8.48.22-.22,1.04-.19,1.17.04,2.05,3.52-5.97,19.64-22.84,18.89-9.4-.42-12.35-3.52-21.22-5.37-.34.27-.7.57-.5.41,5.1,1.67,6.02,7.46,5.3,11.81-1.11,6.71-5.49,12.43-11.62,15.26-3.77,1.74-8.14,1.73-11.58-.37-.99-.6-1.29,2.42-4.95,2.37-10.18-.15-19.23-8.52-24.09-16.95-5.3-9.21-7.11-17.48-8.59-28.06l-7.37,3.56c-.7.34-1.15,1.25-1.26,1.97l-.3,2.01-.12.78c-.02.14-.58.29-.59.14v-.69s-.06-2.69-.06-2.69l-7.8,6.17c-9.57,7.57-20.41,4.07-28.32-3.76-13.23-13.09-10.95-18.04-13.54-22.9-2.01-3.77-5.47-6.27-5.2-11.29.34-6.55,3.86-12.82,10.28-15.51,8.65-3.62,16.82,5.06,24.81,6.93.97.23,2.73.15,3.41.62.22.16.36,1.05.3,1.32-.25,1.1-3.31-.32-4.54.25-5.04,2.31-8.09,8.11-13.99,12.01-3.33,2.21-7.29,2.09-10.49-.15l-.6-.42c-.17-.12-.52.57-.46.8,1.61,6.23,4.57,11.87,8.08,17.17,2.19,3.32,4.38,6.33,7.28,8.89,8.8,7.76,17.85,3.06,25.52-3.31,2.11-1.75,4.24-3.3,6.55-4.83l3.23-13.14c2.67-10.86,3.31-21.64,2.4-32.84l-2.16-26.6c-.15-1.86-1.07-3.6-1.09-5.58-.03-2.95-.63-5.9-.85-8.83-.4-5.1.54-9.72,1.81-14.56,1.33-5.06,2.72-9.75,4.53-14.98-9.86,5.47-20.01,1.98-28.6-3.39l-12.63-7.9c-5.63-3.52-11.47-6.1-17.96-7.67-11.85-2.87-24.77-.52-34.22,7.28.69,1.43.42,2.04-.48,2.86l-6.84,6.21c-1.87,1.7,2.67.42,5.9,6.65,2.93,5.65,1.36,11.37,2.18,12.81,1.24,2.19,2.78,3.99,4.48,5.81,11.24,12.07,12.72,26.01,7.64,41.48-3.08,9.37-8.08,17.69-14.48,25.12-1.63,1.89-6.36,7.21-8.72,6.28s-.09-6.45.67-8.87c3.95-12.69,7.66-26.56,4.46-39.8l-2.79-11.54c-2.16-8.94-.68-12.94.7-21.25,1.32-7.93-5.89-8.77-6.24-13.27l-.08-1.05c-.01-.18-.62.28-.81.37-4.37,1.97-9.18,2.52-13.95,2.77l-7.45.4c-5.65.3-11.13.76-16.48,2.69-.36.13-1.06.05-1.31-.14s-.16-1.21.17-1.42l7.4-4.69c6.44-4.08,8.44-2.63,14.73-6.19l7.66-4.34c4.53-2.57,9.46-2.3,14.25-.34,1.58.64,3.41,1.45,5.02.22-6.16-2-10.81-5.8-13.87-11.3-2.4-4.32-3.87-8.92-4.55-13.88l-3.53-25.95c-2.5-18.37-7.16-33.58-18.99-48.02-.24-.29-.14-1.34.19-1.44s1.3-.14,1.59.07c8.95,6.56,17.6,13.15,25.97,20.43,8.25,7.18,15.34,15.4,16.73,26.63.8,6.47.14,12.77-.74,19.3-1.02,7.58-2.5,20-1.18,27.18,1.15.95,2.83.24,3.56-.88,3.81-5.81,5.33-9.5,12.69-10.6,11.89-1.77,23.8.06,34.68,5.09,4.52,2.09,8.63,4.2,13.01,6.51s9.13,4.57,14.27,5.51c9.33,1.71,18.82-1.99,23.99-9.88-1.14-5.15,1.38-2.94-.26-10.04-2.57-11.16-8.17-18.21-12.86-28.53-6.26-13.78-5.86-26.33-2.37-40.84,1.72-7.15,3.7-13.86,5.78-20.91,4.39-14.86,5.06-27.69,4-43.1l-1.18-17.05c-.33-4.78-.99-12.42.52-16.67l3.2-9.03c.11-.31-.45-.83-.81-.69l-12.8,4.82c-21.88,8.23-45.12,4.14-66.34-3.89l-20.31-7.68c-23.68-8.96-49.11-15.23-73.79-6.22-2.52.92-5.09,2.24-7.07,3.96-.3.26-.5,2.59.89,3.65,8.29,6.33,10.66,13.81,9.55,24.23-.67,6.24-2.11,12.01-3.97,17.95l-6.8,21.64c-6.99,22.26-8.45,51.41-1.48,73.92,1.3,4.19,2.98,8.03,4.75,12.01.56,1.26,2.56,5.48.91,6.33-2.31,1.19-6.9-4.65-8.45-6.62-6.67-8.45-10.86-18.13-12.48-28.84-1.2-7.89-1.51-15.56-.71-23.54l2.15-21.7c.98-9.85.46-19.32-1.87-28.93-.9-3.7-2.72-12.19-3.18-15.71-1.33-10.3-.75-17.48,3.93-26.98.12-.24-.05-.83-.24-.75l-1.04.44c-12.53,5.3-21.88,3.06-34.46,6.97-7.5,2.34-14.29,6.32-18.82,12.73l-1.31,1.85c-8.18,11.55-8.95,29.24-9.01,43.02-.03,7.86-.13,15.34-.82,23.12-1.86,21.1-11.99,40.25-28.35,53.65-2.43,1.99-13.15,10.09-15.63,7.3-.49-.55-.59-1.85-.26-2.61l4.78-10.73c16.47-36.94-2.66-63.97,11.96-89.29,6.02-10.42,12.92-15.81,21.73-23.39l2.51-2.16c.11-.1.22-.81.09-.88-2.19-1.15-16.15,3.71-28.69-20.73l-8.12-15.82c-.95-1.85-4.74-7.72-2.73-8.73,3.03-1.51,14.87,3.68,18.46,5.29,6.59,2.95,12.2,6.79,15.89,13.1,1.83,3.14,2.97,6.51,4.08,9.97.2.62,4.29,13.57,5.45,11.77,5.66-8.79,8.92-21.06,21.64-20.71,10.05.28,11.61,4.88,14.36,1.37.12-.16.38-.62.27-.76-.15-.19-.55-.59-.81-.75-4.54-2.73-9.01-5.4-13.21-8.7-15.51-12.23-23.22-27.48-31.66-44.88-5.82-12-12.27-25.5-20.57-35.92-1.58-1.98-3.43-3.66-5.35-5.33-1.67-1.45-3.36-1.01-4.56-1.86-.19-.13-.31-1.06-.15-1.22.35-.33,1.34-.3,1.98-.24,9.51.91,12.38.05,23.09,2.2,23.65,4.76,39.45,22.37,47.01,44.56,1.94,5.69,3.4,11.36,4.17,17.35l1.92,14.92c.91,7.05,1.9,13.77,3.43,20.76.15.67,1.16.59,1.74.43,8.65-2.44,17.03-4.91,25.45-8.05,1.99-.74,5.33-2.15,4.56-4.79-1.04-3.55-2.46-6.75-3.95-10.16-6.91-15.87-10.39-25.05-13.75-42.26-3.28-16.8-5.45-29.86-16.36-43.86-.31-.4-.6-.95-.65-1.29-.05-.4.59-1.29.97-1.15.44.17,1.1.56,1.54.93,8.37,6.87,16.58,13.55,24.52,20.89,9.86,9.12,19.08,19.78,24.77,31.95,4.48,9.59,6.87,20.89,3.57,31.14-1.22,3.8-2.75,7.42-5.14,10.58l-5.48,7.25-.47.61c-.09.12-.21.33-.36.6-.1.17.86.1,1.07-.04,12.42-8.08,26.6-12.78,41.4-13.14l19.77-.49c11.07-.27,21.39,2.28,31.6,6.37,9.29,3.72,18.32,7.2,27.87,10.04s18.48,3.29,28.35,1.78c11.92-1.82,23.99-6.22,34.26-12.25.37-.22.85-.76.8-.97-.65-2.55-1.65-5.7-2.71-8.23-9.3-22.16-14.94-33-12.9-58.16l1.46-18.04c.49-6.08-.4-20.99-1.97-26.74l-3.54-13.02c.42-.47.51-.57.62-.41,2.06,3.25,5.16,12.33,5.96,16.45,6.14,31.63-7.68,47.8,4.43,80.43l2.61,7.02c2.14,5.76,5.58,12.53,6.68,18.59.24,1.3.64,2.36,1.21,3.47l-.54.49c-.1.09-.44.43-.32.46l1,.25c1.64.41,3.22,1.2,4.76,2.01,3.28,1.71,2.33.04,6.64-.88.92-.2,1.87-.64,2.31-1.53,1.93-3.91,3.28-7.82,4.54-11.99,3.63-11.95,7.12-19.18,15.98-28.06,4.59-4.6,8.07-9.54,10.43-15.64l6.47-16.76c1.72-4.46,3.87-8.62,6.79-12.3,3.87-4.86,9.45-7.13,15.61-7.05,3.47.04,6.91.55,9.6,2.78,1.72,1.42,3.18,3.31,3.17,5.57,0,.57-.83,1.62-1.37,1.68l-2.81.27c-.15.01-.51-.03-.73-.04l-.68-.02h-.68s-.68-.02-.68-.02h-.69c-6.38-.06-10.68-.22-15.76,3.74-.14.11-.33.26-.37.31l-.37.37-.35.34-.36.35c-2.33,2.24-4.44,9.62-5.2,12.96s-2.4,12.27-4.37,14.75l-.29.36-.31.38-.31.39-.31.39c-.06.08-.24.23-.34.32l-.34.33c-.05.05-.28.19-.39.27l-.4.27c-.11.07-.44.27-.48.33l-1.19,1.61c-.43.34-.66.52-.61.48.24.26,1.61.26,1.5.26,4-.09,4.94.11,7.97-1.9l.43-.29c.07-.04.24-.18.46-.37l8.37-7.36c.06-.06.6-.24.67-.26l.45-.15.55-.18c3.05-1.02,4.58,1.87,5.7,3.65l.26.41.26.42.27.42c.26.4.55,1.36.55,1.35,1.86,3.61,5.61,6.93,10.05,6.94h.52s.51.03.51.03c.33.02.56,0,.95-.05l.66-.08c.16-.02.5-.26.32-.31l-.97-.27c-4.77-1.33-8.95-4.94-9.83-9.83-.26-1.43-.78-2.49-1.73-3.55-.8-.89-1.38-2.73-.51-3.77,2-2.36,5.73-3.04,7-7.31.67-2.24.59-4.7-.02-6.99l-.23-.87c-.05-.18-.49-.75-.56-.58-.59,1.49,1.65,8.88-7.05,10.46l-3.11.56c-8.36,1.51-8.19,6.91-13.24,13.54-.71.93-.97,2.48-2.53,2.38,1.7-2.16,4.76-7.02,5.8-9.4l.19-.43c.05-.12.19-.39.25-.48,3.15-4.9,5.38-6.21,11.26-6.92l.62-.08c1.97-.24,4.61-1.42,5.57-3.15,1.27-2.3,1.28-4.64.92-6.94l-.41-2.67.16-.54c.74-2.52,6.67,8.6,2.34,14.87-2.14,3.1-6.99,5.05-6.3,6.33.93,1.73,1.82,2.05,2.13,3.04.57,1.79.74,3.69,1.63,5.26,1.27,2.24,3.18,4.25,5.68,5.06l4.76,1.53c.36.12.39,1.39.05,1.54l-1.49.68c-.06.03-.46.09-.6.1-15.36,1.85-13.81-16.74-20.36-12.79-.05.03-.44.22-.52.27l-2.4,1.87s-.28.3-.37.4l-.33.36-.38.38c-1.28,1.29-6.46,5.81-8.06,6.25l-.49.13-.54.15c-.07.02-.44.09-.55.1l-3.54.19-.69.03-.69.03-.8.04c-.13,0-.34.26-.24.34l.72.62c1.67,1.43,1.91,3.71.67,5.61-1.51,2.31-3.93,3.75-6.39,5.07l-.48.26c-1.62.87-3.8,1.41-5.25,2.68-2.42,2.12-3.74,5.06-5.7,7.69-1.2,1.61-1.47,4.56-.55,4.06l1.01-.55c4.17-2.25,8.42-4.06,13.22-4.28l9.47-.42c5.53-.24,5.47-5.76,5.71-10.17.29-5.31,3.58-7.83,8.81-7.96,2.31-.05,5.02-.48,7.01.52,1.19.6-.38,1.84-.98,2.19-4.08,2.39-7.81,5.03-10.77,8.69-4.87,6.02-4.51,13.56-10.82,14.47-4.1.59-7.93-.27-11.99-.94-.52-.09-6.03-.43-5.03,1.2.37.6,1.58,1.43,2.39,1.7,10.21,3.33,17.4,7.5,28.46,7.78,2.48.06,4.89-.94,7.23-1.61,7.26-2.09,14.93-2.04,21.84.93,1.58.68,2.99,1.72,3.23,3.43.47,3.45-7.81,2.19-9.71,1.97-10.75-1.27-14.72.14-25.21-1.75-3.42-.62-6.86-.65-10.37-.89-3.82-.26-7.49-.12-10.86,1.76-.27.15-.73.6-.83.86-.47,1.26,5.39,6.68,5.96,10.33l.09.55c.2,1.25.18,2.8-.74,3.51-3.52,2.72-8.47-2.27-10.69-5.01-7.17-8.87-4.29-17.2-7.29-14.07-4.84,5.05-4.35,11.57-3.98,18.35.3,5.48,6.17,9.06,10.26,11.5,1.75,1.05,3.05-1.69,5.98.16l6.71,4.23c1.26.79,3.19,1.61,4.67,1.78,6.82-1.92,12.9-4.75,19.07-8.05,8.19-4.37,15.49-9.14,25.31-7.53,3.08.5,5.25,2.7,6.78,5.4l7.67,13.54.7,1.22c.16.27-.18,1.09-.49,1.1-1.8.03-7.72-7.78-19.65-5.36-3.31.67-6.23-.06-9.27-.94-6.78-1.96-10.34,3.45-11.6,4.15-.25.14-.77-.17-1.16-.45l.31-1.57c.19-.95,1.3-.3,2.46-1.26,3.3-2.7,7.31-3.25,11.29-1.91,2.99,1.01,5.85,1.11,8.97.57,5.44-.94,10.9.39,15.49,3.38.22.14.55.24,1,.3l-6.83-12.28c-2.46-4.43-6.13-5.08-10.7-4.87-6.08.28-12.19,3.54-17.52,6.49l-.48.27c-5.96,3.31-11.92,6.11-18.36,8.32,1.6.65,3.24.61,4.84.31l.89-.17c.24-.04.77.07,1.1.15.18.04-.66.14-.83.18l-1.06.25c-.16.04-.63.2-.7.2l-2.76.2-.74.02-1.25.09c-.37.03,2.53,2.63.33,4.43-2.5,2.04-5.92,3.05-9.07,1.74-2.9-1.21-6.01-5.73-3.54-9.05.15-.2-.32-.65-.56-.74l-.58-.22c-.18-.07-.38-.14-.51-.2l-3.31-1.43c-3.1-1.34-.73,5.59-.78,9.37-.12,8.91-4.4,14.95.72,22.83,4.1,6.33,9.67,11.51,16.26,15.24,9.95,5.63,17.98,3.22,21.39,7.34,2.24,2.71,3.12,6.08,3.65,9.56l.6,3.95c.06.38-.35,1.42-.7,1.45-3.37.26-3.67-8.99-14.02-9.78-7.65-.59-12.07-4.02-17.33-8.85l-.46-.42c-.08-.07-.17.02-.38.16l1.77,4.02c2.89,6.58,2.87,14.11-4.19,17.85-2.61,1.38-6.04,3.25-4.84,6.93.94,2.87,2.32,5.51,3.81,8.16l4.21,7.49c.45.8.64,2.13.5,3.14-.39,2.89-10.06-1.94-13.41-8.93-1.97-4.12-1.3-8.63.58-12.58.06-.14.2-.48.26-.57l3.6-5.86c3.46-5.63-.53-6.28-.28-9.92l.42-5.99c.02-.32.17-3.04-.42-2.81-1.43.56-1.66,2.2-6.84,2.64l-5.69.48c-1.15.1-2.51.27-3.28,1.02s-1.18,2.26-1.19,3.44l-.07,6.14c0,.62-1.62,1.18-2.1.89-2.44-1.49-4.31-3.76-4.5-6.69-.26-4.17,4.25-6.71,7.17-8.4,2.11-1.22,3.98-2.56,5.97-4,3.24-2.34,10.22-.87,12.37-2.41,1.4-1-1.84-3.11-4.31-3.46l-4.55-.64c-2.47-.35-3.92-2.54-3.99-5.09s.85-4.93,1.61-7.27l-1.29-1.99-.3-.47c-.08-.12.31-.31.47-.23,1.58.82,2.99,2.76,1.97,4.76s-2.22,8.16,1.23,8.7l5.57.88c2.53.4,5.93,2.46,5.21,4.96-.22.76-1.38,1.7-2.36,1.84-6.8.93-8.35-.43-12.96,3.2-3.37,2.66-10.76,5.27-10.4,9.54.25,2.91,3.98,7.17,3.95,4.25-.02-2.19-.08-4.32.16-6.31.32-2.57,2.28-3.75,4.64-3.95l7.55-.63c4.53-.38,5.77-4.42,6.9-2.75s.81,3.58.72,5.61l-.27,6.04c3.63,4.91.73,8.56-2.19,13.06-4.76,7.34-3.77,11.17-.33,16.72l.34.56c.87,1.41,5.72,4.78,8.16,5.59,2.2.73-3-7.6-3.37-8.25-2.38-4.14-7.32-11.84-3.16-15.46,1.1-.96,2.55-1.85,3.88-2.52,6.5-3.28,6.66-9.99,4.05-15.99l-2.48-5.71c-.44-1.02.07-1.56.18-1.75.17-.3,1.11-.07,1.4.21,1.75,1.66,3.57,3.52,5.44,5.07,4.08,3.37,8.82,5.05,14.06,5.46s7.88,3.55,11.03,7.75l.36.47c.08.1.4.19.55.24.18.06.1-.7.06-.9-1.07-5.77-2.07-12.42-8.76-13-10.53-.92-19.71-5.66-26.97-13.27-3.48-3.65-6.66-7.42-8-12.45-1.85-7,2.18-13.02,1.37-20.3-.27-2.4-.86-4.73-.55-7.11l.16-1.22c.03-.26-.63-.51-.93-.66-2.85-1.4-5-3.33-7.71-5.53,2.22,9.34,3.65,18.18,3.49,27.51-.02,1.24-.34,2.65-1.11,3.36-2.07,1.9-5.74.31-8.02-1.06-9.36-5.62-16.81-13.96-21.45-23.85-1.52-3.23-2.01-6.43-2.25-9.89-.09-1.29-.24-2.48.3-3.68.73-1.62,1.14-3.45.87-5.25l-1.2-8c.06-.21-.73.14-1.2.4l-.86.47ZM217.94,131.84c.04.18.45.71.44.66l6.36-8.4c5.23-6.91,7.31-15.31,6.41-24.03-.8-7.79-3.78-14.85-7.64-21.66-9.43-16.6-25.83-30.22-40.51-42.32l-.29.52c4.46,7.2,7.63,14.8,9.35,23.16l4.86,23.6c1.86,9.05,4.92,17.5,8.52,25.99l5.9,13.92c.79,1.86,1.49,3.82,1.55,5.91.05,1.86-1.45,3.73-3.26,4.47-9.7,3.91-19.57,6.82-29.74,9.55-.98.26-1.91-.49-2.11-1.32-1.16-4.86-2.06-9.43-2.69-14.4l-2.84-22.17c-2.15-16.76-9.46-33.89-21.6-45.79-12.85-12.6-27.68-16.16-45.13-16.75-.26,0-.96.21-1.19.29-.17.06.38.55.52.68,10.24,9.6,17.52,25.6,23.8,38.05l8.85,17.55c3.42,6.78,7.62,12.84,12.51,18.64,6.03,7.15,12.99,12.96,21.07,17.57,1.8,1.03,4.84,2.58,4.73,4.39-.03.57-.5,1.52-.9,1.95-1.71,1.82-3.88,1.92-6.03.99-6.75-2.94-14.99-3.46-20.27,2.58-1.68,1.92-3.05,4.01-4.33,6.29l-5.67,10.11c.13.84.34,2.28-.09,2.91s-1.87.85-2.43,1.3c-4.43,3.54-8.59,7.03-12.77,10.87-10.59,9.75-17.36,20.13-18.21,34.89-.32,5.57.16,10.92.36,16.53l.61,17.11c.61,17.12-4.78,31.06-11.94,46-2.03,4.24,9.01-3.21,9.88-3.85,13.23-9.75,23.06-23.42,27.87-39.18,6.04-19.77,2.27-39.93,5.15-59.9,3.44-23.81,15.76-37.39,40.07-40.25l10.06-1.18c6.05-.71,11.79-2.53,17.1-5.46.66-.36,1.46-.63,1.98-.04,1.39,1.6-10.62,10.31-5.21,35.46l3.09,14.36c3.36,15.61.9,27.11-.64,42.72-2.21,22.38-.41,42.53,15.35,59.6.93,1.01,1.51,2,3.02,2.29-.6-1.97-1.09-3.3-1.81-4.84-4.35-9.43-7-19.14-8.14-29.52-1.93-17.65-.45-35.13,4.17-52.27,1.91-7.1,4.04-13.72,6.31-20.69,3.13-9.62,6.82-21.29,5.55-31.28-.72-5.64-3.77-10.07-8.02-13.57l-1.66-1.37c-3.5,8.03-4.36,16.33-4.3,24.98.02,2.9-.18,5.69-.31,8.57-.26,5.59-2.13,10.65-4.26,15.77-.14.35-.76.8-1.06.72-1.4-.35,1.02-3.72,1.7-7.96,1.15-7.16,1.82-14.06,2.28-21.29.49-7.7,1.76-15.07,4.78-22.1.02-.99.12-2.91.08-3.82l-.15-3.42c-.12-2.83-.95-5.69-1.66-8.49-1.9-7.46-2.95-14.8-3.1-22.51-.19-9.54-2.8-17.93-7.24-26.57,1.76,1.18,5.32,10.14,5.95,12.01,2.1,6.2,2.3,12.59,2.58,19.05.25,5.75,1.25,10.98,2.58,16.59l1.84,7.79ZM118.64,137.05c4.5,7.34,8.59,19.02,16.54,23.4-3.28-7.2-4.23-12.04-6.97-18.85-2.31-5.03-5.8-8.99-10.53-11.88-5.13-3.13-10.51-5.43-16.24-7.29-2.18-.71-4.17-1.54-6.69-1.3l6.73,13.17c4.26,8.34,8.56,17.62,15.76,23.67,8.17,6.87,20.31,5.15,18.25,3.89-4.14-2.55-7.96-6.57-10.39-11.02-2.47-4.53-4.88-8.91-6.46-13.78ZM295.22,347.01c-2.56-.75-5.01-1.9-7.61-1.93-6.73-.08-12.61,6.27-18.77,8.14-4.44,1.35-8.97,2.44-12.53,5.9,6.05-.82,11.51-1.13,17.24-1.51l5.25-.35c8.15-.62,13.17-3.36,18.95-9.51l-2.53-.75ZM297.64,447.88c7.3-7.13,12.81-15.59,16.44-25.02,5.49-14.25,5.96-28.64-4.32-40.76l-5.21-6.14c-3.95-4.66.61-10.04-4.66-16.85-.99-1.28-2.27-2.13-3.81-2.87-1.22-.58-4.26.45-3.49,1.89.83,1.54,2.7,2.79,3.67,4.15,4.62,6.52.44,10.94.33,20.37-.12,10.18,4.81,18.45,4.96,30.47.08,6.7-.94,13.07-2.75,19.49l-4.95,17.52c1.79-.2,2.61-1.11,3.78-2.26ZM352.92,453.15c5.23-3.71,7.38-7.85,12.82-11.57l-8-3.88c-4.54-2.2-8.88-4.83-14.06-2.38-6.15,2.92-9.58,9.56-8.46,16.35.17,1.01.73,2.11,1.29,3.01.07-4.73,3.01-8.34,7.64-8.59,3.22-.17,6.41.04,9.51.42-3.59.18-6.9.16-10.37.74s-5.75,3.97-5.35,7.17c.05.35,1.16.63,1.46.49,1.77-.85-.05-2.29,1.25-2.92,2.18-1.06,5.78,5.76,12.26,1.16ZM388.82,474.92l-7.36,5.78c-5.76,4.53-13.14,7.94-20.34,4.58-3.88-1.81-6.75-4.61-9.34-8.03-5.15-6.79-9.28-14.15-11.5-22.29-1.45.8-1.85.81-3.27.89l3.46,3.62c.35,5.13,2.16,9.79,5.18,13.95,2.9,3.99,6.11,7.53,9.87,10.73,4.25,3.62,9.58,5.8,15.21,5.26,6.94-.66,11.81-7.24,17.64-10.79.38-1.01.54-2.29.46-3.69ZM390.56,473.92c-.35,1.07-.57,2.42-.68,3.72l8.27-3.94c-2.43-1.64-5.07-.84-7.59.22ZM421.07,482.87c-2.8-3.28-6.73-5.74-11.02-6.46-1.32-.22-2.55-.63-3.74-.9-2.2-.5-4.04-.31-6.28-1.64,1.19,16.46,7.21,35.43,22.68,43.01,2.77,1.36,5.59,2.25,8.68,1.81.54-.08,1.49-.66,1.62-1.12s-.26-1.35-.63-1.82c-6.89-8.72-1.7-21.62-11.3-32.87ZM422.52,130.26c-2.27-1.46-1.98,2.16-7.85,2.04-2.36.83-4.74,3.79-5.97,6.11-2.29,4.31-1.93,9.55-.03,14.11,3.9,9.37,10.76,17.19,19.01,22.99,1.68,1.18,6.39,3.95,7.91,2.69.33-.28.77-1.16.77-1.69.11-11.47-1.55-22.73-5.47-33.5-1.76-4.83-4.03-9.95-8.36-12.75ZM412.69,131.36c-1.94-1.03-3.09-1.63-5.4-2.5.06,2.64.46,4.69.95,7.37l4.45-4.88ZM481.61,468.36c-3.04,1.07-5.48,2.4-8.18,3.98-.87.51-2.65.66-3.03,1.78-1.62,4.79,7.72,17.62,1.65,16.93-9.87-1.12-8.69-8.19-12.47-6.58-1.77.75-3.58.58-5.14-.53-1.96-1.4-4.52-1.4-6.53.19l-6.37,5.03c-.5.4-1.77.58-2.27.31-2.61-1.41.56-8.31,1.5-10.42,1.4-3.15,2.17-6.44,1.66-9.83-.24-1.59-.92-2.24-2.4-2.65l-5.03-1.37,2.53,2.63c2.39,2.48,1.82,9.75.65,12.82-1.72,4.51-6.05,5.2-5.05,9.74.08.39-.61,1.17-.95,1.06-1.62-.51-2.14-7.39-6.46-11.49-1.79-1.7-4.8-1.98-7.09-2.12,5.4,4.54,9.38,8.85,11.72,15.27,2.71,7.42,3.9,14.93,4.81,22.92,2.38,2.3,6.49,2.88,9.8,1.69,7.17-2.56,12.16-9.62,12.23-17.18.02-2.06-.61-4.01-1.92-5.53l-1.49,10.7c-.46,3.31-1.85,5.52-5.73,5.78-2.45.16-5.85-.81-8.42-1.15-.62-.08-2.24,1.38-2.55.35-1.76-5.81-1.89-13.35,2.74-17.87,3.03-2.96,7.13-3.96,11.37-3.7,8.99.54,15.7,5.95,24.9,5.81,7.13-.11,13.57-3.23,17.59-9.11-3.33,1.67-6.84,1.87-9.19,3.44-2.5,1.68-7.27,3.12-8.14,1.23-.62-1.35,3.85-3.41.77-7.22-1.82-2.25-5.5-5.88-3.88-8.46,2.38-3.78,7.76.89,8.39-6.43ZM465.97,105.79c-1.72.63-2.79,1.42-4.19,1.46l-7.13.2c-5.64.16-10.68,1.49-15.51,4.3-.79.46-2.46.65-2.96-.08-.67-.99-.55-2.78.11-3.84,1.94-3.11,3.69-6.47,6.29-9.05s10-3.68,12.67-8.57c.36-.65.51-2.32.1-2.97-.72-1.12-3.4-1.54-3.4-2.17v-1.56c-4.64-3.13,4.74-.53,7.45-9.08,2.32-7.32,2.93-14.41,5.91-21.07,1.92-4.29,5.32-7.25,9.84-8.59,5.99-1.78,10.79-.71,17.1-1.05-.34-4.65-5.54-6.78-9.67-7.07-10.9-.77-16.53,4.98-20.92,14.18-3.78,7.92-5.8,15.25-9.39,23.48-6.83,15.65-16.29,13.92-24.06,37.87l-2.34,7.21c-1.02,3.15-2.3,6.11-3.81,9.06,4.78,1.86,6.64,6.03,8.83,10.37l.55.43c-.43-6.33.21-13.25,5.14-17.45.46-.39,2.15-.63,2.3,0l1.35,5.94c.92,4.06,3.1,7.48,5.86,10.51,1.62,1.79,5.71,5.06,7.75,3.41s-.85-6.19-2.19-7.93l-3.2-4.17c-.33-.42-.5-1.68-.33-2.11s.78-.96,1.33-1.27c3.84-2.21,8.09-2.18,12.42-1.93,4.59.27,8.96.67,13.53,1.46,2.38.41,4.76.45,7.17.41,5.01-.09,9.73.1,14.73.72.95.12,8.22.94,7.82-.6-.29-1.13-2.25-2.49-3.39-2.87-7.07-2.42-14.44-2.36-21.44.04-4.79,1.64-9.12,1.29-13.87.23-5.1-1.13-9.8-2.69-14.63-4.72-2.9-1.22-6.04-2.01-8.82-3.49-.49-.26-.98-1.33-1.01-1.82-.09-1.8,2.91-2.4,4.67-2.17l10.6,1.35c4.59.58,7.41-2.7,8.72-6.98ZM432.94,513.07c-.87-6.78-1.79-13.16-4.28-19.28l.6,4.84c.47,2.98,1.27,12.69,3.67,14.44ZM452.75,493.81c-4.91,1.05-2.52,5.96-4.21,5.8-.95-.09-2.9-2.88-2.49-4.65s1.75-2.61,3.4-3.75c-4.9-.4-9.6,2.45-11.11,7.39-.97,3.18-.89,6.67-.19,9.93,4.27-.31,12.7,3.98,13.71-1.97l1.44-8.5c.22-1.3.55-3.33-.55-4.24ZM445.74,154.42l5.71,2.13c-.25-.82-5.51-3.98-5.71-2.13ZM457.03,161.36c-2.17.52-3.95.12-6.07-.48.23,2.94,2.69,5.35,5.67,5.55,1.96.13,5.04-.8,5.93-2.63-.03-2.39-3.49-2.93-5.53-2.44ZM451.77,158.21c-.26,2.59,3.78,2.38,4.58,1.75l-4.58-1.75ZM482.02,89.07c-.94-1.63-8.43-.01-9.76.39-2.25.69-3.85,3.15-3.98,5.53l-.37,6.59c3.35-4.87,5.78-7,10.2-9.92l3.92-2.59Z"></path>
  <path class="cls-1" d="M386.63,586.1c-1.04,1.89-.87,3.76-.68,5.65l1.08,10.91.19,14.35.36,18.85.21,21.2c.04,3.86.06,7.49.13,11.25l.18,8.96c.12,6.1.77,11.95,1.49,18.09l3.41.1c7.11.21,13.63,3.11,19.67,6.59.81-.46,1.93-.89,2.58-.74.57.13,1.39.81,1.87,1.4l9.45,11.77c8.05,10.02,13.17,23.03,6.24,35.13-1.78,3.11-4.08,5.68-7.39,7.3-.92.45-2.79.77-3.59-.12-5.27-5.88-9.12-12.7-11.39-20.27-2.93-9.77-2.85-23.11,1.5-32.68-5.61-3.68-15.17-7.15-22.12-6.33l1.2,18.55.35,6.58c.35,6.65.28,13.15,0,19.82-.26,6.01-.88,11.87-.28,17.87.1.98.33,1.83.24,2.87l-1.1,13.61c-.39,4.77-.4,9.25-.4,14.06,0,.38-.42,1.12-.75,1.14s-.99-.58-1.03-.93c-.9-7.09-1.04-13.94-.83-21.1l.2-6.85.38-11.27.37-7.53.28-6.57-.02-25.17c0,2.53-.72-20.93-.41-17.19l-2.36-28.46-.29-11.73c-.05-1.99-.51-3.96-.52-6.01l-.12-29.73.29-3.86c.31-4.21.39-8.35.02-12.58l-1.17-13.35c-.17-1.9.64-3.84.74-5.78-2.52.14-4.07-.73-5.88-1.77-6.32-3.63-5.55-5.38-9.35-10.96-.24-.35-.96-.85-1.33-1.02-.43-.19-1.63.22-1.78.47,2.28,1.59,3.79,6.73,1.71,8.65-1.81,1.67-7.67-2.51-7.34-7.72.26-4.13,4.23-7.36,8.24-6.91,2.26.25,3.81,2.13,4.65,4.06,1.35,3.1,2.57,5.99,4.1,9.01s3.33,3.39,6.85,4.21c0-14.74,1.63-28.59,4.08-42.86,2.15-12.54,3.64-24.8,3.31-37.44-.11-4.3-1.5-9.43-2.97-12.72-.12-.26.05-.81.05-.96,0-.94,5.62,2.59,4.55,23.32-.53,10.15-1.75,19.84-3.52,29.92-2.4,13.65-3.71,27.1-4.28,40.92,8.8,3.35,8.52-2.33,16.17,2.84,6.25,4.22,6.47-8.95,14.75-7.86,2.57.34,5.18.69,7.67,1.26,2.19.5,4.05.74,6.12-.47l7.09-4.13c4.26-2.49,9.44-3.83,13.68-.45,1.82,1.45,5.89,5.97,4.63,8.01-.22.36-1.22.44-1.69.24-5.21-2.17-8.08-2.55-12.85.29-3.84,2.29-4.08-.54-11.02-.46-3.39.04-6.56-1.14-9.94-1.48s-11.82,3.04-10.93,6.59c2.24.21,3.5,1.4,4.95,2.75,2,1.86,3.7,3.71,5.27,6,1.05,1.54,2.67,2.87,4.46,3.09,2.24.27,4.68-.48,5.11-2.9.34-1.92-1.72-3.73-.44-5.72.37-.58,1.76-.89,2.49-.53,2.28,1.12,3.4,3.5,3.68,5.63.34,2.59-.44,5.3-2.58,6.86-4.06,2.97-9.34-1.14-13.01-3.14,5.66,8.38,8.67,20.45,9.13,30.22.03.68-.54,2.13-1.19,2.39-5.08,2.04-10.35,2.84-14.12-2.4-8.55-11.87-10.32-25.34-9.68-39.26l-1.07-.3c-.14-.04.26-.4.52-.76-5.35-1.64-6.88-.84-13.5-2.68-.7-.19-2.39-.25-2.77.43ZM375.55,577.33l-3.68-8.57c-.62-1.45-2.04-2.59-3.7-2.58-2.94,0-5.62,2.36-5.88,5.45-.23,2.8,1.83,5.72,4.67,6.23.56-1.1.26-2.73-.37-3.43-.71.01-1.78.01-2.44-.05-.99-2.24.18-5.48,2.52-6.07,4.44-1.12,6.43,7.67,8.87,9.01ZM412.84,595.82c-2.04-2.26-4.34-4.12-7.29-5.71-.32,7.34.17,14.05,1.73,20.81.95,4.15,5.69,16.62,10.11,18.81,2.33-10.5,2.78-25.82-4.55-33.91ZM421.42,711.78c-2.23-2.79-4.86-4.84-7.95-6.9-1.25,2.65-1.93,5.16-2.39,8.03-2.42,15.01.81,28.66,10.3,40.56.4-.33.94-.95,1.07-1.35,1.95-6.25,2.64-12.47,2.93-18.98.26-5.89-.25-16.73-3.96-21.37ZM426.6,629.12c-.62-8.38-2.7-19.63-7.28-26.62,2.49,10.66,2.05,17.82.27,28.08,2.7.04,4.57-.52,7.01-1.46ZM425.8,716.65c1.01,6.82,1.78,12.41,1.11,18.5-.31,7.05-1.5,13.72-3.83,20.43,1.27-.05,2.48-.49,3.49-1.32,5.88-4.85,8.78-12.57,7.44-20.22-1.14-6.53-3.92-12.6-8.22-17.39ZM430.44,590.67c-1.15,1.72,1.88,3.48-.24,6.94-.63,1.03-2,1.76-3.61,2.72,1.47.58,3.21.65,4.46-.08,3.01-1.75,2.77-7.93-.61-9.58ZM453.64,579.12c-1.16-3.12-3.5-4.73-6.1-5.87-5.31-1.46-10.79,3.15-15.43,5.8,1.64.47,2.9.82,4.38,1.34,5.35,1.87,4.58-5.02,17.15-1.27Z"></path>
  <path class="cls-1" d="M477.86,372.8c1.2,4.5,6.8,1.97,7.01,4.24.1,1.09-.54,1.35-1.57,1.56-3.68.75-10.27,2.64-13.38-.68-1.87-1.99-2.4-4.8-2.45-7.5-.14-6.68,2.83-10.16.61-13.18-1.24-1.69-2.41-3.37-3.46-5.14-3.01-5.04-7.16-.76-14.34,1.26-.76.21-2.35.4-3.14.32l-4.45-.44c1.59,2.64,3.43,4.5,4.7,7.1,2.89,5.9,1.65,12.7,5.7,16.32,4.58,4.09,9.44,3.58,7.38,5.89-6.67-1.94-10.64-3.31-14.41-9.53-2.01-3.31-3.98-6.51-5.18-10.22-.91-2.82-1.13-6-2.82-8.48-2.1-3.09-7.81-3.91-11.7-4.15,5.59,8.34,11.04,20.8,12.69,30.49.12.69-.38,1.93-.83,2.34s-1.7.79-2.52.75c-6.54-.32-12.62-2.9-17.6-7.1-9.45-7.98-14.07-19.48-13.47-31.94-2.61,1.69-2.85,4.25-4.71,6.38.17-3.5,2.67-5.85,4.68-8.53,1.29-2.52,1.32-7.59,2.88-9.35.82-.93,2.69-1.07,3.42.02,2.31,3.43,2.25,5.87,6.24,7.61,4.92,2.14,13.99,5.61,19.16,5.51,5.9-.12,5.24-6.97,5.19-10.26-.07-5.11.84-9.92,3.51-14.31.94-1.54,3.79-4.87,5.27-3.44.3.29.55,1.29.43,1.69-3.26,10.88-2.42,15.01-4.61,25.51,7.71-1.02,9.95-5.8,16.59-8.42,3.61-1.43,7.44-.77,10.46,1.69,4.05,3.3,8.65,4.54,13.92,4.25s10.02-1.35,15.06-2.8c.47-.14,1.69.12,1.97.49.32.42.19,1.45-.24,1.99-3.42,4.2-8,7.12-13.21,8.6-3.62,1.03-7.11.48-10.36-1.33-1.89-1.05-5.39-2.65-7.11-1.23-1.42,1.18.89,4.08,1.92,5.16,8.61,9.01,1.32,13.4,2.77,18.87ZM418.71,347.85l3.87.34c-1.77-2.9-4.28-4.4-7.02-5.97-2.63-1.5-5.67-1.81-8.27.15-2.81,17.92,9.31,37.58,28.06,39.44.51.05,1.38-.14,1.6-.45.18-.24.3-1.13.23-1.44-1.88-7.97-4.52-15.54-8.42-22.7-1.44-2.64-2.44-6.45-4.92-7.4l-5.13-1.97ZM410.04,335.2c-.18-.36-.84-.92-1.06-.71-.18.17-.63.8-.67,1.07l-.57,4.72,4.45-.82-2.15-4.25ZM475.11,356.98c-1.95-2.21-5.37-5.93-3.96-8.81,1.57-3.2,7.01-1.92,9.7-.06,2.96,1.64,6.15,2.31,9.39,1.22,3.93-1.32,7.76-3.15,10.67-6.46-9.14,2-20.35,4.61-27.79-1.73-10.51-7.8-14.47,3.9-25.16,6.09-1.76.36-3.6.6-5.19,1.3-1.45.64-2.59-.48-3.69-.48-2.35,0-4.65.59-7.07-.05-3.28-.86-6.3-1.89-9.66-2.96,3.45,5.69,4.45,3.08,9.96,4.45,11.49,2.84,6.03,8.28,13.55,20.57,1.65,2.7,3.14,5.48,6.08,7.22-1.86-2.83-3.02-5.35-3.28-8.62-.88-10.94-8.1-14.36-6.5-16.02,1.23-1.27,4.74,1.75,11.31-1.8,3.53-1.91,9.21-5.19,12.07-1.06l3.76,5.44c1.49,2.16,2.25,4.23,1.56,6.89-1.04,4.02-3.12,13.53,2.39,15.22,1.62.5,3.54.31,5.29-.15-7.81-6.23,3.05-12.88-3.41-20.21ZM448.03,321.39c-6.15,6.89-3.79,14.25-4.9,21.83l-1.4,2.81c2.08.35,2.18-1.2,3-2.46l1.12-8.66c.59-4.52,1.27-8.81,2.19-13.52Z"></path>
  <path class="cls-1" d="M141.88,168.36c-3.8,3.08-6.65,6.03-8.95,10.06-7.17,12.56-9.28,26.05-11.46,40.17l-1.07,6.95c-.24,1.57.34,3.32-.97,4.97-.05-1.04-.08-2.16.05-3.29,1.92-17.27,4.39-38.79,14.95-53.1,2.24-2.22,3.94-5.21,7.45-5.75Z"></path>
  <path class="cls-1" d="M170.02,129.59c1.04,2.59,2.65,4.46,4.33,6.51-4.01-2.01-8.32-13.71-10.15-18.27-3.35-8.33-7.71-15.85-14.12-22.14l-7.97-7.81c-1.01-.99-2.16-1.73-2.72-2.84,5,3.74,9.25,7.48,13.09,11.64,6.98,7.55,9.55,13,13.28,22.31l4.26,10.6Z"></path>
  <path class="cls-1" d="M299.61,381.21c-2.38,13.76,6.61,16.85,5.2,30.46-1.48-6.28-.86-8.47-3.84-14.73-2.27-4.77-3.41-9.97-2.41-15.28,1.06-5.61.86-10.7.03-16.74,2.24,3.67,1.84,11.55,1.02,16.3Z"></path>
</svg>
