<svg version="1.1" id="Layer_1" xmlns="http://www.w3.org/2000/svg" xmlns:xlink="http://www.w3.org/1999/xlink" x="0px" y="0px"
	 width="100%" viewBox="0 0 1640 2360" enable-background="new 0 0 1640 2360" xml:space="preserve">
<path fill="#FFFFFF" opacity="1.000000" stroke="none" 
	d="
M1641.000000,2117.545898 
	C1624.415894,2118.333252 1607.831421,2118.941895 1591.247681,2118.927002 
	C1572.495483,2118.910156 1553.744507,2118.117676 1534.992065,2118.071777 
	C1521.276489,2118.038330 1507.554321,2118.533203 1493.844116,2119.038086 
	C1480.499878,2119.529297 1467.160767,2120.228027 1453.830933,2121.028076 
	C1439.234741,2121.904541 1424.649414,2122.970215 1410.063477,2124.010254 
	C1396.638672,2124.967285 1383.230225,2126.197266 1369.794556,2126.948486 
	C1353.969360,2127.833740 1338.128052,2128.606934 1322.283447,2128.938721 
	C1295.703369,2129.496338 1269.112915,2130.025391 1242.531372,2129.852051 
	C1228.733276,2129.762207 1214.831177,2127.725586 1203.647583,2118.730225 
	C1194.996704,2111.772217 1187.326782,2103.580566 1179.346313,2095.808105 
	C1171.453247,2088.120605 1162.544434,2082.132812 1151.903198,2079.049072 
	C1142.960815,2076.457520 1133.777710,2076.640381 1124.750977,2078.169922 
	C1108.992432,2080.840088 1093.393677,2084.517090 1077.591553,2086.846924 
	C1065.458374,2088.635986 1053.078003,2090.125488 1040.874512,2089.723389 
	C1024.589233,2089.186768 1008.356506,2086.796387 992.124512,2084.992432 
	C981.944702,2083.861084 971.789551,2082.466553 961.657166,2080.962158 
	C953.173218,2079.702148 944.758240,2077.979736 936.276489,2076.702637 
	C927.112427,2075.323242 917.926208,2074.033447 908.711792,2073.065186 
	C902.328857,2072.394043 895.883301,2072.089355 889.462952,2072.047363 
	C872.664612,2071.937500 857.491333,2077.164551 843.334412,2086.075195 
	C831.093933,2093.779541 818.832581,2101.542969 806.046875,2108.265625 
	C790.275391,2116.558594 773.584351,2123.025879 756.137573,2126.761719 
	C745.197937,2129.104248 733.906555,2130.186279 722.713928,2130.877930 
	C704.577454,2131.998291 686.387390,2132.965820 668.229248,2132.822510 
	C649.991638,2132.678711 631.821350,2130.391357 614.187134,2125.488037 
	C603.574768,2122.537354 592.728821,2119.592285 582.926331,2114.746582 
	C565.655518,2106.208496 550.751587,2094.489990 542.607483,2076.122314 
	C538.472351,2066.796387 535.170654,2057.291016 534.943176,2046.857300 
	C534.463196,2024.850830 533.861694,2002.842896 532.934387,1980.851440 
	C532.269409,1965.082886 531.730652,1949.250244 529.819641,1933.607056 
	C526.945190,1910.077148 521.913696,1886.880371 513.910767,1864.516602 
	C505.446289,1840.863159 495.683472,1817.662476 487.639648,1793.874390 
	C481.789368,1776.573242 477.171387,1758.780640 473.227692,1740.936523 
	C470.676361,1729.392578 469.871460,1717.389893 469.121094,1705.539795 
	C468.263092,1691.989868 468.110352,1678.381958 468.072205,1664.797974 
	C468.042938,1654.380249 468.652802,1643.960083 469.004913,1633.541870 
	C469.317627,1624.289062 469.536346,1615.030518 470.028290,1605.786743 
	C470.929199,1588.858521 471.891266,1571.931763 473.082306,1555.022217 
	C473.363251,1551.033447 474.655060,1547.115845 476.047150,1543.288208 
	C480.598999,1568.042847 478.594452,1592.861816 478.928253,1617.598511 
	C479.041779,1626.011353 478.244354,1634.432983 478.019470,1642.854736 
	C477.617126,1657.924561 476.660034,1673.020142 477.163605,1688.063721 
	C477.855530,1708.734009 479.731842,1729.271484 484.620026,1749.581665 
	C490.162231,1772.609131 498.474548,1794.557495 506.998047,1816.528687 
	C513.244568,1832.630493 519.017090,1848.926025 524.614990,1865.267334 
	C531.209473,1884.517944 536.014648,1904.279785 538.762512,1924.427246 
	C540.510498,1937.243286 541.435120,1950.218994 541.892639,1963.152710 
	C542.626343,1983.890137 542.392517,2004.661377 543.084717,2025.401001 
	C543.663025,2042.728638 545.140930,2059.918213 553.867371,2075.653564 
	C558.405212,2083.835938 564.424255,2090.410400 571.756348,2095.976807 
	C587.624451,2108.024170 606.143921,2113.833740 625.217407,2117.832520 
	C636.781067,2120.256836 648.607788,2121.996826 660.393555,2122.648682 
	C675.647583,2123.492188 690.989990,2123.322998 706.272522,2122.864258 
	C716.711426,2122.551025 727.154785,2121.310547 737.522217,2119.929443 
	C755.135193,2117.582764 772.189270,2112.823242 788.469971,2105.764404 
	C806.636414,2097.888184 823.217102,2087.114258 840.030212,2076.724365 
	C850.672302,2070.147949 862.118896,2064.985596 875.082886,2063.890625 
	C889.246826,2062.693848 903.267334,2062.288818 917.341797,2064.888428 
	C923.971252,2066.112549 930.786926,2066.328125 935.809448,2066.830078 
	C914.064392,2061.156982 890.718323,2055.228271 867.486145,2048.882324 
	C862.181519,2047.433228 856.465942,2045.612671 854.597717,2038.974365 
	C848.913879,2051.321777 839.085266,2059.438232 828.055542,2065.864502 
	C811.003906,2075.799072 793.661560,2085.277100 776.103149,2094.287354 
	C758.302979,2103.421875 739.299927,2109.710449 719.579346,2112.800537 
	C698.024170,2116.178223 676.396912,2116.006104 655.550537,2107.985596 
	C647.065674,2104.720947 639.176270,2100.414062 632.552979,2094.053467 
	C614.029236,2076.263916 603.579102,2054.212402 599.097839,2029.258057 
	C597.400940,2019.808105 597.097290,2010.114380 595.972656,2000.553589 
	C594.719971,1989.904419 594.325378,1978.985718 591.507629,1968.748535 
	C589.629150,1961.923706 584.669800,1955.697632 580.198242,1949.889648 
	C571.782349,1938.958252 567.634155,1926.409912 565.076538,1913.231934 
	C562.732117,1901.152466 560.658875,1888.996704 559.108459,1876.792969 
	C557.063782,1860.697632 551.874878,1845.508179 547.116455,1830.136230 
	C542.138428,1814.055054 537.754761,1797.786743 533.310181,1781.545776 
	C532.415771,1778.277466 532.177185,1774.774292 532.043457,1771.363403 
	C531.596130,1759.949219 531.212891,1748.529541 531.025269,1737.108521 
	C530.643188,1713.862915 529.262756,1690.741943 523.023132,1668.188599 
	C518.062012,1650.256470 513.412659,1632.224365 507.895020,1614.463379 
	C501.337585,1593.355591 494.052612,1572.472412 486.959290,1551.533691 
	C485.324585,1546.708374 483.186890,1542.053223 481.606995,1538.130005 
	C471.598846,1539.476318 462.249023,1541.404053 452.830048,1541.840820 
	C439.357971,1542.465576 425.835358,1542.000000 412.334320,1542.000000 
	C403.527283,1542.000000 394.696350,1542.416504 385.918182,1541.913208 
	C367.727631,1540.870361 349.566132,1539.324951 331.390503,1538.016113 
	C325.976257,1537.626221 320.547272,1537.428101 315.138153,1536.982300 
	C299.633911,1535.704224 284.140411,1534.294312 268.634186,1533.041138 
	C262.563263,1532.550415 256.473663,1532.209351 250.385773,1532.026367 
	C236.494247,1531.608887 222.599213,1531.115234 208.704224,1531.068970 
	C198.545410,1531.035156 188.356644,1531.319336 178.235275,1532.133545 
	C172.606277,1532.586304 168.798401,1537.259644 169.088089,1542.893677 
	C169.813187,1556.995361 171.009155,1571.072388 171.963699,1585.162964 
	C172.375641,1591.243530 172.758911,1597.329468 172.977280,1603.419312 
	C173.386627,1614.835205 173.991974,1626.257446 173.936310,1637.674072 
	C173.793976,1666.869507 173.348877,1696.063477 172.993362,1725.257568 
	C172.818604,1739.608765 165.928635,1746.716553 151.693619,1746.964966 
	C140.819489,1747.154907 129.931641,1746.765015 119.064560,1747.104004 
	C102.426414,1747.622925 85.806694,1748.915527 69.168106,1749.176880 
	C56.919888,1749.369385 44.648262,1748.558838 32.397793,1747.971313 
	C22.224573,1747.483643 12.067006,1746.669434 1.451253,1746.000000 
	C1.000000,1744.611084 1.000000,1743.222168 1.000000,1741.416626 
	C23.361025,1741.000000 45.730812,1741.390259 68.080574,1740.888428 
	C89.682701,1740.403320 111.267677,1739.067017 132.852692,1737.958740 
	C139.700073,1737.607300 146.589935,1737.185791 153.337494,1736.060059 
	C159.168015,1735.087158 162.318100,1730.230835 161.906296,1724.611938 
	C161.776016,1722.834351 161.719803,1721.048462 161.707611,1719.265747 
	C161.464844,1683.795288 161.376801,1648.322876 160.918549,1612.855347 
	C160.767715,1601.179443 159.691193,1589.514404 158.989960,1577.847290 
	C158.360870,1567.380127 157.332153,1556.925171 157.075195,1546.450195 
	C156.648041,1529.038086 166.110657,1520.236694 183.395294,1519.972656 
	C196.142303,1519.777954 208.900024,1518.793823 221.626801,1519.135498 
	C237.894943,1519.572266 254.135849,1521.004517 270.390381,1521.976196 
	C276.756653,1522.356689 283.128021,1522.651978 290.443512,1523.035767 
	C285.266022,1518.923462 280.411896,1515.717896 276.359833,1511.703003 
	C269.631653,1505.036621 262.662872,1498.395508 257.155365,1490.762573 
	C247.362946,1477.190918 237.640350,1463.400391 229.668259,1448.734009 
	C222.529022,1435.599731 216.935806,1421.444458 212.221848,1407.222290 
	C207.333450,1392.473755 204.323059,1377.102905 200.487793,1362.005127 
	C195.343964,1341.755981 190.407928,1321.450928 184.993408,1301.274414 
	C179.225327,1279.780396 177.626892,1257.865356 179.198135,1235.884888 
	C180.757767,1214.066895 184.749847,1192.478271 192.135132,1171.793701 
	C198.852844,1152.979004 206.433655,1134.472656 213.619537,1115.824829 
	C220.720291,1097.397949 226.537170,1078.623047 231.240387,1059.394165 
	C235.515259,1041.916504 237.931732,1024.330444 238.968689,1006.473938 
	C239.486008,997.565857 239.620743,988.636108 240.017197,979.720154 
	C240.256882,974.329590 240.992889,968.943420 240.938309,963.560974 
	C240.776901,947.648438 240.332748,931.738708 240.001770,915.827820 
	C239.987915,915.161438 240.010559,914.494385 239.998459,913.827881 
	C239.667023,895.577759 239.222794,877.328796 239.033569,859.077148 
	C238.871216,843.416992 238.352692,827.719360 239.181107,812.101440 
	C240.018982,796.305420 241.982895,780.542419 244.067078,764.846375 
	C246.349030,747.660889 248.739014,730.448059 252.185043,713.471069 
	C255.377808,697.741638 259.308624,682.077637 264.206024,666.798828 
	C271.240051,644.854187 279.388275,623.264282 287.224091,601.581970 
	C288.194427,598.897034 289.733307,595.734131 293.670837,596.968628 
	C297.874756,598.286621 298.459991,600.914246 297.131226,605.183838 
	C292.560822,619.869324 287.976685,634.586548 284.399353,649.531372 
	C282.289581,658.345093 281.840210,667.591675 281.069550,676.679688 
	C280.401917,684.552979 279.968994,692.483765 280.111115,700.376831 
	C280.234283,707.218079 281.337341,714.039734 281.957031,720.874573 
	C282.666962,728.704895 283.164124,736.558044 284.044373,744.368530 
	C284.917328,752.114075 285.906067,759.862915 287.282349,767.531677 
	C289.677338,780.876831 292.282043,794.187805 295.026245,807.466125 
	C300.870850,835.746155 309.857880,862.765320 328.257874,885.675781 
	C337.058258,896.633362 345.948883,907.572815 355.539032,917.828064 
	C367.651031,930.780029 379.989380,943.618286 393.205048,955.413208 
	C407.117096,967.829651 420.949524,980.487488 437.313599,989.924255 
	C450.545624,997.554749 464.510803,1003.313721 479.464722,1005.798462 
	C492.969208,1008.042358 506.717865,1009.289062 520.404846,1009.846985 
	C538.916016,1010.601501 556.922974,1006.545532 574.958923,1002.679932 
	C588.724792,999.729553 602.748779,997.852356 616.730957,996.071106 
	C641.450500,992.921997 666.825073,992.891724 690.121338,982.790833 
	C700.641479,978.229492 710.557068,971.893677 719.970642,965.261169 
	C730.728455,957.681580 740.332520,948.477844 750.978455,940.721863 
	C760.494202,933.789368 771.496826,929.708435 782.874146,926.492798 
	C799.565186,921.775330 815.779480,915.650024 830.696594,906.657166 
	C843.513245,898.930542 856.087402,890.799377 868.718506,882.768005 
	C881.083374,874.905762 893.353149,866.893982 905.723694,859.040649 
	C916.177917,852.403687 926.545959,845.600647 937.292786,839.468018 
	C942.330200,836.593445 948.169983,835.125000 954.873291,832.547302 
	C943.964600,831.024841 934.298157,831.611206 925.618713,835.390686 
	C912.955322,840.904907 900.689819,841.155273 887.783081,837.048584 
	C879.386108,834.376831 877.398499,835.617981 875.123291,843.794250 
	C874.089294,847.509827 874.065491,851.526855 872.856140,855.165527 
	C872.130432,857.348938 870.380066,859.900146 868.412537,860.793335 
	C865.595215,862.072449 863.462585,859.825562 862.574768,857.064209 
	C859.979370,848.992493 857.454285,840.896973 855.013245,832.777161 
	C851.429260,820.855896 847.188049,809.190063 838.961182,799.614258 
	C833.188782,792.895386 825.587952,788.830322 816.657654,788.080872 
	C811.384399,787.638428 806.041931,787.935059 800.734619,788.064026 
	C799.764648,788.087585 798.814026,788.904907 797.812317,789.375732 
	C804.910156,799.527344 811.821838,809.254333 818.565063,819.096802 
	C827.265564,831.796082 832.791626,846.021118 837.637695,860.485779 
	C838.641602,863.482178 839.473877,867.639099 835.434753,869.769043 
	C832.229309,871.459351 828.004517,868.942993 825.391907,864.941589 
	C812.455322,845.127625 801.250549,824.023682 783.353760,807.860474 
	C777.390564,802.474915 770.798584,797.737793 762.662476,797.249084 
	C757.859558,796.960571 752.727966,798.466919 748.074646,800.104797 
	C737.355713,803.877563 726.879944,808.334717 716.229065,812.309204 
	C702.815247,817.314636 688.853821,818.971680 674.587891,819.055054 
	C659.000732,819.146179 643.414612,819.611328 627.830994,820.025879 
	C621.074402,820.205627 614.296143,821.236084 607.578491,820.890869 
	C589.087585,819.940857 571.070129,817.008667 553.904846,809.176758 
	C541.890991,803.695312 531.394226,796.280884 522.069092,787.350952 
	C507.878387,773.761780 499.980988,756.407593 496.141296,737.393005 
	C493.734894,725.476257 492.409241,713.317993 491.059662,701.216614 
	C488.957336,682.365601 488.184845,663.257874 481.562592,645.249512 
	C477.110779,633.143311 471.522736,621.703003 462.622559,611.794739 
	C453.570160,601.716980 443.944275,592.599304 432.283539,585.805298 
	C420.821777,579.127319 408.636078,574.455688 395.255768,572.927490 
	C374.092529,570.510254 353.866333,574.127258 334.131134,581.450562 
	C327.390259,583.951965 320.839905,586.983582 314.042603,589.304565 
	C312.290558,589.902771 309.493927,589.333740 307.956573,588.222473 
	C305.686554,586.581665 305.419342,583.807434 307.261963,581.359558 
	C311.650482,575.529480 315.539551,569.183838 320.650330,564.064697 
	C333.182648,551.511658 346.215698,539.452942 359.190277,527.348633 
	C370.907410,516.417419 382.649597,505.502289 394.681580,494.922211 
	C407.821777,483.367615 420.905151,471.680786 434.778931,461.050903 
	C444.665802,453.475739 456.469971,449.385651 469.059204,447.953918 
	C477.442108,447.000610 485.861877,446.026825 494.110382,444.316101 
	C506.708984,441.703064 514.369568,432.443604 520.885925,422.339996 
	C530.677368,407.158295 537.450745,390.454590 543.671814,373.603180 
	C553.096069,348.075043 561.428345,322.134521 571.235657,296.760010 
	C579.256592,276.007477 589.668213,256.465424 604.114014,239.118317 
	C614.908691,226.155731 626.788940,214.529648 640.175598,204.429108 
	C649.581055,197.332474 659.091919,190.282730 669.109741,184.111389 
	C685.523010,174.000244 703.114075,174.334335 721.165344,179.523041 
	C742.567505,185.674911 762.889832,194.275803 782.006775,205.599487 
	C794.270630,212.863815 805.258301,221.800110 815.520935,231.820389 
	C830.287354,246.237991 841.865173,262.986237 851.168152,281.042755 
	C860.676270,299.497314 869.348511,318.578369 876.221313,338.145721 
	C884.922729,362.919189 891.690979,388.390167 898.732849,413.716064 
	C900.691406,420.760162 900.667480,428.355530 901.553040,435.697968 
	C900.847473,435.860535 900.141968,436.023102 899.436401,436.185638 
	C898.028625,431.976074 896.506531,427.800751 895.233398,423.550842 
	C890.446533,407.571472 885.822266,391.543121 880.986877,375.578644 
	C871.902588,345.585510 861.161560,316.237000 846.167786,288.615143 
	C837.349426,272.369812 827.451721,256.941620 814.882996,243.148361 
	C799.994141,226.808807 782.403259,214.219940 762.833130,204.673035 
	C748.636230,197.747269 733.507019,192.635010 718.548889,187.415039 
	C712.525635,185.313080 705.887146,184.655273 699.462585,184.086716 
	C684.986328,182.805573 673.143127,189.818863 662.039246,197.676468 
	C651.697327,204.994904 641.591125,212.825256 632.340698,221.458450 
	C622.557983,230.588516 613.102844,240.313232 604.961365,250.898621 
	C594.081421,265.044495 586.068115,281.033386 580.020691,297.914062 
	C568.946594,328.826141 558.284119,359.896088 546.573853,390.565704 
	C540.346252,406.876068 532.723389,422.764709 521.722656,436.592316 
	C513.810852,446.537354 503.162109,451.933014 490.640259,454.054871 
	C478.404572,456.128265 465.931702,457.648529 454.162781,461.329498 
	C446.436218,463.746124 439.031647,468.696686 432.778076,474.030945 
	C415.385101,488.866913 398.674927,504.503052 381.681946,519.808533 
	C371.906647,528.613037 362.092865,537.374817 352.320984,546.183044 
	C345.106018,552.686462 337.819489,559.117371 330.795349,565.822083 
	C328.170959,568.327209 326.199860,571.516663 324.229675,574.015259 
	C336.383209,570.892273 348.502167,567.359131 360.813629,564.726318 
	C374.618927,561.774048 388.718384,561.869629 402.543610,564.367859 
	C420.886047,567.682312 437.316223,575.805481 451.808624,587.433594 
	C469.242676,601.421875 482.336090,618.683350 490.087158,639.904114 
	C495.242462,654.018127 497.295776,668.626953 499.124451,683.424744 
	C501.786346,704.964661 501.915802,726.926208 509.016571,747.790283 
	C514.661804,764.377625 524.189392,778.215454 538.305969,788.713928 
	C554.395996,800.679932 572.364014,808.408569 592.394165,809.817566 
	C606.158264,810.785706 620.045532,810.002808 633.877747,810.002197 
	C640.694519,810.001892 647.513062,809.897888 654.327698,810.018127 
	C681.144775,810.491333 707.482727,808.586060 732.187195,796.522583 
	C738.174866,793.598755 744.782227,791.820923 751.245544,790.022522 
	C761.703796,787.112488 771.521851,789.559814 780.498718,795.097900 
	C794.971008,804.026123 804.563232,817.610962 814.029236,831.253967 
	C814.394836,831.781006 814.840210,832.252686 815.248413,832.750183 
	C815.641357,832.522400 816.034363,832.294617 816.427307,832.066895 
	C814.335205,828.263000 812.551514,824.245056 810.089783,820.697693 
	C804.100220,812.066711 797.655151,803.752075 791.660034,795.124756 
	C786.289795,787.396729 788.998230,779.920654 798.107971,779.225098 
	C810.025757,778.315002 822.149170,778.266663 833.131165,784.588440 
	C841.764587,789.558228 849.066772,795.889893 852.964722,805.261108 
	C856.892395,814.703857 860.330078,824.349792 864.041687,833.883606 
	C864.730408,835.652588 865.700195,837.312073 866.918091,839.791443 
	C867.455505,838.366821 867.733887,837.615234 868.021851,836.867371 
	C871.293396,828.372803 879.147644,824.872131 888.305542,827.756042 
	C891.974731,828.911621 895.653259,830.073486 899.390747,830.968262 
	C907.302429,832.862305 914.434570,829.271484 921.874451,827.656555 
	C930.222900,825.844360 938.666382,823.439270 947.093201,823.337402 
	C954.121582,823.252441 961.254333,825.881287 968.182495,827.862183 
	C969.785950,828.320557 971.920959,831.205933 971.708679,832.669556 
	C971.428528,834.601379 969.422913,837.089661 967.553711,837.849304 
	C957.783142,841.820190 947.552612,844.741516 938.012817,849.171082 
	C930.799500,852.520447 924.320984,857.492004 917.624756,861.907532 
	C899.877808,873.609863 882.241638,885.480591 864.463440,897.134949 
	C849.001282,907.270935 833.405334,917.202759 817.889221,927.211548 
	C829.023560,940.787659 836.041199,957.405090 837.872009,975.903076 
	C839.201416,989.335144 840.211243,1002.919739 839.689148,1016.371277 
	C839.345703,1025.218872 835.959961,1033.937256 834.064087,1042.740967 
	C833.215210,1046.682983 832.245361,1050.690552 832.230591,1054.671753 
	C832.225220,1056.109131 834.800293,1058.740845 836.285461,1058.805054 
	C845.262634,1059.194092 854.464844,1060.189941 863.214050,1058.725708 
	C877.452637,1056.343018 891.682861,1053.094482 905.408447,1048.644043 
	C929.012390,1040.990601 952.054504,1031.604858 975.658020,1023.949951 
	C993.496521,1018.164734 1011.693054,1013.253906 1030.018555,1009.285522 
	C1041.130249,1006.879272 1052.817139,1007.237366 1064.198242,1005.938232 
	C1076.450928,1004.539673 1088.985474,1003.892578 1100.785156,1000.674072 
	C1115.906494,996.549622 1127.420410,986.758972 1135.133179,972.627075 
	C1140.309692,963.141968 1142.713989,953.205200 1143.024902,942.534607 
	C1143.796265,916.071838 1136.498047,891.522949 1123.936035,868.724182 
	C1116.967041,856.076111 1107.727295,844.659424 1099.291260,832.844666 
	C1089.325073,818.886780 1079.272583,804.985168 1068.980835,791.266663 
	C1057.559814,776.043152 1045.097534,761.842407 1029.386475,750.689880 
	C1013.679749,739.540405 998.153503,728.111206 982.938110,716.302063 
	C968.232971,704.889038 953.608582,693.301514 939.738831,680.906494 
	C929.798950,672.023438 922.377197,660.801758 915.979004,649.017944 
	C910.763367,639.411926 905.491821,629.830078 899.949585,620.411377 
	C898.319763,617.641541 896.015991,614.965515 893.381287,613.202759 
	C891.789734,612.137878 888.563599,612.122803 886.785828,613.031921 
	C883.519165,614.702515 880.563965,617.174683 877.859741,619.717651 
	C868.679565,628.350586 859.894165,637.414368 850.529663,645.837402 
	C839.311707,655.927673 827.661011,665.537231 816.183472,675.338379 
	C809.466553,681.074219 802.871155,686.965759 795.955383,692.452209 
	C785.026978,701.121765 774.078552,709.791748 762.767944,717.947510 
	C747.810303,728.733154 730.826172,735.863831 712.846558,738.599365 
	C696.620728,741.068115 679.842407,741.550293 663.423584,740.692017 
	C642.455566,739.596008 621.590576,736.255127 601.666748,728.973389 
	C586.191345,723.317322 571.386353,716.280823 558.430054,705.900574 
	C550.537170,699.576965 542.116577,693.695557 535.201599,686.411255 
	C518.875305,669.213074 505.134857,650.114258 496.870209,627.558350 
	C490.258698,609.514221 482.938721,591.694153 477.180786,573.382324 
	C470.734253,552.880493 465.543976,531.975098 460.191650,511.146454 
	C459.334778,507.811890 458.655518,503.165955 463.065857,501.119385 
	C466.615967,499.471985 470.753479,502.198395 472.994720,506.975372 
	C483.835114,530.080078 491.653564,554.319031 500.122070,578.332886 
	C505.442902,593.421082 511.742706,608.184753 518.133118,622.863403 
	C520.285278,627.806824 523.804321,632.247192 527.171204,636.547424 
	C531.810791,642.473267 537.061523,643.063416 541.945862,637.298279 
	C548.190735,629.927307 553.492065,621.738831 558.995850,613.761719 
	C571.547241,595.569824 583.724487,577.114380 596.535706,559.108948 
	C605.745361,546.165283 615.167297,533.288147 625.517639,521.261902 
	C638.542480,506.128204 651.908081,491.148987 666.402344,477.453247 
	C685.395081,459.506805 706.959473,444.739166 730.813721,433.840942 
	C741.253052,429.071533 752.366638,425.735687 763.277893,422.056793 
	C770.250671,419.705872 777.323059,417.486145 784.513123,415.984314 
	C794.322449,413.935394 804.274414,412.548340 814.188599,411.030548 
	C819.663818,410.192322 825.194641,409.071136 830.686340,409.143707 
	C838.355164,409.245026 846.204834,409.507874 853.622009,411.230530 
	C862.449768,413.280762 871.121277,416.441071 879.461975,420.043182 
	C890.661011,424.879761 897.873352,433.898102 901.973633,445.241272 
	C904.853271,453.207642 907.497620,461.291321 909.603943,469.487854 
	C910.365234,472.450348 910.288208,476.530426 908.777893,478.981689 
	C905.872681,483.696991 908.993408,487.605957 909.074585,491.842590 
	C909.216064,499.229187 910.229736,506.634552 909.886169,513.985718 
	C909.477600,522.728699 908.904846,531.640686 906.817383,540.087524 
	C903.597412,553.117310 899.430603,565.957764 894.895386,578.602356 
	C891.788818,587.263489 887.373962,595.455383 883.563538,603.814209 
	C895.172424,602.050720 901.921875,605.262146 907.960449,615.793518 
	C914.750488,627.635437 921.226868,639.659180 928.130127,651.433533 
	C934.758972,662.739685 943.392822,672.320740 953.793274,680.395081 
	C967.158691,690.771118 980.171875,701.601562 993.560730,711.946594 
	C1002.127014,718.565430 1011.117981,724.632874 1019.883057,730.996582 
	C1035.002808,741.973999 1050.408203,752.782288 1062.452637,767.190857 
	C1073.487183,780.391357 1083.347534,794.572510 1093.743896,808.307556 
	C1102.059570,819.293884 1110.972534,829.881226 1118.575684,841.338928 
	C1126.369995,853.084595 1133.764526,865.267639 1139.702271,878.019165 
	C1144.527588,888.381897 1147.585693,899.712463 1150.284668,910.889832 
	C1155.619629,932.983276 1156.339478,955.240051 1145.336182,975.906982 
	C1136.808838,991.923462 1124.228638,1003.861633 1105.932617,1009.189026 
	C1091.973022,1013.253723 1077.817261,1014.130371 1063.503296,1015.157898 
	C1051.037598,1016.052673 1038.653076,1018.193359 1026.261719,1019.983948 
	C1003.544189,1023.266479 982.121704,1031.146240 960.628906,1038.748779 
	C944.636108,1044.405640 928.788940,1050.526489 912.611572,1055.593750 
	C898.528503,1060.005005 884.236877,1064.178345 869.730530,1066.671509 
	C858.705017,1068.566284 847.157227,1068.372070 835.920288,1067.731079 
	C829.151855,1067.345093 822.489746,1062.511719 822.983887,1053.514771 
	C823.093323,1051.521729 823.000000,1049.517578 822.718994,1047.185303 
	C818.743103,1056.392212 809.985901,1058.522461 802.307861,1062.948364 
	C794.119446,1067.668701 785.920837,1071.910156 777.004395,1074.317505 
	C765.193359,1077.506470 753.026001,1079.350830 741.069824,1082.031860 
	C716.895142,1087.452881 692.556824,1092.820923 672.390869,1108.367920 
	C659.236877,1118.508911 652.203552,1132.343384 649.815186,1149.018433 
	C647.767151,1163.317139 649.325073,1178.087646 644.157288,1192.002808 
	C643.518799,1193.722168 644.805420,1196.096924 644.977783,1198.186279 
	C646.182373,1212.790771 647.811890,1227.381592 648.370056,1242.012573 
	C649.055725,1259.986572 648.629883,1278.000122 649.060791,1295.987549 
	C649.436340,1311.666016 649.829773,1327.374512 651.140015,1342.992065 
	C652.527527,1359.532104 654.316711,1376.101929 657.194214,1392.436157 
	C660.346680,1410.332031 664.967896,1427.968262 668.904419,1445.727539 
	C672.693115,1462.819580 676.424622,1479.924561 680.357056,1497.824219 
	C685.482666,1494.940796 690.106018,1492.485840 694.584656,1489.790527 
	C704.235413,1483.982178 713.985046,1478.312378 723.376221,1472.104858 
	C735.915527,1463.816162 745.840515,1452.803955 755.088501,1441.008545 
	C765.773132,1427.380737 777.270203,1414.462891 791.233093,1403.931152 
	C802.651794,1395.318481 814.253357,1386.844604 824.862671,1377.296753 
	C832.644104,1370.294189 838.559082,1361.367798 842.237793,1351.323853 
	C845.855042,1341.447754 849.396179,1331.538574 852.680786,1321.548706 
	C853.631165,1318.657959 853.840698,1315.448120 853.949036,1312.369141 
	C854.523804,1296.032104 853.760010,1279.764282 851.283936,1263.580444 
	C850.030945,1255.390991 849.024536,1247.161865 848.016541,1238.937134 
	C846.947266,1230.211792 845.676636,1221.490845 845.135132,1212.728394 
	C844.803528,1207.363647 845.344788,1201.878784 846.077637,1196.527832 
	C847.787659,1184.042358 851.170959,1171.935059 857.099182,1160.807129 
	C866.549255,1143.068848 877.992676,1126.720703 892.656982,1112.773682 
	C895.254944,1110.302856 898.104187,1109.845825 900.753296,1111.492920 
	C903.221558,1113.027344 904.479309,1115.619751 903.067017,1118.936646 
	C900.123657,1125.849487 897.523682,1132.908325 894.596497,1139.828491 
	C887.695068,1156.143555 882.409180,1172.962036 879.039062,1190.341309 
	C875.554016,1208.313110 873.203247,1226.426514 872.965942,1244.783081 
	C872.805115,1257.222656 872.009521,1269.659424 872.061829,1282.095215 
	C872.239197,1324.280762 872.685730,1366.465088 872.987732,1408.650269 
	C873.068481,1419.937012 873.247620,1431.231689 872.933228,1442.510254 
	C872.589661,1454.834961 871.690063,1467.143433 871.101318,1479.462280 
	C870.676208,1488.357178 870.667786,1497.283081 869.926453,1506.149414 
	C868.892639,1518.513916 867.302734,1530.831055 866.039612,1543.177490 
	C865.273132,1550.669434 864.744019,1558.185547 863.984253,1565.678223 
	C862.716248,1578.182373 861.195984,1590.662598 860.081055,1603.179688 
	C859.423401,1610.563232 859.177490,1617.994751 859.031555,1625.410278 
	C858.610229,1646.827637 858.074463,1668.247803 858.073181,1689.666870 
	C858.071899,1710.891357 858.707275,1732.115234 858.980774,1753.340454 
	C859.096252,1762.303955 859.148193,1771.273071 858.967590,1780.234497 
	C858.644226,1796.278809 855.120667,1811.658813 847.509155,1825.791138 
	C841.885742,1836.232178 835.431580,1846.234985 829.142517,1856.305054 
	C824.934021,1863.043945 824.775269,1863.349365 830.474426,1868.960327 
	C840.375244,1878.707886 845.344910,1890.744141 844.778625,1904.375244 
	C844.378601,1914.004639 841.852112,1923.538940 840.389648,1933.133301 
	C839.482361,1939.085693 838.717651,1945.062378 838.023560,1951.043701 
	C837.502441,1955.534668 839.776123,1958.354370 843.237915,1961.189209 
	C848.216797,1965.266602 852.938171,1969.880737 856.867859,1974.963013 
	C862.266907,1981.945435 863.681580,1990.617188 863.871216,1999.171021 
	C864.090881,2009.077881 863.246033,2019.004517 863.029968,2028.926147 
	C862.879700,2035.825684 864.066467,2037.180786 870.885376,2039.019897 
	C883.425476,2042.401978 895.872620,2046.190918 908.526123,2049.074951 
	C924.715149,2052.764648 940.988037,2056.241943 957.377563,2058.851074 
	C972.342346,2061.232910 987.474426,2062.930176 1002.598511,2063.855225 
	C1023.067017,2065.107422 1043.614014,2066.112305 1064.096436,2065.697998 
	C1075.765259,2065.461914 1087.597290,2064.226074 1099.031372,2060.219482 
	C1110.620483,2056.158203 1117.880493,2045.395142 1118.716919,2033.157471 
	C1119.900879,2015.835693 1113.090088,2001.421387 1102.773315,1988.469849 
	C1095.106689,1978.844971 1086.174683,1970.234985 1078.370239,1960.710938 
	C1070.879517,1951.570068 1064.027222,1941.897949 1057.051514,1932.344849 
	C1046.759033,1918.249756 1036.986084,1903.757080 1026.271484,1889.994629 
	C1017.825867,1879.146851 1008.180359,1869.239624 999.362122,1858.669189 
	C998.001160,1857.037964 997.458191,1853.939087 997.876038,1851.777832 
	C998.666626,1847.688721 1002.531799,1847.075195 1005.937561,1847.063721 
	C1018.807556,1847.020264 1030.337402,1842.915649 1040.964478,1835.963501 
	C1042.733398,1834.806030 1044.269775,1833.241577 1045.754517,1831.711060 
	C1049.711914,1827.631714 1047.213745,1823.815063 1043.589233,1823.425903 
	C1034.618896,1822.462402 1025.481201,1821.790283 1016.510986,1822.422729 
	C1006.200684,1823.149902 995.967102,1825.231689 985.757996,1827.050049 
	C975.916870,1828.802734 966.142395,1830.935425 956.351685,1832.963745 
	C943.573914,1835.610840 930.795898,1838.259277 918.042725,1841.021362 
	C908.759155,1843.032104 899.526123,1845.274536 890.251831,1847.329102 
	C877.041443,1850.255615 863.861450,1853.366455 850.556580,1855.782227 
	C847.637451,1856.312256 843.317688,1855.183594 841.295715,1853.164062 
	C838.349609,1850.221313 840.107361,1846.351562 845.569946,1844.004883 
	C858.952759,1838.255493 872.246765,1832.059570 886.097595,1827.697754 
	C905.221497,1821.675049 924.700073,1816.619141 944.269531,1812.232300 
	C955.498535,1809.714844 967.179260,1808.968262 978.707275,1808.085571 
	C996.103210,1806.753662 1013.550415,1806.105347 1030.962036,1804.957886 
	C1040.337280,1804.340088 1049.663940,1803.915649 1058.694702,1807.058594 
	C1061.977295,1808.201050 1065.065063,1809.903076 1069.475830,1811.911865 
	C1068.932495,1804.136841 1068.118652,1797.477417 1068.088623,1790.814453 
	C1068.049927,1782.250732 1068.767700,1773.686646 1068.925049,1765.118408 
	C1069.092773,1755.997925 1068.910278,1746.871582 1069.014771,1737.749268 
	C1069.305908,1712.362427 1069.740845,1686.977173 1069.983276,1661.589966 
	C1070.378662,1620.171753 1070.798096,1578.752808 1070.935913,1537.333252 
	C1070.991577,1520.582153 1070.378784,1503.827637 1069.983154,1487.076660 
	C1069.740723,1476.814575 1069.379272,1466.554443 1068.989380,1456.296509 
	C1068.361938,1439.782471 1067.656250,1423.271362 1067.002808,1406.758301 
	C1066.323242,1389.587402 1065.681641,1372.415161 1064.995483,1355.244507 
	C1064.349487,1339.076782 1063.599487,1322.912842 1063.021851,1306.742676 
	C1062.578857,1294.338257 1062.228516,1281.928345 1062.022217,1269.517944 
	C1061.613647,1244.926147 1061.097534,1220.332642 1061.075195,1195.739258 
	C1061.057495,1176.315308 1061.736938,1156.891113 1062.061157,1137.466309 
	C1062.402344,1117.038330 1063.392334,1096.585815 1062.709106,1076.190674 
	C1062.357300,1065.690552 1059.634888,1055.110596 1056.792603,1044.898193 
	C1053.966064,1034.742310 1044.472534,1030.696533 1033.251709,1032.870605 
	C1021.338257,1035.178711 1009.277344,1036.730347 997.373169,1039.080078 
	C988.074158,1040.915649 978.902344,1043.410645 969.700317,1045.717529 
	C962.550964,1047.509888 955.442200,1049.463989 948.169434,1051.384766 
	C946.915466,1047.146606 951.018494,1046.073364 953.485657,1045.111694 
	C963.764160,1041.105347 974.104248,1037.096924 984.715454,1034.145142 
	C997.570618,1030.569092 1010.624573,1027.458862 1023.782715,1025.314453 
	C1031.558472,1024.047363 1039.923584,1023.855591 1047.626465,1025.299438 
	C1058.233521,1027.287598 1063.870361,1035.944702 1066.851074,1045.606934 
	C1070.302979,1056.795898 1072.129028,1068.344360 1072.092529,1080.206787 
	C1072.045532,1095.458008 1072.932251,1110.711182 1072.926880,1125.963379 
	C1072.921387,1141.858521 1072.221069,1157.751953 1072.023438,1173.648560 
	C1071.612671,1206.695068 1071.153931,1239.743164 1071.106079,1272.791016 
	C1071.091187,1283.113770 1072.354736,1293.437012 1072.978271,1303.763306 
	C1073.109009,1305.929321 1072.943237,1308.111572 1073.008423,1310.283447 
	C1073.321167,1320.703125 1073.635498,1331.123047 1074.006958,1341.540771 
	C1074.649048,1359.546631 1075.283813,1377.552979 1076.016602,1395.555298 
	C1076.604614,1409.997559 1077.393555,1424.431763 1077.979858,1438.874146 
	C1078.415161,1449.595581 1078.651489,1460.325195 1079.008179,1471.050049 
	C1079.315430,1480.282471 1079.711670,1489.512207 1079.990356,1498.745483 
	C1080.477295,1514.884033 1081.119629,1531.021729 1081.310913,1547.164307 
	C1081.682007,1578.476318 1082.130127,1609.793945 1081.903564,1641.104614 
	C1081.675171,1672.664429 1080.587402,1704.217163 1080.024902,1735.775757 
	C1079.568848,1761.359253 1079.294800,1786.946289 1079.044067,1812.532837 
	C1079.008911,1816.115967 1078.986206,1819.669800 1075.597412,1821.691162 
	C1071.702759,1824.014282 1067.870728,1822.531250 1064.180664,1820.667847 
	C1060.332153,1818.724243 1056.488159,1816.761963 1052.557983,1814.995117 
	C1050.993042,1814.291626 1049.202637,1814.090210 1046.433594,1813.384888 
	C1050.218140,1816.701294 1053.619995,1818.803711 1055.808472,1821.794189 
	C1059.648193,1827.041138 1058.285034,1832.669312 1053.144409,1838.396729 
	C1047.218262,1844.999634 1039.667603,1849.025391 1031.554443,1851.877441 
	C1025.992310,1853.832764 1020.029846,1854.638672 1014.268555,1856.049438 
	C1013.422485,1856.256592 1012.700073,1856.968262 1011.671814,1857.598999 
	C1016.158875,1862.632446 1020.620422,1867.209106 1024.593018,1872.177002 
	C1034.841309,1884.992920 1045.224609,1897.724854 1054.906250,1910.964233 
	C1068.323853,1929.312256 1080.425049,1948.576660 1096.349487,1965.086304 
	C1107.252686,1976.390015 1117.483032,1988.508789 1123.673218,2003.289551 
	C1130.617065,2019.870117 1131.530884,2036.744263 1123.826538,2053.220703 
	C1118.743896,2064.090576 1108.530273,2069.155029 1097.482544,2071.846924 
	C1089.026367,2073.907227 1080.264404,2074.753174 1071.611084,2075.939941 
	C1068.980591,2076.300537 1066.259155,2075.999756 1063.579346,2075.999756 
	C1048.271973,2076.000244 1032.953247,2076.361084 1017.661377,2075.873535 
	C1007.386475,2075.545898 997.155762,2073.948242 986.892578,2073.067383 
	C983.767029,2072.799072 980.598999,2073.025879 977.369812,2073.988281 
	C986.181091,2074.992676 995.094116,2075.462646 1003.781982,2077.115479 
	C1020.452942,2080.287109 1037.277222,2080.699463 1054.040405,2079.792480 
	C1067.973022,2079.038330 1081.827026,2076.603760 1095.678833,2074.652100 
	C1107.699829,2072.958252 1119.681885,2070.974854 1131.657715,2068.979492 
	C1146.881348,2066.443115 1160.592651,2070.607910 1172.873413,2079.138916 
	C1179.968018,2084.067383 1186.005737,2090.499756 1192.646118,2096.104980 
	C1199.994995,2102.308838 1206.978394,2109.172119 1215.097168,2114.158936 
	C1220.583130,2117.528320 1227.652832,2118.916504 1234.202271,2119.806885 
	C1242.500000,2120.934814 1250.990723,2120.979736 1259.394531,2120.924805 
	C1279.288940,2120.794434 1299.185547,2120.485840 1319.073120,2119.949707 
	C1334.418335,2119.536133 1349.759766,2118.820068 1365.086914,2117.954834 
	C1379.021851,2117.168457 1392.938843,2116.045166 1406.857056,2114.984863 
	C1419.123535,2114.050537 1431.373291,2112.888184 1443.644531,2112.031006 
	C1455.304688,2111.216309 1466.996582,2110.843018 1478.651611,2109.968506 
	C1522.527466,2106.677002 1566.472778,2108.451660 1610.387085,2108.014404 
	C1620.278320,2107.916016 1630.171265,2108.000000 1640.531738,2108.000000 
	C1641.000000,2111.030518 1641.000000,2114.061279 1641.000000,2117.545898 
M725.605530,2102.002441 
	C726.431335,2101.992188 727.296021,2102.140137 728.077271,2101.948486 
	C746.699951,2097.375977 764.342529,2090.109375 781.495422,2081.733398 
	C792.726257,2076.249268 803.863953,2070.404053 814.386475,2063.690918 
	C823.656494,2057.777100 832.312317,2050.781738 840.683228,2043.614380 
	C847.577209,2037.711304 850.262146,2029.135986 849.802124,2020.436523 
	C849.122192,2007.577148 842.860596,1997.034546 832.785645,1989.031250 
	C826.327942,1983.901489 819.182068,1979.609253 812.924194,1974.263184 
	C803.871765,1966.529907 794.658936,1958.787231 786.815735,1949.900146 
	C780.833984,1943.122314 776.115845,1934.920654 772.210510,1926.699341 
	C767.695312,1917.194092 764.722473,1906.959717 761.013672,1897.066772 
	C757.988525,1888.997070 750.776428,1883.402222 742.425659,1884.168457 
	C733.457520,1884.991455 724.348328,1886.281372 715.773132,1888.909424 
	C703.260376,1892.744141 691.121033,1897.831787 678.910889,1902.610962 
	C663.554382,1908.621826 648.313171,1914.926636 632.972351,1920.978394 
	C621.963379,1925.321289 610.944458,1929.659546 599.792419,1933.611816 
	C592.867065,1936.066284 587.721497,1932.608521 589.157227,1926.708252 
	C589.759033,1924.235352 591.637207,1921.668091 593.651428,1920.018311 
	C600.421265,1914.472900 607.346008,1909.081909 614.514404,1904.064697 
	C634.418457,1890.133545 656.122925,1880.021729 679.627441,1873.698364 
	C699.967712,1868.226074 720.768616,1865.367065 741.472717,1861.835327 
	C752.447205,1859.963257 757.732178,1858.424561 753.971375,1844.448364 
	C749.388855,1827.418579 744.063599,1810.590210 739.267151,1793.615967 
	C734.379456,1776.318726 729.408691,1759.033203 725.087708,1741.590698 
	C720.327332,1722.374634 716.234070,1702.992798 711.907104,1683.670410 
	C707.227539,1662.773193 702.601013,1641.864014 697.974731,1620.954834 
	C693.624817,1601.294800 689.389526,1581.609009 684.952271,1561.968750 
	C678.674255,1534.181274 672.197754,1506.438599 665.917480,1478.651611 
	C660.521179,1454.775513 654.971741,1430.927368 650.081238,1406.946167 
	C646.847534,1391.089844 644.060486,1375.090576 642.174255,1359.026001 
	C640.374451,1343.697021 639.704163,1328.212402 639.079712,1312.774414 
	C638.395874,1295.870239 638.379333,1278.939697 637.982849,1262.022827 
	C637.742554,1251.768677 637.581543,1241.502686 636.933044,1231.270752 
	C636.229431,1220.169922 635.257629,1209.071899 633.938599,1198.028076 
	C632.185425,1183.349121 629.817444,1168.744141 628.023926,1154.069458 
	C626.459290,1141.266724 625.063293,1128.431763 624.073120,1115.573975 
	C623.074341,1102.603027 622.963013,1089.562622 621.912842,1076.597168 
	C620.959778,1064.830933 614.262268,1056.893311 603.247803,1053.080200 
	C594.477600,1050.044189 585.473450,1047.651001 576.498718,1045.250732 
	C571.373901,1043.880127 565.825989,1041.482910 560.949402,1042.326782 
	C550.247681,1044.178223 539.783569,1042.729248 529.743835,1040.597168 
	C506.175934,1035.591919 482.975067,1028.884521 459.527405,1023.276794 
	C444.658417,1019.720703 429.745575,1015.581238 414.213440,1017.109436 
	C408.672516,1017.654602 403.098236,1018.992798 397.814941,1020.782898 
	C387.690826,1024.213379 381.977783,1033.064209 375.193420,1040.491333 
	C363.238312,1053.579224 351.518158,1066.882446 339.510193,1079.921143 
	C331.487000,1088.632812 322.417114,1096.472900 315.091827,1105.714478 
	C302.537384,1121.553345 290.799927,1138.054199 279.055389,1154.516846 
	C265.836853,1173.045532 253.041306,1191.875366 239.958664,1210.501953 
	C233.917130,1219.103638 227.768692,1227.640503 221.321518,1235.937012 
	C220.228287,1237.343872 217.109558,1238.319214 215.395737,1237.834839 
	C212.797760,1237.100342 212.615433,1234.737671 213.896210,1232.008423 
	C216.820496,1225.776489 219.275909,1219.326050 221.985748,1212.991821 
	C229.861465,1194.582153 237.151123,1175.887573 245.850479,1157.874634 
	C253.388458,1142.266479 262.381989,1127.346924 271.020844,1112.288574 
	C279.576630,1097.375000 288.864624,1082.817383 301.093353,1070.669556 
	C311.079132,1060.749756 322.010956,1051.744629 332.868805,1042.750977 
	C343.246460,1034.155273 353.783539,1025.693237 364.774261,1017.912170 
	C376.839844,1009.370117 389.649109,1001.833191 404.262238,998.450073 
	C411.569672,996.758240 419.138336,996.194763 426.016937,995.203308 
	C415.052032,986.266968 403.572235,977.145142 392.367767,967.696777 
	C384.917755,961.414551 377.698456,954.834656 370.680573,948.071777 
	C365.184753,942.775635 360.331177,936.816650 354.887482,931.462036 
	C338.976257,915.811279 324.816803,898.764771 312.544983,880.105408 
	C301.813843,863.788513 295.010864,845.757324 290.194061,827.098083 
	C285.926880,810.567993 282.997681,793.666382 280.053192,776.828186 
	C277.007965,759.413818 274.022675,741.943604 272.206940,724.374268 
	C270.831329,711.063477 271.328064,697.558716 271.006195,684.139954 
	C270.961304,682.268372 271.000000,680.394836 271.000000,678.522217 
	C269.529724,681.001282 268.562012,683.511841 268.031799,686.111755 
	C264.293121,704.443665 260.282043,722.730896 257.075409,741.157227 
	C254.235794,757.474426 251.921585,773.909424 250.133026,790.374634 
	C248.796738,802.676270 248.184387,815.106140 248.113571,827.483887 
	C248.008362,845.872498 248.625092,864.266296 249.014282,882.656250 
	C249.270248,894.750793 249.990067,906.843750 249.934708,918.934875 
	C249.807663,946.686951 249.574875,974.443420 248.881256,1002.185486 
	C248.603806,1013.282349 247.577255,1024.437012 245.849945,1035.401123 
	C243.820175,1048.285400 241.137039,1061.114380 237.885391,1073.748169 
	C231.477890,1098.643311 221.350998,1122.224854 211.679382,1145.981323 
	C206.016190,1159.891846 201.136673,1174.189697 196.979889,1188.623047 
	C193.778259,1199.739868 191.906387,1211.283936 190.070007,1222.738525 
	C187.817169,1236.790771 186.758255,1250.858643 187.734787,1265.248169 
	C188.844803,1281.604492 193.209915,1297.065308 197.297119,1312.691650 
	C200.182739,1323.723877 203.328491,1334.693848 205.945572,1345.788940 
	C209.644150,1361.468994 212.534607,1377.348999 216.549530,1392.942871 
	C221.719208,1413.021851 230.032120,1432.008423 240.161438,1450.001343 
	C251.258118,1469.712646 263.744995,1488.551514 280.561310,1504.155884 
	C295.508240,1518.025757 312.916840,1525.743164 333.236359,1527.004395 
	C343.575531,1527.645874 353.903137,1528.621216 364.251495,1528.935913 
	C383.126740,1529.510010 402.012543,1529.786865 420.895966,1530.027344 
	C432.375610,1530.173584 443.862488,1530.169312 455.338623,1529.905884 
	C458.649017,1529.829956 462.045563,1528.942261 465.199860,1527.844116 
	C468.744812,1526.610352 469.648346,1522.081787 467.689026,1515.359985 
	C462.932831,1499.042725 457.929169,1482.797607 453.161377,1466.483765 
	C449.337738,1453.400146 445.307037,1440.356567 442.101746,1427.117798 
	C437.819427,1409.430420 434.233551,1391.574219 430.373962,1373.785034 
	C428.222229,1363.867432 426.158600,1353.930542 423.989105,1344.016968 
	C421.373657,1332.065186 419.508881,1319.870483 415.851807,1308.242432 
	C409.416992,1287.782349 401.387756,1267.822754 394.992889,1247.351562 
	C391.897919,1237.444092 389.291687,1226.816528 389.504822,1216.578125 
	C389.813110,1201.764526 397.471527,1188.981201 406.285095,1177.259155 
	C416.422821,1163.776245 426.727539,1150.418457 437.006531,1137.042358 
	C442.351105,1130.087402 447.734924,1123.160400 453.231201,1116.325562 
	C455.030731,1114.087891 457.410187,1113.457520 459.923309,1115.465698 
	C462.339478,1117.396240 462.925537,1119.663452 461.150848,1122.363770 
	C460.712738,1123.030396 460.429138,1123.798340 459.992950,1124.466431 
	C454.004608,1133.636353 447.571045,1142.547485 442.095001,1152.013062 
	C431.565094,1170.214111 421.230865,1188.548096 411.516388,1207.192139 
	C407.078278,1215.709961 405.927795,1224.923462 409.141907,1234.775024 
	C414.014465,1249.710083 418.259399,1264.895752 421.849701,1280.191162 
	C426.159363,1298.551147 428.727966,1317.338379 433.447144,1335.579224 
	C440.313690,1362.120483 448.491394,1388.320801 455.983795,1414.702393 
	C459.798309,1428.133789 463.379181,1441.632202 466.990295,1455.120483 
	C471.688751,1472.670166 475.547272,1490.488770 481.158966,1507.738892 
	C488.387360,1529.958618 497.413574,1551.588135 504.897980,1573.731201 
	C513.571472,1599.392456 521.776123,1625.227051 529.500000,1651.189819 
	C535.793457,1672.344482 539.697571,1694.078125 540.896667,1716.144409 
	C541.760132,1732.034058 541.225159,1748.001465 542.157532,1763.884766 
	C542.764221,1774.220337 543.895813,1784.730103 546.545105,1794.695801 
	C551.269958,1812.468872 557.642944,1829.797485 562.698120,1847.491455 
	C565.744995,1858.156128 567.894836,1869.106079 569.917297,1880.026123 
	C571.953796,1891.021851 573.016724,1902.199097 575.096558,1913.185181 
	C576.914429,1922.787964 579.135620,1932.391113 584.970337,1940.607788 
	C587.960571,1944.818726 591.036804,1948.968994 594.010864,1953.191162 
	C602.603271,1965.390015 604.170898,1979.614624 604.850586,1993.815308 
	C605.469482,2006.745361 605.900757,2019.623047 608.999695,2032.256714 
	C613.955872,2052.462402 622.055298,2071.290527 636.917358,2086.081055 
	C647.674438,2096.786621 661.737488,2102.306152 676.810120,2103.841553 
	C687.974060,2104.979004 699.289978,2104.992188 710.529541,2104.845703 
	C715.275513,2104.783936 719.999390,2103.025391 725.605530,2102.002441 
M848.000122,1780.663086 
	C848.333435,1777.079224 848.992615,1773.490723 848.941467,1769.912354 
	C848.756958,1756.994629 848.272522,1744.081665 848.015015,1731.164673 
	C847.672180,1713.970703 847.418884,1696.774902 847.161804,1679.579468 
	C847.060059,1672.772949 846.794922,1665.955200 847.056946,1659.160034 
	C847.522644,1647.084351 848.298218,1635.020020 849.010620,1622.954834 
	C849.625244,1612.545044 850.119141,1602.121582 851.047607,1591.738281 
	C852.531860,1575.140991 854.379211,1558.576538 855.984070,1541.989624 
	C857.386230,1527.497681 858.942322,1513.012573 859.922729,1498.490234 
	C860.934387,1483.505127 861.627136,1468.484985 861.935730,1453.469238 
	C862.495483,1426.241333 862.706238,1399.005737 862.981018,1371.772583 
	C863.095337,1360.443726 863.000000,1349.112671 863.000000,1337.782593 
	C863.000000,1335.665894 863.000000,1333.549072 863.000000,1331.432373 
	C861.648438,1332.072632 861.209290,1332.732300 861.026611,1333.456787 
	C857.745483,1346.469604 852.602600,1358.817017 845.310791,1369.957031 
	C836.426208,1383.530640 824.169800,1394.096313 810.688904,1402.937744 
	C790.837646,1415.957397 775.298767,1433.145386 760.646301,1451.511230 
	C753.444763,1460.537964 745.728455,1469.731445 736.490906,1476.430664 
	C719.636536,1488.653931 701.476501,1499.076782 683.818481,1510.277710 
	C685.315063,1517.031860 686.997437,1524.675293 688.703796,1532.313232 
	C691.125977,1543.155396 693.703613,1553.964966 695.966614,1564.840088 
	C699.581177,1582.210449 702.771484,1599.671265 706.546936,1617.005493 
	C710.791748,1636.494873 715.624878,1655.855713 719.949097,1675.328613 
	C724.836365,1697.336548 728.892639,1719.543823 734.328125,1741.411377 
	C739.547607,1762.409668 746.093384,1783.077759 752.011169,1803.903687 
	C756.351013,1819.176270 763.221802,1833.767456 764.064636,1849.985107 
	C764.585327,1860.002808 761.535828,1866.210083 752.587097,1868.908447 
	C746.020569,1870.888184 739.217651,1872.084229 732.520142,1873.629639 
	C734.415955,1874.000000 736.330322,1874.073242 738.237793,1873.988525 
	C756.633850,1873.171997 767.572632,1883.322876 773.008484,1899.171997 
	C775.545959,1906.570435 778.167114,1913.947632 781.018372,1921.229614 
	C788.421448,1940.137207 801.423889,1954.479858 817.647766,1966.320923 
	C826.181335,1972.549316 834.498535,1979.135620 842.408752,1986.131226 
	C846.538513,1989.783203 849.575195,1994.671265 853.105469,1999.001099 
	C853.504578,1998.899902 853.903687,1998.798706 854.302795,1998.697510 
	C853.555603,1995.259521 853.052734,1991.745728 852.012634,1988.398804 
	C849.492249,1980.288330 843.723083,1974.695923 836.966797,1970.010498 
	C830.100891,1965.248657 825.558594,1954.601440 827.004822,1946.910645 
	C829.096008,1935.790405 830.754395,1924.583252 833.071899,1913.512451 
	C836.374756,1897.734253 832.456909,1884.485840 820.290894,1873.806030 
	C814.991333,1869.153564 813.130005,1862.580322 817.264587,1855.449463 
	C822.829529,1845.851807 828.747681,1836.459106 834.515747,1826.979370 
	C842.999329,1813.036743 847.398743,1797.881104 848.000122,1780.663086 
M780.035828,627.676270 
	C780.358154,627.111938 780.746826,626.575012 780.993103,625.979309 
	C785.712280,614.565918 790.477661,603.260376 800.388550,595.009766 
	C806.029053,590.314148 811.294373,585.139893 816.485474,579.938477 
	C826.395996,570.008301 832.895508,557.920105 836.942993,544.663940 
	C841.672363,529.174500 846.124390,513.569885 849.853577,497.815704 
	C852.603271,486.199402 854.101440,474.278687 855.949524,462.461151 
	C856.673828,457.828949 854.048584,455.151520 849.742981,453.920868 
	C839.545593,451.006226 830.203308,454.935394 821.031189,458.162384 
	C812.004272,461.338257 803.425659,465.795807 794.672607,469.740234 
	C783.705017,474.682678 772.592346,479.339691 761.839233,484.714142 
	C737.333557,496.962158 712.668762,508.993591 691.495728,526.845337 
	C679.863159,536.653198 667.721008,545.895569 656.523865,556.172302 
	C636.187012,574.837463 618.715149,595.968933 603.977417,619.401367 
	C593.165527,636.591980 583.011841,654.054932 577.761536,673.823059 
	C575.864990,680.963867 574.319275,688.304626 577.836426,695.782043 
	C579.874756,700.115479 581.237061,699.329651 583.937439,696.665344 
	C590.323914,690.364319 596.379211,683.542114 603.551575,678.267517 
	C613.629211,670.856079 623.403442,668.099915 633.886353,675.136658 
	C638.631348,678.321838 642.229919,683.169250 646.580383,686.999268 
	C651.775452,691.572998 656.810181,696.605530 664.369141,697.043762 
	C670.267883,697.385803 676.176147,698.044739 682.068237,697.932739 
	C698.609558,697.618530 712.755371,690.416077 726.563477,682.132751 
	C742.284363,672.702026 755.423340,660.290588 767.500610,646.769653 
	C772.382324,641.304382 775.875549,634.598877 780.035828,627.676270 
M506.962921,623.598999 
	C505.350464,620.653381 503.738007,617.707764 502.125519,614.762146 
	C505.007996,640.615173 549.280396,696.320618 572.874329,703.956604 
	C565.228943,695.146423 564.594849,685.251953 567.350220,675.808044 
	C570.832825,663.871582 575.243164,652.016296 580.862427,640.942505 
	C587.317444,628.221558 595.207397,616.179932 603.064209,604.231262 
	C613.404358,588.505859 625.161987,573.834900 638.780334,560.778625 
	C647.352783,552.559875 655.905212,544.274231 665.008362,536.666809 
	C676.466614,527.091248 688.109802,517.652588 700.324829,509.083832 
	C728.229675,489.508789 759.618164,476.215302 790.027954,461.295868 
	C805.884827,453.516296 822.441650,446.529205 840.382507,444.255768 
	C849.367493,443.117218 863.830688,446.115295 864.930725,459.613892 
	C865.374695,465.061920 865.763794,470.717743 864.812866,476.034882 
	C862.659180,488.076874 859.849304,500.013824 856.956848,511.908569 
	C852.259827,531.223755 847.834473,550.641846 837.510986,568.044800 
	C830.505920,579.853699 821.553284,589.807007 811.055115,598.651917 
	C804.462769,604.206116 797.963928,610.244263 794.798035,618.695862 
	C789.572144,632.646851 781.874451,644.822083 771.836670,656.008240 
	C757.800171,671.650513 741.942749,684.590088 723.339844,694.189636 
	C712.167847,699.954651 700.724609,704.659058 687.942322,706.249023 
	C677.625854,707.532349 667.883118,706.719177 658.124268,703.621277 
	C648.221130,700.477539 642.118164,692.545288 635.250305,685.603149 
	C630.958679,681.265076 626.200684,676.856018 619.942322,678.294678 
	C614.660156,679.508972 609.508789,682.486511 605.029175,685.700562 
	C599.195374,689.886292 594.046326,695.036499 588.675537,699.852905 
	C586.272156,702.008118 586.060364,703.640991 589.686157,705.064697 
	C607.423462,712.029297 626.259094,712.391541 644.796509,713.731079 
	C655.859192,714.530518 667.150085,713.024231 678.273254,711.906250 
	C690.719849,710.655212 703.115112,708.820679 715.493225,706.975342 
	C740.751709,703.209778 763.735046,693.511597 784.480530,678.860901 
	C802.859436,665.881470 820.711914,652.155579 838.768982,638.721985 
	C851.401367,629.324158 863.108398,618.784912 871.067078,605.141296 
	C877.507080,594.101013 882.986328,582.375488 887.711304,570.484863 
	C898.139099,544.242981 904.277649,517.173218 898.931335,488.737427 
	C896.574463,476.201538 890.204590,465.701477 879.897400,458.088440 
	C874.233582,453.905029 867.811096,450.761963 861.879272,446.920441 
	C860.006226,445.707428 856.732544,444.887878 858.768738,440.318451 
	C880.311829,441.213928 892.430298,455.812500 903.894287,471.657745 
	C902.157471,465.574799 900.449036,459.571747 897.894470,453.953430 
	C892.971375,443.125732 887.473633,432.664734 876.025269,426.974579 
	C855.878723,416.961151 834.370911,415.736603 812.944031,419.351349 
	C794.483521,422.465698 776.272705,427.654022 758.367188,433.254517 
	C746.550110,436.950592 735.116638,442.340149 724.162598,448.190582 
	C714.257324,453.480835 704.974854,460.070374 695.897034,466.739380 
	C686.718262,473.482574 677.779968,480.646576 669.381592,488.331329 
	C661.576477,495.473267 654.453491,503.392487 647.346191,511.255188 
	C641.657349,517.548828 636.265686,524.133545 631.056458,530.833435 
	C621.804932,542.732239 612.555176,554.645630 603.738831,566.866150 
	C592.786377,582.047607 582.245789,597.526978 571.582153,612.915710 
	C563.842163,624.085388 558.064941,636.649719 547.642395,645.908569 
	C541.987732,650.931946 531.694946,652.835938 524.560608,647.359253 
	C516.475708,641.152893 512.047302,632.647766 506.962921,623.598999 
M749.357300,1070.955078 
	C749.933716,1070.644409 750.480835,1070.146362 751.090881,1070.050903 
	C760.225464,1068.623901 769.368408,1067.250244 778.509338,1065.864014 
	C765.207581,1064.802124 757.128784,1058.349854 754.508545,1045.098633 
	C752.228638,1033.568481 749.536072,1022.119324 746.989624,1010.642517 
	C745.832825,1005.429138 744.588501,1000.235107 743.383911,995.032349 
	C741.803772,997.789551 741.469360,1000.333801 740.967712,1002.844666 
	C739.384644,1010.767578 733.209595,1017.565002 726.782593,1017.932190 
	C721.139526,1018.254456 715.456055,1018.188110 709.803528,1017.964294 
	C695.795227,1017.409851 681.799194,1016.525452 667.788818,1016.052734 
	C659.299072,1015.766235 650.726562,1015.345642 642.310974,1016.185486 
	C634.026672,1017.012146 625.481018,1018.289062 617.787048,1021.270447 
	C605.011047,1026.221191 592.824829,1032.694214 580.668030,1038.395752 
	C585.903015,1039.259888 591.246216,1039.882690 596.465881,1041.055420 
	C608.674255,1043.798462 619.548401,1049.187256 626.379639,1060.058838 
	C632.092773,1069.151367 633.739319,1079.861816 633.811890,1090.306396 
	C633.964355,1112.244019 634.881287,1134.081665 638.035828,1155.796021 
	C638.683044,1160.251099 639.773438,1164.641846 640.820190,1169.863770 
	C641.252563,1162.710205 641.284851,1156.481445 642.090027,1150.354492 
	C643.011353,1143.342896 643.715210,1136.093994 646.095032,1129.520874 
	C653.956970,1107.806396 671.274048,1095.754150 691.511658,1086.989990 
	C709.781860,1079.077759 729.011963,1074.628784 749.357300,1070.955078 
M810.002563,971.302307 
	C807.885193,957.900146 805.767822,944.497925 803.646118,931.068115 
	C800.215698,932.088257 796.975342,932.970459 793.787842,934.013916 
	C779.465942,938.702209 764.926025,942.675049 752.799011,952.517395 
	C740.855591,962.210754 728.443054,971.343994 716.005188,980.405762 
	C701.134155,991.240417 683.929443,996.828552 666.120483,999.792419 
	C648.452332,1002.732910 630.543640,1004.517151 612.668701,1005.835205 
	C598.331482,1006.892456 584.690796,1010.881287 570.733459,1013.557007 
	C558.968811,1015.812378 547.051147,1017.287720 535.181152,1018.966248 
	C530.361389,1019.647827 525.488342,1019.953308 519.179260,1020.573486 
	C524.565796,1021.558899 528.488525,1022.390930 532.447388,1022.979248 
	C544.009644,1024.697388 555.556091,1026.601807 567.171936,1027.840820 
	C571.979919,1028.353638 577.280823,1028.341797 581.768066,1026.825073 
	C588.853088,1024.430176 595.434204,1020.550354 602.241211,1017.325684 
	C614.290894,1011.617493 626.970032,1007.583130 640.248901,1007.185120 
	C655.638489,1006.723633 671.070312,1007.667175 686.483765,1008.000305 
	C686.816833,1008.007446 687.151001,1007.993225 687.483093,1008.014099 
	C697.984131,1008.674133 708.477539,1009.655029 718.988098,1009.898254 
	C727.231689,1010.089050 730.211426,1007.966736 731.648926,1001.663269 
	C732.800049,996.615051 733.500427,991.426941 733.935059,986.261719 
	C734.484253,979.734802 737.145386,974.621765 740.882202,974.026062 
	C744.094604,973.513977 748.037598,977.426331 749.832275,983.645996 
	C751.790894,990.433533 753.469421,997.314209 754.964355,1004.220459 
	C757.759399,1017.133545 760.272400,1030.107544 763.019287,1043.031250 
	C765.227539,1053.420288 768.506897,1056.244995 778.954956,1055.914185 
	C785.956238,1055.692505 793.070557,1055.289185 799.879456,1053.801270 
	C806.624817,1052.326904 812.897400,1049.031006 813.969666,1041.007202 
	C814.915039,1033.931763 815.891296,1026.783936 815.853394,1019.673462 
	C815.809814,1011.499939 814.935120,1003.298828 813.922119,995.171936 
	C812.962463,987.472473 811.356812,979.853577 810.002563,971.302307 
M309.500702,1073.999512 
	C306.204132,1077.295532 302.466888,1080.258301 299.682831,1083.941772 
	C282.274475,1106.974609 267.425079,1131.648315 254.077454,1157.200806 
	C248.679642,1167.534546 244.242264,1178.374390 239.485748,1189.036499 
	C237.184479,1194.194946 235.155533,1199.474854 232.444641,1206.056030 
	C234.408005,1204.614624 235.363571,1204.224976 235.845428,1203.514160 
	C250.934891,1181.254883 265.590698,1158.689331 281.154724,1136.768188 
	C292.976532,1120.117798 305.237366,1103.670044 318.579590,1088.235718 
	C335.722778,1068.404541 354.163055,1049.695801 371.997162,1030.459473 
	C375.329987,1026.864502 378.439636,1023.062866 381.652313,1019.356567 
	C381.348663,1019.008850 381.045013,1018.661194 380.741364,1018.313477 
	C355.430328,1034.437012 332.291626,1053.411377 309.500702,1073.999512 
M661.812134,731.997864 
	C676.031494,731.661987 690.383667,732.424561 704.438354,730.726257 
	C724.256287,728.331604 742.667236,721.080505 759.090332,709.405212 
	C765.710449,704.699036 772.193420,699.800049 778.738770,694.988770 
	C720.217834,722.216309 659.396301,728.034241 596.470276,717.546082 
	C597.208801,717.853149 597.976318,718.014587 598.703430,718.284851 
	C614.932922,724.316162 631.536865,728.692810 648.875122,730.051758 
	C652.898682,730.367188 656.872986,731.312317 661.812134,731.997864 
M857.000061,1229.597168 
	C858.158020,1238.744873 859.316040,1247.892456 860.473999,1257.040161 
	C863.259155,1236.839722 864.242859,1216.599976 867.397278,1196.704346 
	C870.484497,1177.232666 875.125000,1157.936890 882.915283,1139.553833 
	C872.140198,1154.213989 861.933472,1168.869629 858.303284,1187.098145 
	C855.539917,1200.973877 855.301086,1214.741943 857.000061,1229.597168 
M675.072021,1884.405884 
	C660.902893,1889.476440 646.715881,1894.521851 633.887329,1902.607666 
	C626.450439,1907.295044 619.099487,1912.119019 611.709839,1916.881470 
	C611.943420,1917.283447 612.176941,1917.685425 612.410461,1918.087402 
	C649.337341,1903.558594 686.264160,1889.029663 723.019714,1874.568237 
	C714.866821,1875.882568 706.276733,1877.028931 697.791992,1878.707642 
	C690.405823,1880.169067 683.138672,1882.232056 675.072021,1884.405884 
M828.545715,1028.963379 
	C834.171753,997.133606 831.024475,966.699951 814.603577,938.377380 
	C816.527527,955.575684 819.874634,972.576416 821.826355,989.735901 
	C823.737671,1006.539673 824.227783,1023.505127 825.310242,1039.923096 
	C826.096252,1036.971313 827.069885,1033.314819 828.545715,1028.963379 
M976.646729,1817.000000 
	C974.899353,1817.333252 973.160522,1817.722412 971.403259,1817.990601 
	C962.106384,1819.410034 952.704773,1820.333862 943.528809,1822.309326 
	C930.346436,1825.147217 917.300598,1828.641602 904.251282,1832.064697 
	C898.878662,1833.474243 893.648743,1835.427246 888.353882,1837.132935 
	C888.474487,1837.556885 888.595093,1837.980713 888.715698,1838.404663 
	C920.341553,1831.477417 951.967468,1824.550293 983.593323,1817.623047 
	C983.566589,1817.415405 983.539856,1817.207642 983.513123,1817.000000 
	C981.525879,1817.000000 979.538635,1817.000000 976.646729,1817.000000 
M417.546753,1008.000000 
	C426.515259,1008.495239 435.483734,1008.990479 444.518951,1009.489380 
	C425.371887,1002.238464 408.400574,1004.456482 400.173523,1010.210815 
	C403.220306,1009.498779 405.654572,1008.720154 408.147552,1008.403076 
	C410.925903,1008.049744 413.757660,1008.116272 417.546753,1008.000000 
M779.481140,693.492554 
	C780.587280,692.925598 781.693420,692.358643 782.799500,691.791687 
	C782.634338,691.477844 782.469116,691.164062 782.303955,690.850220 
	C781.175659,691.524780 780.047424,692.199402 779.481140,693.492554 
z"/>
</svg>