<svg id="Layer_1" data-name="Layer 1" xmlns="http://www.w3.org/2000/svg" viewBox="20 235 572 290" version="1.1" xmlns:xlink="http://www.w3.org/1999/xlink" transform="matrix(6.123233995736766e-17,1,-1,6.123233995736766e-17,0,0)">
  <defs>
    <style>
      .cls-1 {
        fill: #fff;
      }
    </style>
  </defs>
  <path class="cls-1" d="M321.7,422.28c2.21,1.58,2.35,4.51.6,6.27l-2.27,2.28c3.38.81,14.35,6.38,16.27,8.51,2.45,2.73,5.2,4.24,8.84,4.9,1.99.36,3.96.42,5.68-1.06l4.1-3.53c1.45-1.25,3.67-1.49,5.6-.83,8.94,3.06,15.47,8.3,26.25,10.58.69.15,3.23-3.31,11.28-2.13,4.15.61,8.11,1.3,12.22,1.4,2.53.06,6.13-1.41,6.12-3.86s-6.18-4.26-8.43-4.82l-28.8-7.11c-2.28-.56-4.48-.86-6.71-1.29-12.75-2.44-16.71,3.68-26.53,5.47-3.54.65-7.14.79-10.43-.97,4.95.55,9.79.18,14.46-1.79l7.22-3.06c4.63-1.96,9.5-2.31,14.47-1.54,5.58.86,10.79,2.18,16.28,3.53l20.24,4.99c3.04.75,5.73,1.82,8.53,3.33-.92-8.16-1.04-25.57-.48-33.3l.93-12.82.81-9.57c.87-10.26-1.15-18.69-2.71-28.78-.72-4.69-1.29-10.71,1.47-14.47.09-.12.82-.14.9,0,.11.19.31.69.26.94-.93,4.58-.64,9.42.12,14.03l2.09,12.52c1.37,8.24.84,16.23.04,24.59-1.06,11.08-1.23,21.79-1.38,32.91l-.2,13.83c-.01.8.17,1.5.07,2.26-.48,3.72-2.94,6.37-6.91,6.67-8.56.66-15.56-3.3-23.88-.71l9.96,2.1c7.73,1.63,17.71,4.82,22.88,11,2.6,3.1,3.38,7.19,1.79,10.87-1.16,2.67-3.85,4.29-6.74,3.39-7.05-2.17-11.23-6.86-22.91-8.84l-14.58-2.48c-8.91-1.51-9.22,1.45-10.87,2.67-4.88,3.63-9.41,7.22-13.89,11.3-5.01,4.57-10.98,7.38-17.39,8.96-1.27,1.84-1.82.7-3.09,1.65-.2.15.2.7.26,1.05,1.65,8.7,2.42,17.44,1.86,26.3-.24,3.81-1.58,7.17-3.61,10.62,7.68,1.44,14.94,2.86,22.21,5.09,13.32,4.08,18.85,13.11,33.74,9.64,6.98-1.62,14.03-.78,20.84,1.21,3.41.99,6.59,2.29,9.29,4.52,3.89,3.21,4.57,9.09.65,12.45-1.53,1.31-4.07,1.75-6.12,1.79-7.87.15-15.39.3-23.21,1.4l-20.79,2.92c-.71.2-.73.27-.05.43l6.28,1.84c10.48,3.07,29.65,8.29,38.47,14.09,3.46,2.27,5.56,5.86,5.68,10.03.07,2.6-1.51,5.11-4.26,5.45-1.02.12-2.23.12-3.51.18,2.36,2.31,4.7,4.56,5.62,7.84,1.27,4.52,1.44,9.16,1.03,13.9-.79,8.97-2.03,17.46-3.51,26.35-3.97,23.97-5.61,45.72-2.4,70.01l4.49,33.92c1.3,9.85,1.29,19.4.96,29.27l-.97-.07-.4-5.49c-.79-10.9-1.73-21.44-3.31-32.37-1.97-13.61-3.91-26.79-4.71-40.52-.89-15.34.06-30.24,2.26-45.39l3.83-26.35c.92-6.32,1.35-12.37.95-18.74-.15-2.41-.84-5.06-2.17-7.15s-3.37-5.03-5.66-6.01c-4.63-1.97-9.23-3.02-13.99-4.52-9.98-3.15-19.96-4.8-30.37-5.72-6.23-.55-12.2-.85-18.43-.44-3.93.26-7.58,1.29-11.11,3.08l-20.68,10.47c-4.61,2.33-9.26,4.01-14.33,5.07-4.67.98-9.42.89-14.18.41l-8.02-.8c-5.83-.58-11.44-.9-17.26-.53-1.67.11-2.35.48-3.62,1.57l-6.54,5.57c-2.65,2.26-4.72,5.32-5.34,8.79l-1.66,9.26c-.35,1.96-1.35,4.12-2.65,5.48-2.73,2.84-.66,2.89-6.51,5.56-1.06.48-1.81,1.33-2.72,1.93-2.43,1.61-6.01,1.45-8.81.93s-4.92-2.26-6.44-4.59l-3.53-5.43c-4.89-7.52-4.67-13.01-7.7-17.59l-6.65-10.05c-4.06-6.13-5.35-18.09-3.8-24.94.76-3.32,5.96-11.54,4.82-10.94l-.73.38c-3.61,1.89-11.48-4.97-13.94-8.06-.76-.95-1.25-2.58-.16-3.4,2.09-1.56,10.1,2.38,11.66,3.43.06.04.06-.43.02-.63-1.58-9.61-3.04-19.92-3.28-29.64-.01-.55.46-1.36.78-1.54,1.85-1.03,4.92,3.3,5.84,4.79,3.35,5.41,5.64,11.35,6.39,17.7.73,6.17-.7,11.74-3.7,17.05-1.92,3.39-3.52,6.77-5.02,10.39-2.21,5.34-2.9,10.6-.91,16.26,4.39,12.57,10.66,13.97,14.6,28.34,2.28,8.32,2.28,5.8,6.19,12.22,2.69,4.41,6.96,4.94,11.52,4.39l-1.52-.55c-.58-1.49-1.21-3.05-1.75-4.71l-1.5-4.65c-.07-.22.2-.83.38-.76s.7.31.8.48l1.44,2.27c1.37,2.17,2.2,4.26,2.54,6.98,2.19-1.7,4.95-2.29,7.29-3.78,3.29-2.09,4.86-6.25,5.5-10,.85-4.96.82-9.8,4.34-14.11,2.61-3.19,5.95-5.37,9.45-7.49.13-.08.62-.36.51-.45l-.82-.63c5.82-1.47,11.89-1.88,18.13-1.35l3.27.27c5.79.48,11.4,1.56,17.18,1.32,9.86-.39,17.6-4.56,26.17-8.86l14.94-7.5c8.14-4.09,18.45-3.18,27.34-2.58,11.99.82,23.55,2.99,34.98,6.63l10.61,3.38c3.23,1.03,10.85,3.1,11.22-2.01.5-6.87-5.56-10.45-11.11-12.83-10.28-4.42-20.7-7.84-31.55-10.67-3.43-.89-6.62-2.41-10.13-2.98-3.23-.41-7.01.76-10.33,1.13l-10.96,1.22c-.32,5.45-3.01,13.12-7.2,16.6-.79.15-1.06.21-.38-.17,3.36-4.61,5.55-9.94,5.97-15.45.03-.35-.57-.92-.92-.9-7.33.45-18.37-.78-23.09-7.14-1.17-1.58-1.59-3.58-1-5.56.45-1.49,1.93-3,3.72-3.79,4.72-2.08,10.14-1.19,14.59,1.38,4.86,2.81,7.79,7.4,8.23,13.4l16.83-2.04,3.51-.54,10.73-1.49c9.3-1.3,18.36-2.86,27.7-3.16l12.37-.4c3.68-.12,5.69-3.26,5.17-6.84-1.06-7.33-14.76-9.77-20.79-10.52-12.56-1.57-15.57,6.24-33.46-3.58-4.66-2.56-9.26-4.64-14.4-6.06-6.74-1.86-13.35-3.21-20.3-4.37-4.41,4.6-10.08,6.91-16.35,7.39-3.07.24-10.68-.13-11.33-3.93s5.35-5.45,8.4-5.94c3.73-.6,7.34-.73,11.13-.31l7.66.83c2.43-3.28,3.55-6.9,3.75-10.93.36-7.39-.39-19.17-2.53-26.65l-10.96.64c-4.48.26-15.68-.16-18.32-4.37-1.16-1.86-.39-4.18,1-5.68,1.74-1.88,4.08-3.07,6.65-3.7,8.85-2.14,19.56,2.18,23.04,11.21,9.9-2.63,15.35-5.38,22.58-12.27,2.53-2.41,5.13-4.31,7.89-6.41,2.33-1.77,4.04-4.37,6.95-5.42,3.01-1.08,6.27-.74,9.43-.2l8.88,1.53c5.64.97,11.22,1.73,16.36,4.33l9.71,4.9c1.29.65,3.29,1.15,4.56.55,2.35-1.1,3.34-3.75,3.19-6.27-.42-6.96-9.34-11.43-15.09-13.44-13.8-4.82-20.68-2.87-36.47-10.98-3.08-1.58-5.99-2.95-9.23-4.28-4.35-1.79-5.87.84-8.53,3.09-5.21,4.42-12.61,1.14-14.44-.56l-3.57-3.32c-2.25-2.09-5.23-3.11-7.95-4.58-4.57-2.48-9.35-3.64-14.55-3.9l-13.8-.68c-7.65-.38-17.5-.82-23.92,3.76-2.37,1.69-4.15,3.93-6.11,6.08-4.59,5.03-8.09,10.45-11.09,16.58-4.52,9.25-7.34,18.85-8.06,29.18-.81,11.69-.03,23,2.06,34.52l4.13,22.85c1.92,10.61-3.13,20.67-13.87,23.13-7.04,1.61-7.46,1.17-15.01.74-.59-.12-1.42-.28-.57-.4,2.86-.2,5.28-.27,7.88-.23,8.9.13,17.96-5.32,19.72-14.38.82-4.2.18-8.25-.62-12.4l-3.29-17.15c-1.92-9.98-2.83-19.8-2.71-30,.11-9.24,1.31-17.95,4.37-26.6,2.98-8.44,7.07-16.1,12.33-23.27,2.67-3.64,5.67-6.45,9-9.42s6.22-6.2,10.03-8.63c5.04-3.22,10.35-5.47,16.39-6.09,5.79-.6,17.92.06,22.73,3.49ZM194.11,563.81c-4.18-.75-6.49-2.51-10.36-2.59-1.24,1.96,10.4,10.81,12.59,9.22l-2.23-6.63ZM192.62,533.42c-.04.18-.25.81-.23.99.83,11.24,2.08,22.34,4.01,33.44.17.97.95,1.98,1.49,2.75,11.77-17.11-4.88-38.74-5.26-37.18ZM321.49,427.18c1.16-1.3.64-3.07-.71-3.82-5.76-3.2-17.06-3.75-23.59-2.63-7.13,1.22-13.54,4.67-18.9,9.63,3.55-.6,6.51-1.35,9.85-1.41,9.76-.15,20.67.55,30.42,1.5l2.92-3.27ZM323.7,481.23c-10.99-6.61-22.31-.13-20.89,3.88,2.02,5.69,21.81,4.33,27.44,3.54-1.1-3.38-3.55-5.61-6.55-7.41ZM305.07,531.09c-.43.56-.92,1.25-1,1.71s.64,1.37,1.08,1.59c6.42,3.26,18.09.84,22.94-4.75-7.5-1.44-16.6-1.98-23.02,1.45ZM341.27,568.8c-.59-6.54-4.57-11.02-10.08-13.1-3.74-1.79-12.82-1.61-13.55,3.34-.27,1.86.88,3.45,2.08,4.77,5.55,4.74,14.49,5.76,21.55,4.99Z"></path>
  <path class="cls-1" d="M339.85,268.35c1.91,8.1,2.6,17.84,2.29,26.19-.16,4.25-1.38,8.09-3.73,11.89,7.72,1.45,14.95,2.86,22.23,5.09,13.31,4.08,18.85,13.11,33.74,9.64,6.98-1.62,14.03-.78,20.84,1.21,3.41.99,6.59,2.29,9.29,4.52,3.89,3.21,4.57,9.09.65,12.45-1.53,1.31-4.07,1.75-6.12,1.79-7.96.14-15.58.32-23.51,1.43l-20.48,2.88c-.69.11-.73.16.05.5-1.18,1-2.51.14-3.88.23-3.46.2-6.91.84-10.41,1.26l-10.91,1.3c-.15,4.62-3.3,14.48-7.78,16.7,3.42-4.79,6.03-10.32,6.14-16.62-7.84.45-19.15-.65-23.99-7.17-1.12-1.51-1.53-3.4-1.09-5.27.37-1.56,1.79-3.12,3.59-3.96,4.66-2.19,10.11-1.36,14.59,1.15,4.97,2.79,8.01,7.44,8.45,13.52l16.54-2,3.79-.57,10.73-1.5c9.3-1.3,18.36-2.86,27.7-3.16l12.37-.4c3.68-.12,5.69-3.26,5.17-6.84-1.06-7.33-14.76-9.77-20.79-10.52-12.41-1.55-15.71,6.16-33.23-3.46-4.74-2.6-9.4-4.74-14.64-6.18-6.74-1.86-13.35-3.21-20.3-4.36-4.41,4.6-10.08,6.91-16.35,7.39-3.07.24-10.68-.13-11.33-3.93-.66-3.87,5.61-5.52,8.7-5.99,3.5-.54,6.92-.68,10.47-.3l8.02.86c2.43-3.27,3.56-6.91,3.75-10.92.36-7.39-.39-19.17-2.54-26.65l-10.96.64c-4.48.26-15.68-.16-18.32-4.37-1.16-1.86-.38-4.18,1-5.68,1.68-1.82,3.92-2.99,6.4-3.63,8.95-2.32,19.77,2.11,23.25,11.03,8.9-1.78,16.34-5.98,22.63-12.16,2.49-2.45,5.15-4.3,7.89-6.41,2.33-1.79,4.04-4.37,6.95-5.42,3.01-1.09,6.27-.74,9.43-.2l8.88,1.53c5.64.97,11.22,1.73,16.36,4.33l9.71,4.9c1.29.65,3.29,1.15,4.56.55,2.35-1.1,3.34-3.75,3.19-6.27-.42-6.96-9.34-11.43-15.09-13.44-13.8-4.83-20.67-2.86-36.47-10.98-2.98-1.53-11.05-5.96-13.68-4.5-2.8,1.56-5.34,5.6-8.98,5.62-3.42.02-7.09-.59-9.54-2.86l-3.57-3.32c-2.37-2.21-5.52-3.28-8.41-4.81-4.43-2.35-9.08-3.42-14.09-3.67l-13.8-.69c-7.65-.38-17.51-.81-23.92,3.76-2.37,1.69-4.15,3.93-6.11,6.08-4.59,5.03-8.09,10.45-11.09,16.58-4.52,9.25-7.34,18.85-8.06,29.18-.81,11.7-.02,22.99,2.06,34.52l4.17,23.13c2.16,11.96-4.79,22.2-17.05,23.43l-.67.19c-.16.05.1-.99.28-1.02,7.07-1.14,14.08-6.33,15.55-14.04.8-4.17.17-8.25-.62-12.38l-3.29-17.15c-1.92-9.98-2.84-19.8-2.71-30,.11-9.24,1.31-17.95,4.37-26.6,3.01-8.5,7.13-16.25,12.48-23.45,2.49-3.35,5.16-6,8.3-8.74,6.09-5.32,6.39-5.95,9.59-14,3.58-9.02,6.13-18.09,8.08-27.59.3-1.45.96-3.48,1.55-4.6.16-.31,1.35-.6,1.53-.33l.88,1.31,5.92,8.58c3.93,5.7,7.69,16.83,1.69,23.28-1.99,2.15-4.03,4.35-6.45,6.23,1-4.96,8.08-6.48,8.13-14.02.05-6.76-3.44-13.03-7.16-18.47l-3.2-4.68-.63-.12c-.34,1.28-.55,1.99-.75,2.94l-3.93,18.29c-.94,4.39-4.96,15.3-8.19,19.26-.36,0,.16.07.52.1,8.09-2.18,21.21-1.04,30.03-.53,3.14.18,6.22.27,9.22,1.04,5.53,1.42,12.89,4.83,17.07,8.38,2.9,2.46,5.21,4.66,9.29,5.16,1.94.24,3.88.46,5.66-1.07l4.08-3.53c1.44-1.25,3.67-1.5,5.61-.83,3.88,1.35,7.47,3.14,11.18,5.02,17.14,8.7,26.77,5.44,43.4,14.02-9.6-18.77-16.26-37.96-18.11-58.63-.96-10.7-.83-20.97.65-31.56l3.98-28.37c2.25-16.06,4.89-31.67,6.45-47.86l2.94-30.39,1.87-26.83c.03-.42.38-.83.95-.99.85,35.12-3.01,68.14-8.7,102.86-6.33,38.65-10.73,62.44,3.02,100.65,2.47,6.87,5.22,13.28,8.12,19.97.32.73.53,1.8.7,2.54,4.61,3.41,7.98,8.63,5.48,14.37-1.17,2.67-3.84,4.3-6.75,3.39-9.56-3-8.73-6.55-26.81-9.51l-13.07-2.13c-2.48-.4-5.05.03-7.21,1.44,3.46,2.79,6.29,5.59,9.13,8.81,2.49,2.83,5.09,5.58,8.78,6.87,8.72,3.03,15.26,1.09,21.87,4.37,6.78,3.36,6.75,10.58,5.14,16.95-.64,2.55-2.95,3.96-5.5,3.42-4.57-.98-8.74-2.6-12.94-4.75-7.19-3.68-13.97-7.53-21.43-10.77-7.51-3.27-14.98-5.74-22.86-7.25,10.86-1.33,28.59,7.41,38.05,12.32l7.29,3.79c4,2.08,8.2,3.56,12.59,4.72,3.75.99,3.65-6.64,3.58-8.71-.2-6.05-4.98-8.37-10.29-8.91l-6.82-.69c-7.7-.78-12.88-2.19-18.14-8.29l-9.09-10.55c-5.13,3.4-9.57,6.98-13.97,11.1-4.17,3.9-9.08,6.22-14.13,8.74-2.11,1.05-4.54,1.6-6.95,2.18ZM330.63,259.42c-10.99-6.61-22.31-.13-20.89,3.88,2.02,5.69,21.81,4.33,27.44,3.54-1.1-3.38-3.55-5.61-6.55-7.41ZM312,309.27c-.43.56-.92,1.25-1,1.71s.64,1.37,1.08,1.59c6.41,3.26,18.1.84,22.94-4.75-7.5-1.44-16.6-1.97-23.02,1.45ZM348.2,346.98c-.59-6.54-4.57-11.02-10.08-13.1-3.74-1.79-12.82-1.61-13.55,3.34-.27,1.86.88,3.45,2.08,4.77,5.55,4.74,14.49,5.76,21.55,4.99Z"></path>
  <path class="cls-1" d="M206.62,441.42l-.95-10.71c-.52-5.86-2.17-22.69,2.17-27.12-.49,4.24-1.15,8.27-.85,12.62l1.68,24.32c3.28-5.53,4.73-11.4,5.66-17.38.67-4.26.1-8.18-.8-12.33-1.58-3.23-2.49-7.27-4.99-9.92-7.76-2.58-13.71-10.62-16.56-18.08-3.95-10.36-.39-21.71,6.75-29.71l.2-3.97c.21-4.09.33-8.21-.52-12.29-1.23-5.91-3.51-11.53-7.38-16.5l3.56,19.16,3.19,14.77c-1.5-2.53-2.78-5.1-3.59-7.99-2.5-8.84-4.36-17.63-5.66-26.74-.13-.89.45-2.2,1.05-2.4.69-.22,1.88.1,2.38.83,7.34,10.71,10.55,20.47,7.74,33.85,4.51-1.83,8.65-3.77,13.11-5.3,3.73-1.28,7.65-1.27,11.57-1.4,8.19-.27,15.88,1.57,23.1,5.32,4.39,2.27,8.46,4.68,11.91,8.16,4.25,4.29,5.72,10.15,4.01,15.94-1.25,4.24-3.64,7.77-6.5,11.11-.68.8-1.42,1.2-2.29,1.83-6.21,4.53-12.81,7.79-20.38,9.44s-15.48,3.49-23.98,4.14c4.19,5.74,6.7,12.08,6.29,19.15-.32,5.59-1.72,10.8-3.72,15.97-.81,2.1-2.63,7.5-4.78,6.95-.49-.13-1.35-1-1.41-1.71ZM259.69,362.13c-1.1-1.46-2.36-2.98-3.89-4.09-5.99-4.34-12.54-7.89-19.88-9.5-9.28-2.04-18.91-1.37-27.91,1.31-2.85.85-5.28,2.11-8.05,3.09-2.94,3.44-4.69,7.41-6.05,11.75-1.82,5.81-2.09,11.65.06,17.47,1.56,4.21,3.95,8.03,7.03,11.31,5.19,5.51,8.58,6.28,15.95,4.99,6.46-1.14,12.62-2.25,18.96-3.94,7.26-1.93,14.02-5.24,19.48-10.33,5.68-5.29,9.54-15.15,4.3-22.05Z"></path>
  <path class="cls-1" d="M351.38,369.06c-2.1-2.33-4.56-4.08-5.31-7.2,2.31.86,8.5,7.38,10.28,9.31,1.12,1.22,2.46,2.48,4.23,2.71,1.5.19,5.11-4.6,8.16-6.64,5.05-3.39,15.99-3.54,20.5,2.46,1.6,2.13,1.48,5-.63,6.67-4.38,3.48-8.83,6.59-13.6,9.57-7,4.36-15.11,6.2-23.17,4.67-10.59-2.02-14.71-6.08-21.92-13.78,1.65-.28,2.87.42,3.96,1.31,1.89,1.56,3.59,2.99,5.62,4.48,7.05,5.2,16.18,7.12,24.86,5.2,7.7-1.71,16.21-7.77,22.71-12.34.72-.51,1.42-1.55,1.58-2.19.22-.86-.31-2.19-.99-2.88-4.25-4.31-12.5-4.27-16.93-1.96-5.53,2.89-7.78,9.78-12.53,6.71-2.54-1.64-4.69-3.76-6.82-6.11Z"></path>
  <path class="cls-1" d="M340.42,367.23c-1.02.98-2.04,2.37-3.23,2.99l-16.68,8.63c-5.3,2.74-10.69,4.82-16.57,5.91-4.44.82-8.89.68-13.36.25l-8.01-.77-11.26-.86-1.16-1.42c3.16-.3,6.77.55,9.98.47l1.48-.04c6.55-.16,15.81,4.21,30.49-1.52,10.15-3.97,18.34-9.36,28.33-13.64Z"></path>
  <path class="cls-1" d="M245.29,377.8c.43-2.98,3.63-6.13.65-9.2l-4.29-4.4c3.25.19,5.93,2.33,7.27,5.13,1.03,2.16.33,4.51-1.01,6.31-.66.96-.85,1.71-2.61,2.16Z"></path>
  <path class="cls-1" d="M250.87,370.99c1.06-1.6,6.76-3.05,7.18-1.84.12.33.17,1.09.15,1.48-2.46.36-4.83.79-7.33.36Z"></path>
</svg>
