<svg version="1.1" id="Layer_1" xmlns="http://www.w3.org/2000/svg" xmlns:xlink="http://www.w3.org/1999/xlink" x="0px" y="0px"
	 width="100%" viewBox="0 0 2074 1653" enable-background="new 0 0 2074 1653" xml:space="preserve">
<path fill="none" opacity="1.000000" stroke="#000000" stroke-linecap="round" stroke-linejoin="round" stroke-width="11.000000"
	d="
M352.500000,733.500000 
	C350.981781,736.663025 350.379364,739.948853 350.452942,743.500977 
	C350.782013,759.381287 351.811157,775.248474 353.739929,790.970581 
	C354.909851,800.507080 356.696167,810.070374 358.761780,819.551880 
	C360.706055,828.476562 360.654236,837.834473 361.502411,846.999756 
	C363.661774,870.333740 365.457458,893.710144 368.147430,916.982971 
	C369.651245,929.993469 370.712921,943.066284 372.893921,956.017883 
	C374.590912,966.095276 375.026794,976.380432 376.579742,986.487732 
	C378.405945,998.373352 381.188293,1010.115417 382.907104,1022.013428 
	C384.903198,1035.831055 388.175201,1049.362549 390.926575,1063.014771 
	C393.710724,1076.829590 397.531555,1090.364868 400.947021,1104.013306 
	C406.458588,1126.037964 413.235687,1147.697998 419.598083,1169.471313 
	C427.522675,1196.590820 436.180176,1223.495850 444.495850,1250.501221 
	C451.608948,1273.601196 461.223328,1295.727661 470.376556,1318.050659 
	C474.999268,1329.324585 481.402588,1339.750732 485.173096,1351.444214 
	C487.206848,1357.751587 488.730408,1364.148193 490.500000,1370.500000 
"/>
<path fill="none" opacity="1.000000" stroke="#000000" stroke-linecap="round" stroke-linejoin="round" stroke-width="5.000000"
	d="
M617.000000,1423.000000 
	C631.366699,1423.521729 645.693054,1424.333496 660.026672,1425.725586 
	C668.649963,1426.562988 677.347473,1427.339355 685.982666,1428.178467 
	C697.386414,1429.286743 708.655457,1431.739868 720.002686,1433.482422 
	C735.658508,1435.886353 751.272095,1438.812866 767.018494,1440.305176 
	C780.767944,1441.608398 794.597473,1443.717407 808.497009,1441.975952 
	C817.525940,1440.844360 825.613708,1437.911865 833.157959,1432.208984 
	C841.551453,1425.864258 844.888245,1417.755737 847.831177,1408.100952 
	C852.007324,1394.400391 856.727417,1380.801514 860.309998,1366.950806 
	C864.582581,1350.432617 867.414856,1333.568481 869.103149,1316.510254 
	C870.734253,1300.030151 872.184387,1283.559570 871.949768,1267.000732 
	C871.750610,1252.941284 868.294922,1239.614380 862.020142,1226.989990 
	C852.399292,1207.633545 841.701904,1188.816528 832.996033,1169.001709 
	C825.784180,1152.587158 821.529907,1135.533203 822.560913,1117.503540 
	C823.238586,1105.651733 824.203125,1093.798828 825.575500,1082.008789 
	C827.267517,1067.471924 827.892334,1053.014160 825.588135,1038.485962 
	C825.205627,1036.073853 824.184082,1034.677246 822.627502,1032.889038 
	C818.261841,1027.874023 814.607422,1022.248596 810.476990,1017.018188 
	C802.556396,1006.988342 792.629211,1000.703979 779.517212,999.335083 
	C772.813782,998.635254 765.995667,997.813171 759.486572,995.538391 
	C749.265625,991.966248 740.947388,986.286865 736.507446,975.996765 
	C734.950928,972.389526 732.707275,969.230042 730.585938,965.944519 
	C724.123901,955.936035 727.083435,940.728577 737.034119,933.044189 
	C749.232239,923.624084 762.219482,915.742859 777.473816,911.896057 
	C790.762024,908.545044 802.138428,901.140503 812.995789,892.994385 
	C824.961243,884.016846 838.225952,877.846069 853.012573,875.582092 
	C868.471191,873.215332 883.194092,876.101929 896.999695,883.500610 
	C903.834961,887.163696 910.686523,890.796936 917.495789,894.507690 
	C930.887878,901.805969 945.273804,903.492737 959.978149,900.877136 
	C976.492920,897.939392 991.769653,891.677490 1005.029297,881.036499 
	C1007.179077,879.311279 1010.140198,877.644836 1009.306519,874.806824 
	C1008.392639,871.695496 1004.838257,872.851013 1002.508972,873.087952 
	C992.510254,874.104736 982.477173,874.737183 972.476807,875.777100 
	C960.426147,877.030151 948.456726,878.711975 936.513306,880.584900 
	C929.215881,881.729248 921.767517,882.403809 914.924316,885.849670 
	C913.260498,886.687439 912.828186,887.828186 912.000000,889.000000 
"/>
<path fill="none" opacity="1.000000" stroke="#000000" stroke-linecap="round" stroke-linejoin="round" stroke-width="5.000000"
	d="
M569.500000,529.000000 
	C567.125610,530.835754 564.229126,531.698669 561.526550,530.909058 
	C551.032349,527.842712 541.145508,530.771179 531.541687,534.119568 
	C515.706665,539.640503 500.207458,546.175964 484.401886,551.720276 
	C473.160431,555.663696 461.416779,558.652039 449.506561,560.541382 
	C440.307037,562.000793 431.227753,564.507690 421.985962,565.345215 
	C407.381287,566.668640 392.735992,567.932739 377.992401,566.583008 
	C366.744659,565.553284 355.573792,564.224243 344.496094,562.019714 
	C333.961761,559.923340 323.439819,557.819397 312.971161,555.373474 
	C303.071259,553.060364 293.103577,550.971008 283.030640,549.313721 
	C272.712799,547.616089 262.354492,546.466309 251.992844,545.314392 
	C240.306015,544.015320 228.361542,544.295410 217.074310,546.830811 
	C203.668945,549.842041 190.147842,553.746155 178.082184,560.643738 
	C167.235504,566.844482 157.847214,575.097534 149.975006,584.980103 
	C137.806885,600.255615 126.541573,616.105225 118.525902,634.011597 
	C109.524391,654.120300 102.984413,675.064819 98.016251,696.503784 
	C94.540169,711.503906 92.467064,726.747131 90.537506,742.004761 
	C90.161919,744.974609 90.345932,747.993530 90.081474,751.007141 
	C88.172531,772.760132 89.002525,794.495605 92.719559,815.961975 
	C94.196854,824.493591 97.626289,832.800781 102.961205,840.028625 
	C104.546272,842.176147 105.624367,844.692078 107.006767,846.995911 
	C116.698189,863.147400 130.253357,875.287231 147.075989,883.341309 
	C158.184891,888.659912 170.245895,891.480530 182.476303,893.634583 
	C194.785828,895.802551 207.207825,894.654724 219.495575,896.039246 
	C232.926498,897.552490 246.384567,898.920105 259.528931,902.390442 
	C261.824890,902.996582 264.500000,902.166626 267.000000,902.000000 
"/>
<path fill="none" opacity="1.000000" stroke="#000000" stroke-linecap="round" stroke-linejoin="round" stroke-width="4.000000"
	d="
M1119.500000,1227.500000 
	C1137.317261,1222.110107 1148.145874,1201.991577 1148.484741,1184.999634 
	C1148.695923,1174.402954 1147.174438,1164.355835 1139.011108,1156.488525 
	C1132.238159,1149.961182 1126.828857,1152.393799 1122.966431,1157.976807 
	C1119.809937,1162.539185 1118.815796,1167.783325 1118.070312,1173.010010 
	C1116.320679,1185.279663 1116.390747,1197.713013 1117.258911,1209.981689 
	C1117.835327,1218.129639 1117.369507,1226.471802 1119.940796,1234.518921 
	C1127.095093,1256.909180 1137.823120,1277.014771 1154.916016,1293.586548 
	C1163.490723,1301.899780 1169.405273,1312.533691 1177.776855,1321.215210 
	C1182.774170,1326.397705 1183.026733,1334.420898 1181.872803,1341.479248 
	C1179.609985,1355.322144 1176.906616,1369.083374 1174.773682,1382.965210 
	C1172.866211,1395.380493 1168.557495,1407.291260 1162.585815,1418.545532 
	C1158.958984,1425.380493 1155.037720,1432.130615 1152.516357,1439.505615 
	C1148.736328,1450.562134 1155.278198,1457.137451 1166.006348,1458.448364 
	C1176.429810,1459.722290 1184.136963,1454.609985 1190.488525,1446.990356 
	C1200.818970,1434.597290 1206.075073,1419.841675 1209.991089,1404.497681 
	C1213.881348,1389.254639 1216.277832,1373.674561 1220.459106,1358.488770 
	C1223.782959,1346.417480 1229.338867,1335.285400 1234.581665,1324.038086 
	C1238.053589,1316.590332 1242.209106,1309.499390 1244.585449,1301.525513 
	C1246.214844,1296.057861 1246.235962,1291.512817 1242.107056,1286.904175 
	C1238.238892,1282.586426 1233.489990,1278.724121 1231.542480,1272.985596 
	C1228.559448,1264.195557 1232.550415,1256.375122 1235.588867,1248.534424 
	C1236.324463,1246.636108 1238.034546,1245.037231 1239.520752,1243.520508 
	C1251.621704,1231.170654 1258.643677,1215.900513 1264.459595,1199.985229 
	C1268.107788,1190.001709 1267.778320,1179.381958 1268.396851,1168.993896 
	C1269.298706,1153.851196 1269.620483,1138.669312 1269.956055,1123.499023 
	C1270.165649,1114.028442 1268.873413,1104.689087 1266.549438,1095.487549 
	C1266.150635,1093.909180 1265.211060,1092.166626 1266.500000,1090.500000 
"/>
<path fill="none" opacity="1.000000" stroke="#000000" stroke-linecap="round" stroke-linejoin="round" stroke-width="5.000000"
	d="
M921.500000,964.500000 
	C922.420959,969.139709 922.188049,973.851624 921.939697,978.496765 
	C920.881653,998.289673 929.925049,1019.536194 948.029053,1028.440918 
	C959.635559,1034.149780 972.118469,1033.971802 984.485962,1031.915527 
	C999.378662,1029.439209 1014.212952,1026.551880 1028.983765,1023.423584 
	C1038.928589,1021.317383 1048.984741,1020.036194 1059.010010,1018.568726 
	C1077.562500,1015.853027 1096.261475,1014.965820 1114.998535,1015.547241 
	C1125.570801,1015.875305 1136.032959,1017.147766 1146.526978,1018.832092 
	C1175.320435,1023.453308 1201.323364,1034.836060 1225.408447,1050.639648 
	C1240.295654,1060.407837 1253.278809,1072.446289 1264.274292,1086.789795 
	C1268.616455,1092.453979 1274.834106,1096.825195 1279.046021,1102.968506 
	C1290.024536,1118.981079 1295.970825,1136.515381 1296.010132,1156.000000 
	C1296.039551,1170.564331 1294.678101,1184.909912 1288.962402,1198.484131 
	C1285.547119,1206.594849 1279.268311,1207.831421 1272.981079,1202.020508 
	C1270.874878,1200.073975 1269.405884,1197.165039 1266.000000,1197.000000 
"/>
<path fill="none" opacity="1.000000" stroke="#000000" stroke-linecap="round" stroke-linejoin="round" stroke-width="5.000000"
	d="
M1019.000000,1225.500000 
	C1016.333313,1237.333374 1013.391174,1249.112671 1011.062805,1261.012329 
	C1007.320862,1280.136353 1000.537903,1298.079590 990.973328,1314.984863 
	C983.579834,1328.052734 978.433167,1341.680786 978.979980,1357.000732 
	C979.228271,1363.957153 981.368713,1370.598633 982.271912,1377.464233 
	C983.136658,1384.038086 983.328003,1390.577515 982.818359,1396.985596 
	C981.832397,1409.383179 979.048706,1421.535156 973.955505,1432.980225 
	C970.945129,1439.744873 967.372070,1446.259277 960.491028,1449.983521 
	C948.623474,1456.406494 935.490601,1449.085205 934.527954,1435.498047 
	C934.186462,1430.677002 933.937927,1425.828369 934.042664,1421.000977 
	C934.366699,1406.067993 932.283386,1391.318848 931.141479,1376.489136 
	C930.093811,1362.881714 927.511169,1349.513916 925.730347,1336.035645 
	C924.894592,1329.709961 925.750916,1322.681763 921.500000,1317.000000 
	C923.067322,1312.106934 921.655029,1307.315552 920.998108,1302.500244 
	C919.838257,1293.999268 918.541870,1285.514893 917.528076,1276.996704 
	C915.828979,1262.719971 913.751648,1248.370117 915.167542,1234.016479 
	C916.331543,1222.216797 918.439758,1210.455933 925.883118,1200.413330 
	C927.711853,1197.945923 929.737915,1195.943848 931.984619,1193.982422 
	C940.349854,1186.679321 950.861145,1191.038574 953.942627,1202.016113 
	C960.039001,1223.733398 947.425537,1248.727295 922.491394,1253.958862 
	C920.222961,1254.434814 917.833313,1254.333252 915.500000,1254.499878 
"/>
<path fill="none" opacity="1.000000" stroke="#000000" stroke-linecap="round" stroke-linejoin="round" stroke-width="5.000000"
	d="
M1581.000000,1243.500000 
	C1580.118530,1244.543945 1579.140747,1245.275757 1578.910156,1246.987915 
	C1576.159058,1267.421143 1571.470581,1287.458008 1564.857910,1306.951782 
	C1561.343750,1317.311279 1555.857056,1326.934204 1550.466431,1336.481079 
	C1542.896851,1349.887085 1539.582642,1364.187744 1541.052979,1379.494873 
	C1541.633911,1385.541870 1543.483643,1391.375366 1544.245728,1397.469238 
	C1545.417603,1406.841431 1544.467407,1415.903687 1542.943970,1424.990601 
	C1541.034912,1436.378906 1537.750000,1447.357544 1532.019287,1457.510864 
	C1527.125366,1466.181885 1518.826782,1470.790161 1510.000000,1469.500000 
	C1503.224365,1468.509399 1498.426880,1464.269897 1497.068237,1457.486328 
	C1496.349365,1453.896973 1495.967529,1450.157227 1496.061890,1446.501587 
	C1496.529297,1428.408936 1494.761475,1410.428955 1492.845215,1392.516602 
	C1490.875854,1374.108643 1487.621338,1355.839844 1485.015991,1337.497803 
	C1483.265869,1325.176270 1481.569824,1312.845459 1480.031738,1300.496094 
	C1478.871704,1291.182617 1478.000000,1281.833374 1477.000000,1272.500000 
"/>
<path fill="none" opacity="1.000000" stroke="#000000" stroke-linecap="round" stroke-linejoin="round" stroke-width="13.000000"
	d="
M361.000000,729.500000 
	C368.203613,734.462524 369.455719,742.332458 370.420166,750.010010 
	C373.820282,777.076538 381.901489,802.491028 394.850525,826.580322 
	C402.894135,841.544067 412.673676,855.172363 423.037445,868.470825 
	C428.491760,875.469604 434.120911,882.357178 440.043091,888.961365 
	C453.426514,903.886169 469.959595,914.731384 486.945068,925.090088 
	C502.371246,934.497925 517.205383,944.871643 532.536621,954.441284 
	C547.351379,963.688538 561.810608,973.682007 578.509766,979.471924 
	C584.959717,981.708191 591.695618,982.384399 598.478577,983.181946 
	C606.984314,984.181946 615.194641,983.021973 623.498962,981.991638 
	C624.340027,981.887268 625.210144,981.780396 625.992920,981.481506 
	C631.013489,979.564636 636.270874,978.591248 641.500000,977.500000 
"/>
<path fill="none" opacity="1.000000" stroke="#000000" stroke-linecap="round" stroke-linejoin="round" stroke-width="13.000000"
	d="
M215.000000,548.500000 
	C216.333328,556.666687 217.719116,564.825195 218.987991,573.001892 
	C221.001297,585.975830 222.614777,599.019226 224.676224,611.971924 
	C226.953674,626.281738 228.346786,640.688660 230.515030,654.997742 
	C232.655899,669.126160 233.541367,683.391479 235.790619,697.533325 
	C238.195084,712.650940 239.885468,727.883972 242.274231,743.035583 
	C245.326172,762.393433 248.397842,781.732178 251.832794,801.029785 
	C253.643570,811.202698 255.942429,821.359253 257.168396,831.539917 
	C258.581573,843.274841 261.636444,854.688721 262.663361,866.485779 
	C263.539825,876.554565 265.451080,886.582764 267.593445,896.479797 
	C270.494812,909.882874 272.433868,923.449402 273.766815,937.022888 
	C274.829468,947.843628 275.988678,958.682373 277.198029,969.477844 
	C278.544739,981.499023 279.356689,993.597229 281.816254,1005.537842 
	C283.734131,1014.848755 283.908875,1024.510742 285.026520,1033.996826 
	C286.069000,1042.844849 287.878296,1051.638184 288.340240,1060.508301 
	C288.766144,1068.686401 289.421783,1076.838989 290.029877,1084.997803 
	C290.292389,1088.519531 290.415741,1092.047974 291.356842,1095.538574 
	C291.714386,1096.864746 292.778717,1099.660889 289.500000,1100.000000 
"/>
<path fill="none" opacity="1.000000" stroke="#000000" stroke-linecap="round" stroke-linejoin="round" stroke-width="4.000000"
	d="
M1828.500000,1109.000000 
	C1827.641479,1111.730713 1828.192627,1114.329102 1828.959717,1117.011475 
	C1830.683594,1123.038574 1831.475830,1129.228149 1831.494507,1135.500000 
	C1831.569702,1160.740601 1830.809204,1185.953735 1827.413452,1210.988281 
	C1825.885986,1222.249023 1820.457031,1232.192017 1814.988892,1241.993774 
	C1811.129517,1248.911621 1806.656372,1255.275024 1801.150269,1261.140991 
	C1794.127808,1268.622314 1791.753296,1278.280151 1792.585327,1288.493042 
	C1792.828003,1291.472900 1794.709717,1294.079346 1796.524170,1296.481812 
	C1797.729736,1298.078125 1799.002441,1299.696899 1800.526611,1300.968140 
	C1810.606445,1309.374878 1807.414795,1317.412354 1803.888062,1325.953735 
	C1800.223877,1334.827881 1795.677856,1343.338745 1791.497192,1351.998657 
	C1784.664551,1366.152100 1780.338989,1381.021851 1777.360352,1396.473022 
	C1773.303833,1417.516357 1769.160400,1438.827393 1757.771606,1457.359619 
	C1751.452759,1467.642090 1742.958008,1477.266357 1729.010742,1476.338501 
	C1718.304321,1475.626343 1708.988647,1469.086182 1714.576538,1455.531494 
	C1717.126587,1449.345947 1720.356567,1443.422852 1723.529053,1437.515625 
	C1730.774780,1424.023804 1735.273804,1409.748901 1737.092163,1394.510986 
	C1738.074219,1386.282593 1740.065552,1378.177979 1741.481812,1369.996826 
	C1742.946777,1361.534790 1744.001587,1353.095825 1742.088989,1344.480225 
	C1741.068115,1339.881958 1737.561523,1337.321289 1734.962524,1334.029663 
	C1723.813477,1319.908081 1711.738403,1306.505615 1700.733154,1292.319092 
	C1690.161743,1278.691895 1682.969604,1262.952637 1680.500000,1245.500000 
"/>
<path fill="none" opacity="1.000000" stroke="#000000" stroke-linecap="round" stroke-linejoin="round" stroke-width="8.000000"
	d="
M350.500000,128.500000 
	C347.452606,126.067139 343.496307,127.271637 341.104279,128.253922 
	C326.693512,134.171829 317.805298,146.184143 319.836151,165.017670 
	C323.467651,198.695511 365.267517,212.872055 391.559204,193.078644 
	C402.836212,184.588867 409.549530,173.643707 411.934753,159.988602 
	C413.404572,151.574051 412.544495,143.271057 410.079071,134.976501 
	C403.741730,113.655251 389.736755,99.082939 371.082428,87.862953 
	C360.513397,81.506020 349.077728,77.668793 337.433044,74.768845 
	C328.790070,72.616425 319.525085,73.382576 310.499664,73.463051 
	C289.777557,73.647804 271.173187,80.475342 254.028305,91.543839 
	C230.139206,106.966293 214.178604,128.945114 202.438889,154.471893 
	C193.156128,174.656265 186.325729,195.494736 182.948944,217.492157 
	C180.682159,232.258652 180.009521,247.136353 178.983109,261.998840 
	C178.028122,275.827179 177.853241,289.722504 178.707932,303.487091 
	C179.982590,324.015167 180.908539,344.576599 183.757599,365.033752 
	C185.804169,379.728699 187.759399,394.464172 190.705627,408.958191 
	C194.562149,427.930206 197.902313,447.003876 201.208679,466.050568 
	C203.683029,480.304291 205.670898,494.701660 208.142014,508.975403 
	C210.337967,521.659912 211.694824,534.512329 215.000000,547.000000 
"/>
<path fill="none" opacity="1.000000" stroke="#000000" stroke-linecap="round" stroke-linejoin="round" stroke-width="8.000000"
	d="
M2070.500000,1428.500000 
	C2048.002930,1425.147583 2025.617188,1421.080688 2003.008423,1418.428467 
	C1990.022095,1416.905151 1977.090088,1415.173950 1964.007324,1414.379272 
	C1941.928711,1413.038086 1919.999023,1413.204590 1897.984985,1415.876465 
	C1866.081421,1419.748779 1835.442627,1428.209473 1805.516724,1439.544189 
	C1791.553345,1444.833008 1777.937866,1450.977661 1764.493042,1457.485718 
	C1762.621582,1458.391724 1760.771362,1459.794800 1758.500000,1458.500000 
"/>
<path fill="none" opacity="1.000000" stroke="#000000" stroke-linecap="round" stroke-linejoin="round" stroke-width="5.000000"
	d="
M1403.500000,1224.500000 
	C1400.942017,1230.783081 1395.831177,1235.136475 1391.437012,1239.942383 
	C1378.558594,1254.027466 1372.220215,1270.648071 1370.976196,1289.498413 
	C1369.890747,1305.944702 1374.326904,1320.814331 1382.377319,1335.069214 
	C1388.339355,1345.626465 1395.468018,1355.354004 1402.019531,1365.487427 
	C1403.047241,1367.077271 1404.258667,1368.565796 1405.512695,1369.988892 
	C1411.554443,1376.845947 1417.689575,1376.810669 1423.453735,1369.463745 
	C1430.620117,1360.329590 1432.077271,1350.082764 1430.806396,1338.466431 
	C1429.527588,1326.777710 1422.848633,1319.067627 1415.422485,1311.576782 
	C1407.002686,1303.083496 1405.333862,1300.789062 1415.575684,1289.569092 
	C1423.198364,1281.218384 1431.427734,1273.410522 1440.000000,1266.000000 
"/>
<path fill="none" opacity="1.000000" stroke="#000000" stroke-linecap="round" stroke-linejoin="round" stroke-width="8.000000"
	d="
M1488.000000,1445.000000 
	C1479.146118,1440.726196 1469.703979,1441.174927 1460.518799,1442.619385 
	C1432.330933,1447.051758 1404.242188,1452.450562 1375.505127,1450.426758 
	C1363.165771,1449.557861 1350.858765,1448.231567 1338.515747,1447.292603 
	C1326.343140,1446.366455 1314.184204,1445.753296 1301.999390,1445.534668 
	C1286.001709,1445.247437 1269.999023,1445.440430 1253.996948,1445.207397 
	C1247.038086,1445.106079 1240.001465,1445.432007 1232.999878,1445.482300 
	C1228.065430,1445.517822 1223.745972,1443.122437 1220.954346,1435.516724 
	C1218.703247,1429.383301 1219.441895,1423.176025 1220.056763,1417.005615 
	C1221.087891,1406.659790 1224.042969,1396.501465 1223.440918,1386.003418 
	C1223.120239,1380.412964 1223.565186,1374.471313 1219.000000,1370.000000 
"/>
<path fill="none" opacity="1.000000" stroke="#000000" stroke-linecap="round" stroke-linejoin="round" stroke-width="6.000000"
	d="
M120.000000,869.500000 
	C115.469719,873.906250 115.741890,880.089233 114.654716,885.530884 
	C110.441025,906.621582 106.490265,927.778564 103.102882,949.016418 
	C100.111496,967.771362 97.959396,986.661438 95.514572,1005.501892 
	C93.937065,1017.658508 91.907196,1029.796509 91.148842,1042.009277 
	C90.183510,1057.555542 87.422836,1072.907959 86.905006,1088.496826 
	C86.583328,1098.180420 85.346230,1107.834473 84.495789,1117.499634 
	C83.850357,1124.834839 83.259636,1132.176636 82.475441,1139.497314 
	C81.581566,1147.842163 80.420616,1156.158081 79.516853,1164.501831 
	C77.733742,1180.963867 76.283119,1197.438599 75.295441,1213.987793 
	C74.081757,1234.323853 73.493591,1254.697632 71.691551,1275.016968 
	C70.528008,1288.136963 69.834000,1301.334229 69.047012,1314.502808 
	C67.624146,1338.311401 66.261925,1362.144653 66.632996,1385.997925 
	C66.811714,1397.486084 66.408340,1409.301270 72.053787,1419.971558 
	C73.377495,1422.473389 70.506805,1424.244141 71.500000,1426.500000 
"/>
<path fill="none" opacity="1.000000" stroke="#000000" stroke-linecap="round" stroke-linejoin="round" stroke-width="10.000000"
	d="
M73.000000,1421.000000 
	C79.941490,1422.409546 87.051224,1422.352051 94.025703,1423.882935 
	C106.872139,1426.703125 119.087318,1431.364136 131.529175,1435.410278 
	C142.170807,1438.870972 152.964661,1441.881714 163.987274,1444.064331 
	C175.688507,1446.381226 187.225784,1449.441162 198.970398,1451.656860 
	C208.786972,1453.508911 218.572235,1455.280884 228.470810,1456.703125 
	C238.301163,1458.115723 248.141327,1458.853516 258.003632,1459.438721 
	C271.317596,1460.228638 284.646912,1461.155151 298.002502,1460.029785 
	C300.484894,1459.820557 303.000000,1460.000000 305.500000,1460.000000 
"/>
<path fill="none" opacity="1.000000" stroke="#000000" stroke-linecap="round" stroke-linejoin="round" stroke-width="4.000000"
	d="
M520.500000,1404.500000 
	C504.812225,1404.420410 489.298218,1406.247437 474.016510,1409.575806 
	C457.044067,1413.272339 440.326263,1418.012817 424.007721,1424.020996 
	C407.972382,1429.924927 392.084320,1436.239380 375.970001,1441.914795 
	C365.438660,1445.623779 354.992462,1449.698853 344.002777,1452.013184 
	C338.306488,1453.212769 332.814514,1455.133667 327.034271,1456.187988 
	C320.330841,1457.410645 313.987762,1456.143677 307.500000,1455.500000 
"/>
<path fill="none" opacity="1.000000" stroke="#000000" stroke-linecap="round" stroke-linejoin="round" stroke-width="6.000000"
	d="
M324.000000,452.000000 
	C338.737732,439.427948 350.997040,424.584564 363.008606,409.506866 
	C370.920624,399.575165 378.748077,389.503967 390.015991,383.027802 
	C398.402740,378.207611 407.362366,375.039337 416.981689,373.393066 
	C425.633545,371.912354 434.410461,370.776459 442.973785,371.734344 
	C455.046021,373.084717 466.999359,375.997162 477.972504,381.554321 
	C490.930725,388.116821 502.576782,396.630890 510.378082,409.076416 
	C517.941467,421.142334 522.873352,434.586639 527.401489,448.033173 
	C533.534363,466.245300 541.167542,483.790344 550.672241,500.401428 
	C556.226868,510.109070 563.405334,518.903015 570.063599,527.953186 
	C571.825378,530.347900 574.929504,529.352417 577.500000,529.500000 
"/>
<path fill="none" opacity="1.000000" stroke="#000000" stroke-linecap="round" stroke-linejoin="round" stroke-width="5.000000"
	d="
M1252.500000,1240.500000 
	C1249.556885,1257.055908 1253.827637,1272.432617 1261.108032,1286.945801 
	C1270.733398,1306.133667 1269.488892,1325.585083 1264.543701,1345.510864 
	C1259.840698,1364.460449 1255.849854,1383.592285 1250.873169,1402.466553 
	C1247.719482,1414.427490 1246.052856,1426.902832 1240.011475,1438.006226 
	C1238.765503,1440.296387 1237.666626,1442.666626 1236.500000,1445.000000 
"/>
<path fill="none" opacity="1.000000" stroke="#000000" stroke-linecap="round" stroke-linejoin="round" stroke-width="6.000000"
	d="
M1484.000000,1007.500000 
	C1485.722656,1016.324097 1488.462524,1024.529907 1493.845825,1032.109497 
	C1502.363770,1044.103149 1513.886108,1049.711060 1528.004395,1050.410767 
	C1540.239258,1051.017212 1552.123779,1048.426392 1564.036133,1045.655396 
	C1575.703491,1042.941406 1587.663818,1041.483276 1599.500977,1039.505737 
	C1607.662598,1038.142334 1615.795776,1036.496582 1624.008789,1035.579102 
	C1636.286499,1034.207397 1648.599121,1032.989990 1661.002319,1033.436279 
	C1662.288452,1033.482666 1664.788330,1034.712891 1664.500000,1031.500000 
"/>
<path fill="none" opacity="1.000000" stroke="#000000" stroke-linecap="round" stroke-linejoin="round" stroke-width="4.000000"
	d="
M1390.000000,1073.500000 
	C1389.666626,1074.666626 1389.033691,1075.836548 1389.046021,1076.999512 
	C1389.182007,1089.762329 1386.819580,1102.317993 1385.954346,1114.996826 
	C1385.554932,1120.848511 1384.463623,1126.651855 1384.036987,1132.502686 
	C1382.557617,1152.786011 1387.589722,1171.860107 1396.108765,1189.948730 
	C1405.477051,1209.840942 1415.273682,1229.552490 1426.500000,1248.500000 
"/>
<path fill="none" opacity="1.000000" stroke="#000000" stroke-linecap="round" stroke-linejoin="round" stroke-width="5.000000"
	d="
M1465.500000,893.000000 
	C1468.166748,900.000000 1470.705933,907.051880 1473.528564,913.988403 
	C1478.363281,925.869507 1480.552856,938.230896 1481.031738,950.998779 
	C1481.565796,965.236816 1480.913696,979.437500 1476.370239,992.956360 
	C1469.750854,1012.651367 1461.042236,1031.388062 1444.963745,1045.458496 
	C1431.997559,1056.805420 1417.294067,1056.428711 1402.557617,1049.870605 
	C1391.947510,1045.148804 1383.257324,1037.754761 1376.417236,1028.058350 
	C1366.681519,1014.257263 1359.265991,999.298645 1355.712402,982.953796 
	C1351.196045,962.180786 1345.294922,941.517578 1345.359497,920.000305 
	C1345.379883,913.196716 1348.555420,907.068909 1353.053955,902.048401 
	C1365.045288,888.665649 1379.041382,878.354919 1396.989868,874.206360 
	C1407.947510,871.673584 1418.643555,872.032288 1429.526367,874.899780 
	C1440.453125,877.778992 1450.817139,881.855835 1459.358643,889.165161 
	C1464.000977,893.137695 1469.200684,892.091309 1474.029907,892.794556 
	C1492.678589,895.510071 1510.802734,893.388855 1528.039062,885.081055 
	C1533.292969,882.548767 1538.353149,879.704407 1543.524902,877.048401 
	C1547.956177,874.772644 1550.817871,871.895935 1549.500000,866.500000 
"/>
<path fill="none" opacity="1.000000" stroke="#000000" stroke-linecap="round" stroke-linejoin="round" stroke-width="4.000000"
	d="
M920.000000,1318.000000 
	C916.656921,1322.446411 916.031372,1327.995605 914.679199,1333.047974 
	C907.454407,1360.041992 899.244202,1386.679199 888.501343,1412.500610 
	C884.807251,1421.379761 881.083557,1430.280396 874.465637,1437.468384 
	C868.880554,1443.534546 861.812927,1446.665527 853.500732,1446.469971 
	C846.696289,1446.309937 842.561035,1441.811035 842.475281,1435.000366 
	C842.439392,1432.147583 843.101196,1429.184204 841.500000,1426.500000 
"/>
<path fill="none" opacity="1.000000" stroke="#000000" stroke-linecap="round" stroke-linejoin="round" stroke-width="5.000000"
	d="
M1681.500000,1245.000000 
	C1693.569458,1241.235474 1701.227783,1232.387207 1705.803101,1221.417847 
	C1711.482300,1207.802246 1712.722900,1193.794678 1705.172485,1179.906250 
	C1703.060913,1176.022217 1700.305054,1172.954956 1696.898804,1171.195923 
	C1691.006958,1168.153198 1686.035522,1170.836914 1683.135010,1178.550781 
	C1677.939697,1192.367432 1677.532593,1206.855713 1678.370728,1221.507446 
	C1678.830322,1229.543579 1679.693359,1237.511719 1680.500000,1245.500000 
"/>
<path fill="none" opacity="1.000000" stroke="#000000" stroke-linecap="round" stroke-linejoin="round" stroke-width="6.000000"
	d="
M1692.500000,1296.500000 
	C1692.360107,1307.738647 1689.380737,1318.471680 1685.901978,1328.967529 
	C1678.503540,1351.289551 1668.414917,1372.429321 1657.107788,1393.059082 
	C1649.375366,1407.166870 1642.149902,1421.590942 1638.433838,1437.484497 
	C1636.479858,1445.841431 1637.428101,1448.963379 1645.532471,1450.861328 
	C1655.005249,1453.079712 1664.658936,1454.502930 1674.026489,1449.550049 
	C1682.012207,1445.328125 1685.003418,1437.994995 1686.962524,1429.990845 
	C1689.450684,1419.824341 1689.704956,1409.331421 1690.887085,1398.987061 
	C1692.498901,1384.882812 1698.386719,1373.408569 1708.942749,1363.936279 
	C1718.237183,1355.596069 1727.952026,1347.655396 1736.000000,1338.000000 
"/>
<path fill="none" opacity="1.000000" stroke="#000000" stroke-linecap="round" stroke-linejoin="round" stroke-width="5.000000"
	d="
M1665.000000,1033.250000 
	C1669.166626,1033.333374 1673.333374,1033.489136 1677.500000,1033.488159 
	C1704.973511,1033.482056 1731.031616,1039.892944 1755.985962,1051.031494 
	C1776.553711,1060.212280 1795.334473,1072.185547 1811.469971,1088.030518 
	C1815.504395,1091.992432 1819.831299,1095.905029 1822.853516,1100.594482 
	C1828.172241,1108.847534 1836.125488,1112.976685 1844.473755,1117.053833 
	C1863.757690,1126.471802 1884.396606,1131.726318 1905.032471,1136.869629 
	C1914.473755,1139.222656 1924.277588,1140.125000 1933.490234,1143.526367 
	C1934.245361,1143.805054 1934.862915,1144.456543 1935.488525,1144.895630 
	C1935.664795,1146.554321 1934.513184,1147.263916 1933.493164,1147.990479 
	C1920.850586,1156.996338 1908.526855,1166.712158 1893.468994,1171.400391 
	C1879.040771,1175.892700 1863.215454,1177.516357 1851.925415,1163.560303 
	C1849.434814,1160.481689 1846.000000,1158.166626 1843.000000,1155.500000 
"/>
<path fill="none" opacity="1.000000" stroke="#000000" stroke-linecap="round" stroke-linejoin="round" stroke-width="18.000000"
	d="
M291.000000,1100.500000 
	C293.375702,1106.973877 292.539581,1113.849121 293.373932,1120.515747 
	C294.826965,1132.125732 295.452484,1143.837646 296.513916,1155.498779 
	C297.488739,1166.208008 298.599579,1176.901123 300.478302,1187.503906 
	C301.596771,1193.816284 302.801941,1200.136719 303.432922,1206.506592 
	C304.521576,1217.496582 306.047302,1228.436768 306.578918,1239.496216 
	C307.252594,1253.511841 308.502960,1267.499756 309.498352,1281.500122 
	C309.841919,1286.332764 310.391357,1291.163330 310.461853,1296.000610 
	C310.802002,1319.333740 312.162598,1342.662598 311.436188,1365.998047 
	C310.730286,1388.673828 309.134033,1411.325562 308.646759,1434.003174 
	C308.383698,1446.247681 306.457733,1458.299194 305.744659,1470.485107 
	C305.116455,1481.220459 303.554810,1492.043335 300.500000,1502.500000 
"/>
<path fill="none" opacity="1.000000" stroke="#000000" stroke-linecap="round" stroke-linejoin="round" stroke-width="1.000000"
	d="
M291.999969,1536.000000 
	C291.833313,1536.500000 291.666656,1537.000000 291.499969,1537.500000 
"/>
<path fill="none" opacity="1.000000" stroke="#000000" stroke-linecap="round" stroke-linejoin="round" stroke-width="5.000000"
	d="
M1434.500000,1256.500000 
	C1446.396484,1266.338501 1459.755493,1271.334595 1475.494873,1271.711914 
	C1499.084595,1272.277344 1512.873047,1256.613281 1516.753540,1236.951416 
	C1518.097168,1230.143555 1517.725464,1222.775757 1514.102417,1215.945679 
	C1508.993530,1206.314453 1498.826660,1205.547241 1491.550659,1213.049194 
	C1483.639038,1221.206543 1480.101685,1231.553589 1477.980103,1242.496094 
	C1476.436035,1250.461060 1477.174805,1258.493042 1476.981323,1266.499512 
	C1476.944946,1268.002686 1476.666748,1269.500000 1476.500000,1271.000000 
"/>
<path fill="none" opacity="1.000000" stroke="#000000" stroke-linecap="round" stroke-linejoin="round" stroke-width="6.000000"
	d="
M1279.500000,912.500000 
	C1279.777344,909.917358 1277.854248,910.354431 1276.505005,910.537231 
	C1266.711792,911.864441 1256.892090,912.679382 1246.999878,912.510254 
	C1243.962769,912.458313 1241.390381,913.526917 1239.166138,916.141296 
	C1244.109985,921.474060 1250.775757,923.822144 1257.073608,925.760742 
	C1266.539185,928.674438 1275.993652,931.890381 1285.990601,933.079041 
	C1304.187500,935.242554 1321.010132,931.753967 1336.473145,921.957642 
	C1338.993652,920.360901 1341.355347,918.725403 1344.500000,919.000000 
"/>
<path fill="none" opacity="1.000000" stroke="#000000" stroke-linecap="round" stroke-linejoin="round" stroke-width="5.000000"
	d="
M1018.000000,1220.500000 
	C1021.003540,1216.629028 1020.195374,1211.769165 1020.785706,1207.470581 
	C1022.726440,1193.337402 1022.407837,1179.194580 1017.540283,1165.485718 
	C1017.107849,1164.267822 1016.739197,1163.118164 1016.070435,1161.959351 
	C1014.305176,1158.901001 1012.130127,1155.853271 1008.514526,1156.167480 
	C1003.977478,1156.561401 1002.073730,1160.605835 1001.062012,1164.515991 
	C998.476074,1174.510620 998.627930,1184.421265 1001.364868,1194.536621 
	C1004.179077,1204.937378 1008.942505,1213.432007 1016.674500,1221.319092 
	C1023.393616,1228.172974 1031.154785,1230.932007 1039.524170,1233.418457 
	C1042.876953,1234.414307 1046.488037,1234.809448 1050.002075,1234.945923 
	C1064.714233,1235.517700 1079.407104,1234.802246 1093.986816,1232.898682 
	C1102.232544,1231.822144 1110.653442,1231.235229 1118.500000,1228.000000 
"/>
<path fill="none" opacity="1.000000" stroke="#000000" stroke-linecap="round" stroke-linejoin="round" stroke-width="5.000000"
	d="
M1680.000000,1246.000000 
	C1665.871338,1249.466675 1651.555298,1251.388428 1637.007446,1252.144287 
	C1630.339844,1252.490723 1623.684448,1252.957642 1617.000122,1253.017090 
	C1604.427124,1253.128906 1592.904541,1249.423828 1582.024414,1243.455566 
	C1579.990967,1242.340088 1579.615112,1240.456177 1580.180542,1237.984131 
	C1583.973633,1221.399170 1584.446045,1204.697876 1580.912842,1188.018433 
	C1580.179932,1184.557983 1578.814331,1181.021729 1576.899170,1178.065308 
	C1572.997192,1172.041626 1567.103760,1172.293213 1563.991821,1178.996216 
	C1561.178467,1185.055298 1560.840332,1191.521973 1561.041260,1197.998779 
	C1561.497192,1212.700317 1565.672363,1226.014893 1575.911621,1237.081787 
	C1577.058716,1238.321411 1578.072510,1238.789917 1579.500000,1239.000000 
"/>
<path fill="none" opacity="1.000000" stroke="#000000" stroke-linecap="round" stroke-linejoin="round" stroke-width="6.000000"
	d="
M1549.500000,870.000000 
	C1544.333374,866.787781 1538.991699,869.301758 1534.032715,870.184143 
	C1519.108521,872.839783 1504.286865,876.133850 1489.518555,879.579224 
	C1481.415161,881.469727 1473.500000,884.166687 1465.500000,886.500000 
"/>
<path fill="none" opacity="1.000000" stroke="#000000" stroke-linecap="round" stroke-linejoin="round" stroke-width="8.000000"
	d="
M313.000000,970.500000 
	C314.100189,963.369019 314.423370,956.266846 314.205414,948.993835 
	C313.901947,938.866150 309.247681,930.897156 303.372650,923.602539 
	C297.551514,916.375000 289.826813,911.362061 281.056091,907.859558 
	C277.488586,906.434875 274.372986,906.873474 271.000000,907.500000 
"/>
<path fill="none" opacity="1.000000" stroke="#000000" stroke-linecap="round" stroke-linejoin="round" stroke-width="4.000000"
	d="
M931.500061,877.500000 
	C933.833374,870.833374 936.077148,864.132629 938.588318,857.533569 
	C939.004150,856.440796 938.888733,855.497803 938.969971,854.497559 
	C939.105591,852.827087 938.794678,851.539062 937.072449,850.391235 
	C935.182983,849.131836 933.781616,850.566895 933.092712,851.116272 
	C923.531128,858.741150 916.352295,868.308044 911.646729,879.561340 
	C910.792480,881.604309 910.610413,884.801758 913.500000,886.500000 
"/>
<path fill="none" opacity="1.000000" stroke="#000000" stroke-linecap="round" stroke-linejoin="round" stroke-width="6.000000"
	d="
M1331.500000,912.500000 
	C1314.274658,908.257812 1296.913696,908.715759 1279.500000,911.000000 
"/>
<path fill="none" opacity="1.000000" stroke="#000000" stroke-linecap="round" stroke-linejoin="round" stroke-width="8.000000"
	d="
M132.500000,811.500000 
	C128.556183,822.071960 127.735336,833.458313 123.763290,844.098267 
	C122.221443,848.228455 122.735664,853.138184 119.000000,856.500000 
"/>
<path fill="none" opacity="1.000000" stroke="#000000" stroke-linecap="round" stroke-linejoin="round" stroke-width="3.000000"
	d="
M871.500000,1237.500000 
	C883.537354,1248.974121 898.153687,1253.924927 914.500000,1254.500000 
"/>
<path fill="none" opacity="1.000000" stroke="#000000" stroke-linecap="round" stroke-linejoin="round" stroke-width="6.000000"
	d="
M1434.500000,1001.500000 
	C1433.254395,1005.002930 1430.757568,1007.665344 1428.509521,1010.507568 
	C1421.936157,1018.818848 1411.289673,1018.534180 1402.500000,1009.500000 
"/>
<path fill="none" opacity="1.000000" stroke="#000000" stroke-linecap="round" stroke-linejoin="round" stroke-width="6.000000"
	d="
M756.000000,949.500000 
	C754.862183,952.840332 751.288513,953.088806 748.891235,954.281372 
	C743.918091,956.755371 738.333313,958.000000 733.000000,959.750000 
"/>
<path fill="none" opacity="1.000000" stroke="#000000" stroke-linecap="round" stroke-linejoin="round" stroke-width="6.000000"
	d="
M1419.000000,1024.500000 
	C1419.965576,1028.136597 1419.785034,1031.981934 1421.381958,1035.552734 
	C1422.003662,1036.943115 1421.960327,1039.058716 1420.500000,1040.500000 
"/>
</svg>