<svg xmlns="http://www.w3.org/2000/svg" viewBox="44 210 280 95" width="100%">
  <defs>
    
  </defs>
  <path d="M82.69,238.72c-6.43.4-11.02,5.73-11.06,12.05l-.2,33.95-15.38-.09v-57.84s15.12-.1,15.12-.1l.51,7.63c7.27-10.7,22.21-12.38,31.36-3.3,3.43,3.4,5.48,8.39,5.81,13.38.53,7.99.28,15.92.19,24.05l-.2,16.32-15.32-.05-.14-37.02c-.02-5.68-4.96-9.31-10.68-8.96Z" style="fill:rgb(245, 237, 229);stroke:none;color:rgb(255, 255, 255);stroke-width:1px;stroke-linecap:butt;stroke-linejoin:miter;opacity:1;font-family:&quot;Anthropic Sans&quot;, -apple-system, &quot;system-ui&quot;, &quot;Segoe UI&quot;, sans-serif;font-size:16px;font-weight:400;text-anchor:start;dominant-baseline:auto"/>
  <path d="M237.06,284.46c-5.84-.49-11.69-4.72-11.74-10.94l-.3-36.38c-2.25-.29-4.12-.3-6.35.01l-.05,66.43-15.48-.02-.16-24.96c-4.04,4.47-7.99,6.92-13.5,7.52-8.67.95-17.07-3.11-22.04-10.36-2.26-3.29-3.24-6.59-5.13-10.55l-.39,19.56-14.72-.1c.15-2.76.22-4.44-.58-6.53-4.81,6.3-10.95,8.49-18.37,8.07-9.56-.55-18.11-7.27-18.19-17.59l-.32-41.93,15.36.04.15,37.62c.02,5.11,3.62,8.3,8.32,8.71,6.6.58,12.8-3.93,12.85-11.12l.25-35.18,15.32-.11.39,19.51c2.42-6.02,4.19-11.2,9.01-15.29,6.72-5.72,16.26-7.4,24.49-3.82,3.02,1.31,4.81,3.72,7.52,6.4l.56-6.76,21.06-.08.11-18.03,14.9-.09.19,18.07,10.03.17-.02,10.02-10.05.19-.06,30.92c0,3.17,2.09,5.27,5.2,5.42l1.88.09c1.78.09-3.38-13.8,9.43-19.76,13.59-6.32,30.93-2.53,28.08-12.39-1.5-5.2-7.96-4.89-11.99-4.79-4.8.13-8.21,3.09-8.81,8.03l-13.39-.07c-.15-7.08,4.06-13.42,10.8-16.39,8.34-3.67,17.9-3.68,26.64-.87,7.23,2.32,11.75,8.93,11.81,16.57l.29,35.07c.02,1.94.97,3.89,1.65,5.97l-14.8-.06-1.91-5.72c-2.88,2.98-5.07,4.99-8.51,6.05-8.56,2.63-19.21,1.29-25.7-5.57l-.61,5.23c-4.57.06-8.39.18-13.1-.21ZM190.1,272.94c5.34.04,9.79-2.79,11.69-7.72,2.65-6.86,2.27-14.65-.86-21.28-2.01-4.26-6.07-6.36-10.61-6.35-5,.02-9.21,2.5-11.01,7.32-2.21,5.93-2.41,12.74-.83,18.88,1.43,5.54,5.76,9.11,11.61,9.15ZM275.32,274.94c5.55-.93,9.98-5.04,10.01-10.58l.05-8.22-13.79,3.67c-2.59.69-5.55,1.57-7.4,3.7-2.31,2.66-2.1,7.71.59,9.9,2.94,2.39,6.72,2.17,10.54,1.53Z" style="fill:rgb(245, 237, 229);stroke:none;color:rgb(255, 255, 255);stroke-width:1px;stroke-linecap:butt;stroke-linejoin:miter;opacity:1;font-family:&quot;Anthropic Sans&quot;, -apple-system, &quot;system-ui&quot;, &quot;Segoe UI&quot;, sans-serif;font-size:16px;font-weight:400;text-anchor:start;dominant-baseline:auto"/>
  <path d="M303.75,284.53c3.17,2.57,6.89,3.06,10.22,1.2,2.88-1.61,4.75-4.87,4.23-8.6-.43-3.05-2.58-6.2-6.05-6.91-4.2-.86-8.13.62-9.89,3.87-1.89,3.49-1.77,7.8,1.5,10.44Z" style="fill:rgb(245, 237, 229);stroke:none;color:rgb(255, 255, 255);stroke-width:1px;stroke-linecap:butt;stroke-linejoin:miter;opacity:1;font-family:&quot;Anthropic Sans&quot;, -apple-system, &quot;system-ui&quot;, &quot;Segoe UI&quot;, sans-serif;font-size:16px;font-weight:400;text-anchor:start;dominant-baseline:auto"/>
</svg>